G04 #@! TF.GenerationSoftware,KiCad,Pcbnew,5.1.5*
G04 #@! TF.CreationDate,2020-01-22T08:13:41+00:00*
G04 #@! TF.ProjectId,macro20,6d616372-6f32-4302-9e6b-696361645f70,rev?*
G04 #@! TF.SameCoordinates,Original*
G04 #@! TF.FileFunction,Soldermask,Bot*
G04 #@! TF.FilePolarity,Negative*
%FSLAX46Y46*%
G04 Gerber Fmt 4.6, Leading zero omitted, Abs format (unit mm)*
G04 Created by KiCad (PCBNEW 5.1.5) date 2020-01-22 08:13:41*
%MOMM*%
%LPD*%
G04 APERTURE LIST*
%ADD10C,0.100000*%
G04 APERTURE END LIST*
D10*
G36*
X166848549Y-144667116D02*
G01*
X166959734Y-144689232D01*
X167169203Y-144775997D01*
X167357720Y-144901960D01*
X167518040Y-145062280D01*
X167644003Y-145250797D01*
X167730768Y-145460266D01*
X167775000Y-145682636D01*
X167775000Y-145909364D01*
X167730768Y-146131734D01*
X167644003Y-146341203D01*
X167518040Y-146529720D01*
X167357720Y-146690040D01*
X167169203Y-146816003D01*
X166959734Y-146902768D01*
X166848549Y-146924884D01*
X166737365Y-146947000D01*
X166510635Y-146947000D01*
X166399451Y-146924884D01*
X166288266Y-146902768D01*
X166078797Y-146816003D01*
X165890280Y-146690040D01*
X165729960Y-146529720D01*
X165603997Y-146341203D01*
X165517232Y-146131734D01*
X165473000Y-145909364D01*
X165473000Y-145682636D01*
X165517232Y-145460266D01*
X165603997Y-145250797D01*
X165729960Y-145062280D01*
X165890280Y-144901960D01*
X166078797Y-144775997D01*
X166288266Y-144689232D01*
X166399451Y-144667116D01*
X166510635Y-144645000D01*
X166737365Y-144645000D01*
X166848549Y-144667116D01*
G37*
G36*
X72868549Y-144667116D02*
G01*
X72979734Y-144689232D01*
X73189203Y-144775997D01*
X73377720Y-144901960D01*
X73538040Y-145062280D01*
X73664003Y-145250797D01*
X73750768Y-145460266D01*
X73795000Y-145682636D01*
X73795000Y-145909364D01*
X73750768Y-146131734D01*
X73664003Y-146341203D01*
X73538040Y-146529720D01*
X73377720Y-146690040D01*
X73189203Y-146816003D01*
X72979734Y-146902768D01*
X72868549Y-146924884D01*
X72757365Y-146947000D01*
X72530635Y-146947000D01*
X72419451Y-146924884D01*
X72308266Y-146902768D01*
X72098797Y-146816003D01*
X71910280Y-146690040D01*
X71749960Y-146529720D01*
X71623997Y-146341203D01*
X71537232Y-146131734D01*
X71493000Y-145909364D01*
X71493000Y-145682636D01*
X71537232Y-145460266D01*
X71623997Y-145250797D01*
X71749960Y-145062280D01*
X71910280Y-144901960D01*
X72098797Y-144775997D01*
X72308266Y-144689232D01*
X72419451Y-144667116D01*
X72530635Y-144645000D01*
X72757365Y-144645000D01*
X72868549Y-144667116D01*
G37*
G36*
X127216000Y-141821000D02*
G01*
X125514000Y-141821000D01*
X125514000Y-140119000D01*
X127216000Y-140119000D01*
X127216000Y-141821000D01*
G37*
G36*
X146266000Y-141821000D02*
G01*
X144564000Y-141821000D01*
X144564000Y-140119000D01*
X146266000Y-140119000D01*
X146266000Y-141821000D01*
G37*
G36*
X89116000Y-141821000D02*
G01*
X87414000Y-141821000D01*
X87414000Y-140119000D01*
X89116000Y-140119000D01*
X89116000Y-141821000D01*
G37*
G36*
X108166000Y-141821000D02*
G01*
X106464000Y-141821000D01*
X106464000Y-140119000D01*
X108166000Y-140119000D01*
X108166000Y-141821000D01*
G37*
G36*
X99656474Y-136463684D02*
G01*
X99874474Y-136553983D01*
X100028623Y-136617833D01*
X100363548Y-136841623D01*
X100648377Y-137126452D01*
X100872167Y-137461377D01*
X100904562Y-137539586D01*
X101026316Y-137833526D01*
X101104900Y-138228594D01*
X101104900Y-138631406D01*
X101026316Y-139026474D01*
X100975451Y-139149272D01*
X100872167Y-139398623D01*
X100648377Y-139733548D01*
X100363548Y-140018377D01*
X100028623Y-140242167D01*
X99874474Y-140306017D01*
X99656474Y-140396316D01*
X99261406Y-140474900D01*
X98858594Y-140474900D01*
X98463526Y-140396316D01*
X98245526Y-140306017D01*
X98091377Y-140242167D01*
X97756452Y-140018377D01*
X97471623Y-139733548D01*
X97247833Y-139398623D01*
X97144549Y-139149272D01*
X97093684Y-139026474D01*
X97015100Y-138631406D01*
X97015100Y-138228594D01*
X97093684Y-137833526D01*
X97215438Y-137539586D01*
X97247833Y-137461377D01*
X97471623Y-137126452D01*
X97756452Y-136841623D01*
X98091377Y-136617833D01*
X98245526Y-136553983D01*
X98463526Y-136463684D01*
X98858594Y-136385100D01*
X99261406Y-136385100D01*
X99656474Y-136463684D01*
G37*
G36*
X137756474Y-136463684D02*
G01*
X137974474Y-136553983D01*
X138128623Y-136617833D01*
X138463548Y-136841623D01*
X138748377Y-137126452D01*
X138972167Y-137461377D01*
X139004562Y-137539586D01*
X139126316Y-137833526D01*
X139204900Y-138228594D01*
X139204900Y-138631406D01*
X139126316Y-139026474D01*
X139075451Y-139149272D01*
X138972167Y-139398623D01*
X138748377Y-139733548D01*
X138463548Y-140018377D01*
X138128623Y-140242167D01*
X137974474Y-140306017D01*
X137756474Y-140396316D01*
X137361406Y-140474900D01*
X136958594Y-140474900D01*
X136563526Y-140396316D01*
X136345526Y-140306017D01*
X136191377Y-140242167D01*
X135856452Y-140018377D01*
X135571623Y-139733548D01*
X135347833Y-139398623D01*
X135244549Y-139149272D01*
X135193684Y-139026474D01*
X135115100Y-138631406D01*
X135115100Y-138228594D01*
X135193684Y-137833526D01*
X135315438Y-137539586D01*
X135347833Y-137461377D01*
X135571623Y-137126452D01*
X135856452Y-136841623D01*
X136191377Y-136617833D01*
X136345526Y-136553983D01*
X136563526Y-136463684D01*
X136958594Y-136385100D01*
X137361406Y-136385100D01*
X137756474Y-136463684D01*
G37*
G36*
X80606474Y-136463684D02*
G01*
X80824474Y-136553983D01*
X80978623Y-136617833D01*
X81313548Y-136841623D01*
X81598377Y-137126452D01*
X81822167Y-137461377D01*
X81854562Y-137539586D01*
X81976316Y-137833526D01*
X82054900Y-138228594D01*
X82054900Y-138631406D01*
X81976316Y-139026474D01*
X81925451Y-139149272D01*
X81822167Y-139398623D01*
X81598377Y-139733548D01*
X81313548Y-140018377D01*
X80978623Y-140242167D01*
X80824474Y-140306017D01*
X80606474Y-140396316D01*
X80211406Y-140474900D01*
X79808594Y-140474900D01*
X79413526Y-140396316D01*
X79195526Y-140306017D01*
X79041377Y-140242167D01*
X78706452Y-140018377D01*
X78421623Y-139733548D01*
X78197833Y-139398623D01*
X78094549Y-139149272D01*
X78043684Y-139026474D01*
X77965100Y-138631406D01*
X77965100Y-138228594D01*
X78043684Y-137833526D01*
X78165438Y-137539586D01*
X78197833Y-137461377D01*
X78421623Y-137126452D01*
X78706452Y-136841623D01*
X79041377Y-136617833D01*
X79195526Y-136553983D01*
X79413526Y-136463684D01*
X79808594Y-136385100D01*
X80211406Y-136385100D01*
X80606474Y-136463684D01*
G37*
G36*
X118706474Y-136463684D02*
G01*
X118924474Y-136553983D01*
X119078623Y-136617833D01*
X119413548Y-136841623D01*
X119698377Y-137126452D01*
X119922167Y-137461377D01*
X119954562Y-137539586D01*
X120076316Y-137833526D01*
X120154900Y-138228594D01*
X120154900Y-138631406D01*
X120076316Y-139026474D01*
X120025451Y-139149272D01*
X119922167Y-139398623D01*
X119698377Y-139733548D01*
X119413548Y-140018377D01*
X119078623Y-140242167D01*
X118924474Y-140306017D01*
X118706474Y-140396316D01*
X118311406Y-140474900D01*
X117908594Y-140474900D01*
X117513526Y-140396316D01*
X117295526Y-140306017D01*
X117141377Y-140242167D01*
X116806452Y-140018377D01*
X116521623Y-139733548D01*
X116297833Y-139398623D01*
X116194549Y-139149272D01*
X116143684Y-139026474D01*
X116065100Y-138631406D01*
X116065100Y-138228594D01*
X116143684Y-137833526D01*
X116265438Y-137539586D01*
X116297833Y-137461377D01*
X116521623Y-137126452D01*
X116806452Y-136841623D01*
X117141377Y-136617833D01*
X117295526Y-136553983D01*
X117513526Y-136463684D01*
X117908594Y-136385100D01*
X118311406Y-136385100D01*
X118706474Y-136463684D01*
G37*
G36*
X132350104Y-137539585D02*
G01*
X132518626Y-137609389D01*
X132670291Y-137710728D01*
X132799272Y-137839709D01*
X132900611Y-137991374D01*
X132970415Y-138159896D01*
X133006000Y-138338797D01*
X133006000Y-138521203D01*
X132970415Y-138700104D01*
X132900611Y-138868626D01*
X132799272Y-139020291D01*
X132670291Y-139149272D01*
X132518626Y-139250611D01*
X132350104Y-139320415D01*
X132171203Y-139356000D01*
X131988797Y-139356000D01*
X131809896Y-139320415D01*
X131641374Y-139250611D01*
X131489709Y-139149272D01*
X131360728Y-139020291D01*
X131259389Y-138868626D01*
X131189585Y-138700104D01*
X131154000Y-138521203D01*
X131154000Y-138338797D01*
X131189585Y-138159896D01*
X131259389Y-137991374D01*
X131360728Y-137839709D01*
X131489709Y-137710728D01*
X131641374Y-137609389D01*
X131809896Y-137539585D01*
X131988797Y-137504000D01*
X132171203Y-137504000D01*
X132350104Y-137539585D01*
G37*
G36*
X142510104Y-137539585D02*
G01*
X142678626Y-137609389D01*
X142830291Y-137710728D01*
X142959272Y-137839709D01*
X143060611Y-137991374D01*
X143130415Y-138159896D01*
X143166000Y-138338797D01*
X143166000Y-138521203D01*
X143130415Y-138700104D01*
X143060611Y-138868626D01*
X142959272Y-139020291D01*
X142830291Y-139149272D01*
X142678626Y-139250611D01*
X142510104Y-139320415D01*
X142331203Y-139356000D01*
X142148797Y-139356000D01*
X141969896Y-139320415D01*
X141801374Y-139250611D01*
X141649709Y-139149272D01*
X141520728Y-139020291D01*
X141419389Y-138868626D01*
X141349585Y-138700104D01*
X141314000Y-138521203D01*
X141314000Y-138338797D01*
X141349585Y-138159896D01*
X141419389Y-137991374D01*
X141520728Y-137839709D01*
X141649709Y-137710728D01*
X141801374Y-137609389D01*
X141969896Y-137539585D01*
X142148797Y-137504000D01*
X142331203Y-137504000D01*
X142510104Y-137539585D01*
G37*
G36*
X123460104Y-137539585D02*
G01*
X123628626Y-137609389D01*
X123780291Y-137710728D01*
X123909272Y-137839709D01*
X124010611Y-137991374D01*
X124080415Y-138159896D01*
X124116000Y-138338797D01*
X124116000Y-138521203D01*
X124080415Y-138700104D01*
X124010611Y-138868626D01*
X123909272Y-139020291D01*
X123780291Y-139149272D01*
X123628626Y-139250611D01*
X123460104Y-139320415D01*
X123281203Y-139356000D01*
X123098797Y-139356000D01*
X122919896Y-139320415D01*
X122751374Y-139250611D01*
X122599709Y-139149272D01*
X122470728Y-139020291D01*
X122369389Y-138868626D01*
X122299585Y-138700104D01*
X122264000Y-138521203D01*
X122264000Y-138338797D01*
X122299585Y-138159896D01*
X122369389Y-137991374D01*
X122470728Y-137839709D01*
X122599709Y-137710728D01*
X122751374Y-137609389D01*
X122919896Y-137539585D01*
X123098797Y-137504000D01*
X123281203Y-137504000D01*
X123460104Y-137539585D01*
G37*
G36*
X104410104Y-137539585D02*
G01*
X104578626Y-137609389D01*
X104730291Y-137710728D01*
X104859272Y-137839709D01*
X104960611Y-137991374D01*
X105030415Y-138159896D01*
X105066000Y-138338797D01*
X105066000Y-138521203D01*
X105030415Y-138700104D01*
X104960611Y-138868626D01*
X104859272Y-139020291D01*
X104730291Y-139149272D01*
X104578626Y-139250611D01*
X104410104Y-139320415D01*
X104231203Y-139356000D01*
X104048797Y-139356000D01*
X103869896Y-139320415D01*
X103701374Y-139250611D01*
X103549709Y-139149272D01*
X103420728Y-139020291D01*
X103319389Y-138868626D01*
X103249585Y-138700104D01*
X103214000Y-138521203D01*
X103214000Y-138338797D01*
X103249585Y-138159896D01*
X103319389Y-137991374D01*
X103420728Y-137839709D01*
X103549709Y-137710728D01*
X103701374Y-137609389D01*
X103869896Y-137539585D01*
X104048797Y-137504000D01*
X104231203Y-137504000D01*
X104410104Y-137539585D01*
G37*
G36*
X94250104Y-137539585D02*
G01*
X94418626Y-137609389D01*
X94570291Y-137710728D01*
X94699272Y-137839709D01*
X94800611Y-137991374D01*
X94870415Y-138159896D01*
X94906000Y-138338797D01*
X94906000Y-138521203D01*
X94870415Y-138700104D01*
X94800611Y-138868626D01*
X94699272Y-139020291D01*
X94570291Y-139149272D01*
X94418626Y-139250611D01*
X94250104Y-139320415D01*
X94071203Y-139356000D01*
X93888797Y-139356000D01*
X93709896Y-139320415D01*
X93541374Y-139250611D01*
X93389709Y-139149272D01*
X93260728Y-139020291D01*
X93159389Y-138868626D01*
X93089585Y-138700104D01*
X93054000Y-138521203D01*
X93054000Y-138338797D01*
X93089585Y-138159896D01*
X93159389Y-137991374D01*
X93260728Y-137839709D01*
X93389709Y-137710728D01*
X93541374Y-137609389D01*
X93709896Y-137539585D01*
X93888797Y-137504000D01*
X94071203Y-137504000D01*
X94250104Y-137539585D01*
G37*
G36*
X113300104Y-137539585D02*
G01*
X113468626Y-137609389D01*
X113620291Y-137710728D01*
X113749272Y-137839709D01*
X113850611Y-137991374D01*
X113920415Y-138159896D01*
X113956000Y-138338797D01*
X113956000Y-138521203D01*
X113920415Y-138700104D01*
X113850611Y-138868626D01*
X113749272Y-139020291D01*
X113620291Y-139149272D01*
X113468626Y-139250611D01*
X113300104Y-139320415D01*
X113121203Y-139356000D01*
X112938797Y-139356000D01*
X112759896Y-139320415D01*
X112591374Y-139250611D01*
X112439709Y-139149272D01*
X112310728Y-139020291D01*
X112209389Y-138868626D01*
X112139585Y-138700104D01*
X112104000Y-138521203D01*
X112104000Y-138338797D01*
X112139585Y-138159896D01*
X112209389Y-137991374D01*
X112310728Y-137839709D01*
X112439709Y-137710728D01*
X112591374Y-137609389D01*
X112759896Y-137539585D01*
X112938797Y-137504000D01*
X113121203Y-137504000D01*
X113300104Y-137539585D01*
G37*
G36*
X75200104Y-137539585D02*
G01*
X75368626Y-137609389D01*
X75520291Y-137710728D01*
X75649272Y-137839709D01*
X75750611Y-137991374D01*
X75820415Y-138159896D01*
X75856000Y-138338797D01*
X75856000Y-138521203D01*
X75820415Y-138700104D01*
X75750611Y-138868626D01*
X75649272Y-139020291D01*
X75520291Y-139149272D01*
X75368626Y-139250611D01*
X75200104Y-139320415D01*
X75021203Y-139356000D01*
X74838797Y-139356000D01*
X74659896Y-139320415D01*
X74491374Y-139250611D01*
X74339709Y-139149272D01*
X74210728Y-139020291D01*
X74109389Y-138868626D01*
X74039585Y-138700104D01*
X74004000Y-138521203D01*
X74004000Y-138338797D01*
X74039585Y-138159896D01*
X74109389Y-137991374D01*
X74210728Y-137839709D01*
X74339709Y-137710728D01*
X74491374Y-137609389D01*
X74659896Y-137539585D01*
X74838797Y-137504000D01*
X75021203Y-137504000D01*
X75200104Y-137539585D01*
G37*
G36*
X85360104Y-137539585D02*
G01*
X85528626Y-137609389D01*
X85680291Y-137710728D01*
X85809272Y-137839709D01*
X85910611Y-137991374D01*
X85980415Y-138159896D01*
X86016000Y-138338797D01*
X86016000Y-138521203D01*
X85980415Y-138700104D01*
X85910611Y-138868626D01*
X85809272Y-139020291D01*
X85680291Y-139149272D01*
X85528626Y-139250611D01*
X85360104Y-139320415D01*
X85181203Y-139356000D01*
X84998797Y-139356000D01*
X84819896Y-139320415D01*
X84651374Y-139250611D01*
X84499709Y-139149272D01*
X84370728Y-139020291D01*
X84269389Y-138868626D01*
X84199585Y-138700104D01*
X84164000Y-138521203D01*
X84164000Y-138338797D01*
X84199585Y-138159896D01*
X84269389Y-137991374D01*
X84370728Y-137839709D01*
X84499709Y-137710728D01*
X84651374Y-137609389D01*
X84819896Y-137539585D01*
X84998797Y-137504000D01*
X85181203Y-137504000D01*
X85360104Y-137539585D01*
G37*
G36*
X114491560Y-134729064D02*
G01*
X114643027Y-134759193D01*
X114857045Y-134847842D01*
X114857046Y-134847843D01*
X115049654Y-134976539D01*
X115213461Y-135140346D01*
X115299258Y-135268751D01*
X115342158Y-135332955D01*
X115430807Y-135546973D01*
X115476000Y-135774174D01*
X115476000Y-136005826D01*
X115430807Y-136233027D01*
X115342158Y-136447045D01*
X115342157Y-136447046D01*
X115213461Y-136639654D01*
X115049654Y-136803461D01*
X114992540Y-136841623D01*
X114857045Y-136932158D01*
X114643027Y-137020807D01*
X114491560Y-137050936D01*
X114415827Y-137066000D01*
X114184173Y-137066000D01*
X114108440Y-137050936D01*
X113956973Y-137020807D01*
X113742955Y-136932158D01*
X113607460Y-136841623D01*
X113550346Y-136803461D01*
X113386539Y-136639654D01*
X113257843Y-136447046D01*
X113257842Y-136447045D01*
X113169193Y-136233027D01*
X113124000Y-136005826D01*
X113124000Y-135774174D01*
X113169193Y-135546973D01*
X113257842Y-135332955D01*
X113300742Y-135268751D01*
X113386539Y-135140346D01*
X113550346Y-134976539D01*
X113742954Y-134847843D01*
X113742955Y-134847842D01*
X113956973Y-134759193D01*
X114108440Y-134729064D01*
X114184173Y-134714000D01*
X114415827Y-134714000D01*
X114491560Y-134729064D01*
G37*
G36*
X95441560Y-134729064D02*
G01*
X95593027Y-134759193D01*
X95807045Y-134847842D01*
X95807046Y-134847843D01*
X95999654Y-134976539D01*
X96163461Y-135140346D01*
X96249258Y-135268751D01*
X96292158Y-135332955D01*
X96380807Y-135546973D01*
X96426000Y-135774174D01*
X96426000Y-136005826D01*
X96380807Y-136233027D01*
X96292158Y-136447045D01*
X96292157Y-136447046D01*
X96163461Y-136639654D01*
X95999654Y-136803461D01*
X95942540Y-136841623D01*
X95807045Y-136932158D01*
X95593027Y-137020807D01*
X95441560Y-137050936D01*
X95365827Y-137066000D01*
X95134173Y-137066000D01*
X95058440Y-137050936D01*
X94906973Y-137020807D01*
X94692955Y-136932158D01*
X94557460Y-136841623D01*
X94500346Y-136803461D01*
X94336539Y-136639654D01*
X94207843Y-136447046D01*
X94207842Y-136447045D01*
X94119193Y-136233027D01*
X94074000Y-136005826D01*
X94074000Y-135774174D01*
X94119193Y-135546973D01*
X94207842Y-135332955D01*
X94250742Y-135268751D01*
X94336539Y-135140346D01*
X94500346Y-134976539D01*
X94692954Y-134847843D01*
X94692955Y-134847842D01*
X94906973Y-134759193D01*
X95058440Y-134729064D01*
X95134173Y-134714000D01*
X95365827Y-134714000D01*
X95441560Y-134729064D01*
G37*
G36*
X76391560Y-134729064D02*
G01*
X76543027Y-134759193D01*
X76757045Y-134847842D01*
X76757046Y-134847843D01*
X76949654Y-134976539D01*
X77113461Y-135140346D01*
X77199258Y-135268751D01*
X77242158Y-135332955D01*
X77330807Y-135546973D01*
X77376000Y-135774174D01*
X77376000Y-136005826D01*
X77330807Y-136233027D01*
X77242158Y-136447045D01*
X77242157Y-136447046D01*
X77113461Y-136639654D01*
X76949654Y-136803461D01*
X76892540Y-136841623D01*
X76757045Y-136932158D01*
X76543027Y-137020807D01*
X76391560Y-137050936D01*
X76315827Y-137066000D01*
X76084173Y-137066000D01*
X76008440Y-137050936D01*
X75856973Y-137020807D01*
X75642955Y-136932158D01*
X75507460Y-136841623D01*
X75450346Y-136803461D01*
X75286539Y-136639654D01*
X75157843Y-136447046D01*
X75157842Y-136447045D01*
X75069193Y-136233027D01*
X75024000Y-136005826D01*
X75024000Y-135774174D01*
X75069193Y-135546973D01*
X75157842Y-135332955D01*
X75200742Y-135268751D01*
X75286539Y-135140346D01*
X75450346Y-134976539D01*
X75642954Y-134847843D01*
X75642955Y-134847842D01*
X75856973Y-134759193D01*
X76008440Y-134729064D01*
X76084173Y-134714000D01*
X76315827Y-134714000D01*
X76391560Y-134729064D01*
G37*
G36*
X133541560Y-134729064D02*
G01*
X133693027Y-134759193D01*
X133907045Y-134847842D01*
X133907046Y-134847843D01*
X134099654Y-134976539D01*
X134263461Y-135140346D01*
X134349258Y-135268751D01*
X134392158Y-135332955D01*
X134480807Y-135546973D01*
X134526000Y-135774174D01*
X134526000Y-136005826D01*
X134480807Y-136233027D01*
X134392158Y-136447045D01*
X134392157Y-136447046D01*
X134263461Y-136639654D01*
X134099654Y-136803461D01*
X134042540Y-136841623D01*
X133907045Y-136932158D01*
X133693027Y-137020807D01*
X133541560Y-137050936D01*
X133465827Y-137066000D01*
X133234173Y-137066000D01*
X133158440Y-137050936D01*
X133006973Y-137020807D01*
X132792955Y-136932158D01*
X132657460Y-136841623D01*
X132600346Y-136803461D01*
X132436539Y-136639654D01*
X132307843Y-136447046D01*
X132307842Y-136447045D01*
X132219193Y-136233027D01*
X132174000Y-136005826D01*
X132174000Y-135774174D01*
X132219193Y-135546973D01*
X132307842Y-135332955D01*
X132350742Y-135268751D01*
X132436539Y-135140346D01*
X132600346Y-134976539D01*
X132792954Y-134847843D01*
X132792955Y-134847842D01*
X133006973Y-134759193D01*
X133158440Y-134729064D01*
X133234173Y-134714000D01*
X133465827Y-134714000D01*
X133541560Y-134729064D01*
G37*
G36*
X101791560Y-132189064D02*
G01*
X101943027Y-132219193D01*
X102157045Y-132307842D01*
X102157046Y-132307843D01*
X102349654Y-132436539D01*
X102513461Y-132600346D01*
X102572687Y-132688985D01*
X102642158Y-132792955D01*
X102730807Y-133006973D01*
X102776000Y-133234174D01*
X102776000Y-133465826D01*
X102730807Y-133693027D01*
X102642158Y-133907045D01*
X102642157Y-133907046D01*
X102513461Y-134099654D01*
X102349654Y-134263461D01*
X102221249Y-134349258D01*
X102157045Y-134392158D01*
X101943027Y-134480807D01*
X101791560Y-134510936D01*
X101715827Y-134526000D01*
X101484173Y-134526000D01*
X101408440Y-134510936D01*
X101256973Y-134480807D01*
X101042955Y-134392158D01*
X100978751Y-134349258D01*
X100850346Y-134263461D01*
X100686539Y-134099654D01*
X100557843Y-133907046D01*
X100557842Y-133907045D01*
X100469193Y-133693027D01*
X100424000Y-133465826D01*
X100424000Y-133234174D01*
X100469193Y-133006973D01*
X100557842Y-132792955D01*
X100627313Y-132688985D01*
X100686539Y-132600346D01*
X100850346Y-132436539D01*
X101042954Y-132307843D01*
X101042955Y-132307842D01*
X101256973Y-132219193D01*
X101408440Y-132189064D01*
X101484173Y-132174000D01*
X101715827Y-132174000D01*
X101791560Y-132189064D01*
G37*
G36*
X120841560Y-132189064D02*
G01*
X120993027Y-132219193D01*
X121207045Y-132307842D01*
X121207046Y-132307843D01*
X121399654Y-132436539D01*
X121563461Y-132600346D01*
X121622687Y-132688985D01*
X121692158Y-132792955D01*
X121780807Y-133006973D01*
X121826000Y-133234174D01*
X121826000Y-133465826D01*
X121780807Y-133693027D01*
X121692158Y-133907045D01*
X121692157Y-133907046D01*
X121563461Y-134099654D01*
X121399654Y-134263461D01*
X121271249Y-134349258D01*
X121207045Y-134392158D01*
X120993027Y-134480807D01*
X120841560Y-134510936D01*
X120765827Y-134526000D01*
X120534173Y-134526000D01*
X120458440Y-134510936D01*
X120306973Y-134480807D01*
X120092955Y-134392158D01*
X120028751Y-134349258D01*
X119900346Y-134263461D01*
X119736539Y-134099654D01*
X119607843Y-133907046D01*
X119607842Y-133907045D01*
X119519193Y-133693027D01*
X119474000Y-133465826D01*
X119474000Y-133234174D01*
X119519193Y-133006973D01*
X119607842Y-132792955D01*
X119677313Y-132688985D01*
X119736539Y-132600346D01*
X119900346Y-132436539D01*
X120092954Y-132307843D01*
X120092955Y-132307842D01*
X120306973Y-132219193D01*
X120458440Y-132189064D01*
X120534173Y-132174000D01*
X120765827Y-132174000D01*
X120841560Y-132189064D01*
G37*
G36*
X139891560Y-132189064D02*
G01*
X140043027Y-132219193D01*
X140257045Y-132307842D01*
X140257046Y-132307843D01*
X140449654Y-132436539D01*
X140613461Y-132600346D01*
X140672687Y-132688985D01*
X140742158Y-132792955D01*
X140830807Y-133006973D01*
X140876000Y-133234174D01*
X140876000Y-133465826D01*
X140830807Y-133693027D01*
X140742158Y-133907045D01*
X140742157Y-133907046D01*
X140613461Y-134099654D01*
X140449654Y-134263461D01*
X140321249Y-134349258D01*
X140257045Y-134392158D01*
X140043027Y-134480807D01*
X139891560Y-134510936D01*
X139815827Y-134526000D01*
X139584173Y-134526000D01*
X139508440Y-134510936D01*
X139356973Y-134480807D01*
X139142955Y-134392158D01*
X139078751Y-134349258D01*
X138950346Y-134263461D01*
X138786539Y-134099654D01*
X138657843Y-133907046D01*
X138657842Y-133907045D01*
X138569193Y-133693027D01*
X138524000Y-133465826D01*
X138524000Y-133234174D01*
X138569193Y-133006973D01*
X138657842Y-132792955D01*
X138727313Y-132688985D01*
X138786539Y-132600346D01*
X138950346Y-132436539D01*
X139142954Y-132307843D01*
X139142955Y-132307842D01*
X139356973Y-132219193D01*
X139508440Y-132189064D01*
X139584173Y-132174000D01*
X139815827Y-132174000D01*
X139891560Y-132189064D01*
G37*
G36*
X82741560Y-132189064D02*
G01*
X82893027Y-132219193D01*
X83107045Y-132307842D01*
X83107046Y-132307843D01*
X83299654Y-132436539D01*
X83463461Y-132600346D01*
X83522687Y-132688985D01*
X83592158Y-132792955D01*
X83680807Y-133006973D01*
X83726000Y-133234174D01*
X83726000Y-133465826D01*
X83680807Y-133693027D01*
X83592158Y-133907045D01*
X83592157Y-133907046D01*
X83463461Y-134099654D01*
X83299654Y-134263461D01*
X83171249Y-134349258D01*
X83107045Y-134392158D01*
X82893027Y-134480807D01*
X82741560Y-134510936D01*
X82665827Y-134526000D01*
X82434173Y-134526000D01*
X82358440Y-134510936D01*
X82206973Y-134480807D01*
X81992955Y-134392158D01*
X81928751Y-134349258D01*
X81800346Y-134263461D01*
X81636539Y-134099654D01*
X81507843Y-133907046D01*
X81507842Y-133907045D01*
X81419193Y-133693027D01*
X81374000Y-133465826D01*
X81374000Y-133234174D01*
X81419193Y-133006973D01*
X81507842Y-132792955D01*
X81577313Y-132688985D01*
X81636539Y-132600346D01*
X81800346Y-132436539D01*
X81992954Y-132307843D01*
X81992955Y-132307842D01*
X82206973Y-132219193D01*
X82358440Y-132189064D01*
X82434173Y-132174000D01*
X82665827Y-132174000D01*
X82741560Y-132189064D01*
G37*
G36*
X145663228Y-132531703D02*
G01*
X145818100Y-132595853D01*
X145957481Y-132688985D01*
X146076015Y-132807519D01*
X146169147Y-132946900D01*
X146233297Y-133101772D01*
X146266000Y-133266184D01*
X146266000Y-133433816D01*
X146233297Y-133598228D01*
X146169147Y-133753100D01*
X146076015Y-133892481D01*
X145957481Y-134011015D01*
X145818100Y-134104147D01*
X145663228Y-134168297D01*
X145498816Y-134201000D01*
X145331184Y-134201000D01*
X145166772Y-134168297D01*
X145011900Y-134104147D01*
X144872519Y-134011015D01*
X144753985Y-133892481D01*
X144660853Y-133753100D01*
X144596703Y-133598228D01*
X144564000Y-133433816D01*
X144564000Y-133266184D01*
X144596703Y-133101772D01*
X144660853Y-132946900D01*
X144753985Y-132807519D01*
X144872519Y-132688985D01*
X145011900Y-132595853D01*
X145166772Y-132531703D01*
X145331184Y-132499000D01*
X145498816Y-132499000D01*
X145663228Y-132531703D01*
G37*
G36*
X88513228Y-132531703D02*
G01*
X88668100Y-132595853D01*
X88807481Y-132688985D01*
X88926015Y-132807519D01*
X89019147Y-132946900D01*
X89083297Y-133101772D01*
X89116000Y-133266184D01*
X89116000Y-133433816D01*
X89083297Y-133598228D01*
X89019147Y-133753100D01*
X88926015Y-133892481D01*
X88807481Y-134011015D01*
X88668100Y-134104147D01*
X88513228Y-134168297D01*
X88348816Y-134201000D01*
X88181184Y-134201000D01*
X88016772Y-134168297D01*
X87861900Y-134104147D01*
X87722519Y-134011015D01*
X87603985Y-133892481D01*
X87510853Y-133753100D01*
X87446703Y-133598228D01*
X87414000Y-133433816D01*
X87414000Y-133266184D01*
X87446703Y-133101772D01*
X87510853Y-132946900D01*
X87603985Y-132807519D01*
X87722519Y-132688985D01*
X87861900Y-132595853D01*
X88016772Y-132531703D01*
X88181184Y-132499000D01*
X88348816Y-132499000D01*
X88513228Y-132531703D01*
G37*
G36*
X126613228Y-132531703D02*
G01*
X126768100Y-132595853D01*
X126907481Y-132688985D01*
X127026015Y-132807519D01*
X127119147Y-132946900D01*
X127183297Y-133101772D01*
X127216000Y-133266184D01*
X127216000Y-133433816D01*
X127183297Y-133598228D01*
X127119147Y-133753100D01*
X127026015Y-133892481D01*
X126907481Y-134011015D01*
X126768100Y-134104147D01*
X126613228Y-134168297D01*
X126448816Y-134201000D01*
X126281184Y-134201000D01*
X126116772Y-134168297D01*
X125961900Y-134104147D01*
X125822519Y-134011015D01*
X125703985Y-133892481D01*
X125610853Y-133753100D01*
X125546703Y-133598228D01*
X125514000Y-133433816D01*
X125514000Y-133266184D01*
X125546703Y-133101772D01*
X125610853Y-132946900D01*
X125703985Y-132807519D01*
X125822519Y-132688985D01*
X125961900Y-132595853D01*
X126116772Y-132531703D01*
X126281184Y-132499000D01*
X126448816Y-132499000D01*
X126613228Y-132531703D01*
G37*
G36*
X107563228Y-132531703D02*
G01*
X107718100Y-132595853D01*
X107857481Y-132688985D01*
X107976015Y-132807519D01*
X108069147Y-132946900D01*
X108133297Y-133101772D01*
X108166000Y-133266184D01*
X108166000Y-133433816D01*
X108133297Y-133598228D01*
X108069147Y-133753100D01*
X107976015Y-133892481D01*
X107857481Y-134011015D01*
X107718100Y-134104147D01*
X107563228Y-134168297D01*
X107398816Y-134201000D01*
X107231184Y-134201000D01*
X107066772Y-134168297D01*
X106911900Y-134104147D01*
X106772519Y-134011015D01*
X106653985Y-133892481D01*
X106560853Y-133753100D01*
X106496703Y-133598228D01*
X106464000Y-133433816D01*
X106464000Y-133266184D01*
X106496703Y-133101772D01*
X106560853Y-132946900D01*
X106653985Y-132807519D01*
X106772519Y-132688985D01*
X106911900Y-132595853D01*
X107066772Y-132531703D01*
X107231184Y-132499000D01*
X107398816Y-132499000D01*
X107563228Y-132531703D01*
G37*
G36*
X146266000Y-122771000D02*
G01*
X144564000Y-122771000D01*
X144564000Y-121069000D01*
X146266000Y-121069000D01*
X146266000Y-122771000D01*
G37*
G36*
X89116000Y-122771000D02*
G01*
X87414000Y-122771000D01*
X87414000Y-121069000D01*
X89116000Y-121069000D01*
X89116000Y-122771000D01*
G37*
G36*
X127216000Y-122771000D02*
G01*
X125514000Y-122771000D01*
X125514000Y-121069000D01*
X127216000Y-121069000D01*
X127216000Y-122771000D01*
G37*
G36*
X108166000Y-122771000D02*
G01*
X106464000Y-122771000D01*
X106464000Y-121069000D01*
X108166000Y-121069000D01*
X108166000Y-122771000D01*
G37*
G36*
X137756474Y-117413684D02*
G01*
X137974474Y-117503983D01*
X138128623Y-117567833D01*
X138463548Y-117791623D01*
X138748377Y-118076452D01*
X138972167Y-118411377D01*
X139004562Y-118489586D01*
X139126316Y-118783526D01*
X139204900Y-119178594D01*
X139204900Y-119581406D01*
X139126316Y-119976474D01*
X139075451Y-120099272D01*
X138972167Y-120348623D01*
X138748377Y-120683548D01*
X138463548Y-120968377D01*
X138128623Y-121192167D01*
X137974474Y-121256017D01*
X137756474Y-121346316D01*
X137361406Y-121424900D01*
X136958594Y-121424900D01*
X136563526Y-121346316D01*
X136345526Y-121256017D01*
X136191377Y-121192167D01*
X135856452Y-120968377D01*
X135571623Y-120683548D01*
X135347833Y-120348623D01*
X135244549Y-120099272D01*
X135193684Y-119976474D01*
X135115100Y-119581406D01*
X135115100Y-119178594D01*
X135193684Y-118783526D01*
X135315438Y-118489586D01*
X135347833Y-118411377D01*
X135571623Y-118076452D01*
X135856452Y-117791623D01*
X136191377Y-117567833D01*
X136345526Y-117503983D01*
X136563526Y-117413684D01*
X136958594Y-117335100D01*
X137361406Y-117335100D01*
X137756474Y-117413684D01*
G37*
G36*
X80606474Y-117413684D02*
G01*
X80824474Y-117503983D01*
X80978623Y-117567833D01*
X81313548Y-117791623D01*
X81598377Y-118076452D01*
X81822167Y-118411377D01*
X81854562Y-118489586D01*
X81976316Y-118783526D01*
X82054900Y-119178594D01*
X82054900Y-119581406D01*
X81976316Y-119976474D01*
X81925451Y-120099272D01*
X81822167Y-120348623D01*
X81598377Y-120683548D01*
X81313548Y-120968377D01*
X80978623Y-121192167D01*
X80824474Y-121256017D01*
X80606474Y-121346316D01*
X80211406Y-121424900D01*
X79808594Y-121424900D01*
X79413526Y-121346316D01*
X79195526Y-121256017D01*
X79041377Y-121192167D01*
X78706452Y-120968377D01*
X78421623Y-120683548D01*
X78197833Y-120348623D01*
X78094549Y-120099272D01*
X78043684Y-119976474D01*
X77965100Y-119581406D01*
X77965100Y-119178594D01*
X78043684Y-118783526D01*
X78165438Y-118489586D01*
X78197833Y-118411377D01*
X78421623Y-118076452D01*
X78706452Y-117791623D01*
X79041377Y-117567833D01*
X79195526Y-117503983D01*
X79413526Y-117413684D01*
X79808594Y-117335100D01*
X80211406Y-117335100D01*
X80606474Y-117413684D01*
G37*
G36*
X99656474Y-117413684D02*
G01*
X99874474Y-117503983D01*
X100028623Y-117567833D01*
X100363548Y-117791623D01*
X100648377Y-118076452D01*
X100872167Y-118411377D01*
X100904562Y-118489586D01*
X101026316Y-118783526D01*
X101104900Y-119178594D01*
X101104900Y-119581406D01*
X101026316Y-119976474D01*
X100975451Y-120099272D01*
X100872167Y-120348623D01*
X100648377Y-120683548D01*
X100363548Y-120968377D01*
X100028623Y-121192167D01*
X99874474Y-121256017D01*
X99656474Y-121346316D01*
X99261406Y-121424900D01*
X98858594Y-121424900D01*
X98463526Y-121346316D01*
X98245526Y-121256017D01*
X98091377Y-121192167D01*
X97756452Y-120968377D01*
X97471623Y-120683548D01*
X97247833Y-120348623D01*
X97144549Y-120099272D01*
X97093684Y-119976474D01*
X97015100Y-119581406D01*
X97015100Y-119178594D01*
X97093684Y-118783526D01*
X97215438Y-118489586D01*
X97247833Y-118411377D01*
X97471623Y-118076452D01*
X97756452Y-117791623D01*
X98091377Y-117567833D01*
X98245526Y-117503983D01*
X98463526Y-117413684D01*
X98858594Y-117335100D01*
X99261406Y-117335100D01*
X99656474Y-117413684D01*
G37*
G36*
X118706474Y-117413684D02*
G01*
X118924474Y-117503983D01*
X119078623Y-117567833D01*
X119413548Y-117791623D01*
X119698377Y-118076452D01*
X119922167Y-118411377D01*
X119954562Y-118489586D01*
X120076316Y-118783526D01*
X120154900Y-119178594D01*
X120154900Y-119581406D01*
X120076316Y-119976474D01*
X120025451Y-120099272D01*
X119922167Y-120348623D01*
X119698377Y-120683548D01*
X119413548Y-120968377D01*
X119078623Y-121192167D01*
X118924474Y-121256017D01*
X118706474Y-121346316D01*
X118311406Y-121424900D01*
X117908594Y-121424900D01*
X117513526Y-121346316D01*
X117295526Y-121256017D01*
X117141377Y-121192167D01*
X116806452Y-120968377D01*
X116521623Y-120683548D01*
X116297833Y-120348623D01*
X116194549Y-120099272D01*
X116143684Y-119976474D01*
X116065100Y-119581406D01*
X116065100Y-119178594D01*
X116143684Y-118783526D01*
X116265438Y-118489586D01*
X116297833Y-118411377D01*
X116521623Y-118076452D01*
X116806452Y-117791623D01*
X117141377Y-117567833D01*
X117295526Y-117503983D01*
X117513526Y-117413684D01*
X117908594Y-117335100D01*
X118311406Y-117335100D01*
X118706474Y-117413684D01*
G37*
G36*
X113300104Y-118489585D02*
G01*
X113468626Y-118559389D01*
X113620291Y-118660728D01*
X113749272Y-118789709D01*
X113850611Y-118941374D01*
X113920415Y-119109896D01*
X113956000Y-119288797D01*
X113956000Y-119471203D01*
X113920415Y-119650104D01*
X113850611Y-119818626D01*
X113749272Y-119970291D01*
X113620291Y-120099272D01*
X113468626Y-120200611D01*
X113300104Y-120270415D01*
X113121203Y-120306000D01*
X112938797Y-120306000D01*
X112759896Y-120270415D01*
X112591374Y-120200611D01*
X112439709Y-120099272D01*
X112310728Y-119970291D01*
X112209389Y-119818626D01*
X112139585Y-119650104D01*
X112104000Y-119471203D01*
X112104000Y-119288797D01*
X112139585Y-119109896D01*
X112209389Y-118941374D01*
X112310728Y-118789709D01*
X112439709Y-118660728D01*
X112591374Y-118559389D01*
X112759896Y-118489585D01*
X112938797Y-118454000D01*
X113121203Y-118454000D01*
X113300104Y-118489585D01*
G37*
G36*
X142510104Y-118489585D02*
G01*
X142678626Y-118559389D01*
X142830291Y-118660728D01*
X142959272Y-118789709D01*
X143060611Y-118941374D01*
X143130415Y-119109896D01*
X143166000Y-119288797D01*
X143166000Y-119471203D01*
X143130415Y-119650104D01*
X143060611Y-119818626D01*
X142959272Y-119970291D01*
X142830291Y-120099272D01*
X142678626Y-120200611D01*
X142510104Y-120270415D01*
X142331203Y-120306000D01*
X142148797Y-120306000D01*
X141969896Y-120270415D01*
X141801374Y-120200611D01*
X141649709Y-120099272D01*
X141520728Y-119970291D01*
X141419389Y-119818626D01*
X141349585Y-119650104D01*
X141314000Y-119471203D01*
X141314000Y-119288797D01*
X141349585Y-119109896D01*
X141419389Y-118941374D01*
X141520728Y-118789709D01*
X141649709Y-118660728D01*
X141801374Y-118559389D01*
X141969896Y-118489585D01*
X142148797Y-118454000D01*
X142331203Y-118454000D01*
X142510104Y-118489585D01*
G37*
G36*
X85360104Y-118489585D02*
G01*
X85528626Y-118559389D01*
X85680291Y-118660728D01*
X85809272Y-118789709D01*
X85910611Y-118941374D01*
X85980415Y-119109896D01*
X86016000Y-119288797D01*
X86016000Y-119471203D01*
X85980415Y-119650104D01*
X85910611Y-119818626D01*
X85809272Y-119970291D01*
X85680291Y-120099272D01*
X85528626Y-120200611D01*
X85360104Y-120270415D01*
X85181203Y-120306000D01*
X84998797Y-120306000D01*
X84819896Y-120270415D01*
X84651374Y-120200611D01*
X84499709Y-120099272D01*
X84370728Y-119970291D01*
X84269389Y-119818626D01*
X84199585Y-119650104D01*
X84164000Y-119471203D01*
X84164000Y-119288797D01*
X84199585Y-119109896D01*
X84269389Y-118941374D01*
X84370728Y-118789709D01*
X84499709Y-118660728D01*
X84651374Y-118559389D01*
X84819896Y-118489585D01*
X84998797Y-118454000D01*
X85181203Y-118454000D01*
X85360104Y-118489585D01*
G37*
G36*
X75200104Y-118489585D02*
G01*
X75368626Y-118559389D01*
X75520291Y-118660728D01*
X75649272Y-118789709D01*
X75750611Y-118941374D01*
X75820415Y-119109896D01*
X75856000Y-119288797D01*
X75856000Y-119471203D01*
X75820415Y-119650104D01*
X75750611Y-119818626D01*
X75649272Y-119970291D01*
X75520291Y-120099272D01*
X75368626Y-120200611D01*
X75200104Y-120270415D01*
X75021203Y-120306000D01*
X74838797Y-120306000D01*
X74659896Y-120270415D01*
X74491374Y-120200611D01*
X74339709Y-120099272D01*
X74210728Y-119970291D01*
X74109389Y-119818626D01*
X74039585Y-119650104D01*
X74004000Y-119471203D01*
X74004000Y-119288797D01*
X74039585Y-119109896D01*
X74109389Y-118941374D01*
X74210728Y-118789709D01*
X74339709Y-118660728D01*
X74491374Y-118559389D01*
X74659896Y-118489585D01*
X74838797Y-118454000D01*
X75021203Y-118454000D01*
X75200104Y-118489585D01*
G37*
G36*
X94250104Y-118489585D02*
G01*
X94418626Y-118559389D01*
X94570291Y-118660728D01*
X94699272Y-118789709D01*
X94800611Y-118941374D01*
X94870415Y-119109896D01*
X94906000Y-119288797D01*
X94906000Y-119471203D01*
X94870415Y-119650104D01*
X94800611Y-119818626D01*
X94699272Y-119970291D01*
X94570291Y-120099272D01*
X94418626Y-120200611D01*
X94250104Y-120270415D01*
X94071203Y-120306000D01*
X93888797Y-120306000D01*
X93709896Y-120270415D01*
X93541374Y-120200611D01*
X93389709Y-120099272D01*
X93260728Y-119970291D01*
X93159389Y-119818626D01*
X93089585Y-119650104D01*
X93054000Y-119471203D01*
X93054000Y-119288797D01*
X93089585Y-119109896D01*
X93159389Y-118941374D01*
X93260728Y-118789709D01*
X93389709Y-118660728D01*
X93541374Y-118559389D01*
X93709896Y-118489585D01*
X93888797Y-118454000D01*
X94071203Y-118454000D01*
X94250104Y-118489585D01*
G37*
G36*
X104410104Y-118489585D02*
G01*
X104578626Y-118559389D01*
X104730291Y-118660728D01*
X104859272Y-118789709D01*
X104960611Y-118941374D01*
X105030415Y-119109896D01*
X105066000Y-119288797D01*
X105066000Y-119471203D01*
X105030415Y-119650104D01*
X104960611Y-119818626D01*
X104859272Y-119970291D01*
X104730291Y-120099272D01*
X104578626Y-120200611D01*
X104410104Y-120270415D01*
X104231203Y-120306000D01*
X104048797Y-120306000D01*
X103869896Y-120270415D01*
X103701374Y-120200611D01*
X103549709Y-120099272D01*
X103420728Y-119970291D01*
X103319389Y-119818626D01*
X103249585Y-119650104D01*
X103214000Y-119471203D01*
X103214000Y-119288797D01*
X103249585Y-119109896D01*
X103319389Y-118941374D01*
X103420728Y-118789709D01*
X103549709Y-118660728D01*
X103701374Y-118559389D01*
X103869896Y-118489585D01*
X104048797Y-118454000D01*
X104231203Y-118454000D01*
X104410104Y-118489585D01*
G37*
G36*
X132350104Y-118489585D02*
G01*
X132518626Y-118559389D01*
X132670291Y-118660728D01*
X132799272Y-118789709D01*
X132900611Y-118941374D01*
X132970415Y-119109896D01*
X133006000Y-119288797D01*
X133006000Y-119471203D01*
X132970415Y-119650104D01*
X132900611Y-119818626D01*
X132799272Y-119970291D01*
X132670291Y-120099272D01*
X132518626Y-120200611D01*
X132350104Y-120270415D01*
X132171203Y-120306000D01*
X131988797Y-120306000D01*
X131809896Y-120270415D01*
X131641374Y-120200611D01*
X131489709Y-120099272D01*
X131360728Y-119970291D01*
X131259389Y-119818626D01*
X131189585Y-119650104D01*
X131154000Y-119471203D01*
X131154000Y-119288797D01*
X131189585Y-119109896D01*
X131259389Y-118941374D01*
X131360728Y-118789709D01*
X131489709Y-118660728D01*
X131641374Y-118559389D01*
X131809896Y-118489585D01*
X131988797Y-118454000D01*
X132171203Y-118454000D01*
X132350104Y-118489585D01*
G37*
G36*
X123460104Y-118489585D02*
G01*
X123628626Y-118559389D01*
X123780291Y-118660728D01*
X123909272Y-118789709D01*
X124010611Y-118941374D01*
X124080415Y-119109896D01*
X124116000Y-119288797D01*
X124116000Y-119471203D01*
X124080415Y-119650104D01*
X124010611Y-119818626D01*
X123909272Y-119970291D01*
X123780291Y-120099272D01*
X123628626Y-120200611D01*
X123460104Y-120270415D01*
X123281203Y-120306000D01*
X123098797Y-120306000D01*
X122919896Y-120270415D01*
X122751374Y-120200611D01*
X122599709Y-120099272D01*
X122470728Y-119970291D01*
X122369389Y-119818626D01*
X122299585Y-119650104D01*
X122264000Y-119471203D01*
X122264000Y-119288797D01*
X122299585Y-119109896D01*
X122369389Y-118941374D01*
X122470728Y-118789709D01*
X122599709Y-118660728D01*
X122751374Y-118559389D01*
X122919896Y-118489585D01*
X123098797Y-118454000D01*
X123281203Y-118454000D01*
X123460104Y-118489585D01*
G37*
G36*
X165406564Y-117789389D02*
G01*
X165597833Y-117868615D01*
X165597835Y-117868616D01*
X165769973Y-117983635D01*
X165916365Y-118130027D01*
X166031385Y-118302167D01*
X166110611Y-118493436D01*
X166151000Y-118696484D01*
X166151000Y-118903516D01*
X166110611Y-119106564D01*
X166035128Y-119288797D01*
X166031384Y-119297835D01*
X165916365Y-119469973D01*
X165769973Y-119616365D01*
X165597835Y-119731384D01*
X165597834Y-119731385D01*
X165597833Y-119731385D01*
X165406564Y-119810611D01*
X165203516Y-119851000D01*
X164996484Y-119851000D01*
X164793436Y-119810611D01*
X164602167Y-119731385D01*
X164602166Y-119731385D01*
X164602165Y-119731384D01*
X164430027Y-119616365D01*
X164283635Y-119469973D01*
X164168616Y-119297835D01*
X164164872Y-119288797D01*
X164089389Y-119106564D01*
X164049000Y-118903516D01*
X164049000Y-118696484D01*
X164089389Y-118493436D01*
X164168615Y-118302167D01*
X164283635Y-118130027D01*
X164430027Y-117983635D01*
X164602165Y-117868616D01*
X164602167Y-117868615D01*
X164793436Y-117789389D01*
X164996484Y-117749000D01*
X165203516Y-117749000D01*
X165406564Y-117789389D01*
G37*
G36*
X158906564Y-117789389D02*
G01*
X159097833Y-117868615D01*
X159097835Y-117868616D01*
X159269973Y-117983635D01*
X159416365Y-118130027D01*
X159531385Y-118302167D01*
X159610611Y-118493436D01*
X159651000Y-118696484D01*
X159651000Y-118903516D01*
X159610611Y-119106564D01*
X159535128Y-119288797D01*
X159531384Y-119297835D01*
X159416365Y-119469973D01*
X159269973Y-119616365D01*
X159097835Y-119731384D01*
X159097834Y-119731385D01*
X159097833Y-119731385D01*
X158906564Y-119810611D01*
X158703516Y-119851000D01*
X158496484Y-119851000D01*
X158293436Y-119810611D01*
X158102167Y-119731385D01*
X158102166Y-119731385D01*
X158102165Y-119731384D01*
X157930027Y-119616365D01*
X157783635Y-119469973D01*
X157668616Y-119297835D01*
X157664872Y-119288797D01*
X157589389Y-119106564D01*
X157549000Y-118903516D01*
X157549000Y-118696484D01*
X157589389Y-118493436D01*
X157668615Y-118302167D01*
X157783635Y-118130027D01*
X157930027Y-117983635D01*
X158102165Y-117868616D01*
X158102167Y-117868615D01*
X158293436Y-117789389D01*
X158496484Y-117749000D01*
X158703516Y-117749000D01*
X158906564Y-117789389D01*
G37*
G36*
X76391560Y-115679064D02*
G01*
X76543027Y-115709193D01*
X76757045Y-115797842D01*
X76757046Y-115797843D01*
X76949654Y-115926539D01*
X77113461Y-116090346D01*
X77199258Y-116218751D01*
X77242158Y-116282955D01*
X77330807Y-116496973D01*
X77376000Y-116724174D01*
X77376000Y-116955826D01*
X77330807Y-117183027D01*
X77242158Y-117397045D01*
X77242157Y-117397046D01*
X77113461Y-117589654D01*
X76949654Y-117753461D01*
X76895882Y-117789390D01*
X76757045Y-117882158D01*
X76543027Y-117970807D01*
X76391560Y-118000936D01*
X76315827Y-118016000D01*
X76084173Y-118016000D01*
X76008440Y-118000936D01*
X75856973Y-117970807D01*
X75642955Y-117882158D01*
X75504118Y-117789390D01*
X75450346Y-117753461D01*
X75286539Y-117589654D01*
X75157843Y-117397046D01*
X75157842Y-117397045D01*
X75069193Y-117183027D01*
X75024000Y-116955826D01*
X75024000Y-116724174D01*
X75069193Y-116496973D01*
X75157842Y-116282955D01*
X75200742Y-116218751D01*
X75286539Y-116090346D01*
X75450346Y-115926539D01*
X75642954Y-115797843D01*
X75642955Y-115797842D01*
X75856973Y-115709193D01*
X76008440Y-115679064D01*
X76084173Y-115664000D01*
X76315827Y-115664000D01*
X76391560Y-115679064D01*
G37*
G36*
X133541560Y-115679064D02*
G01*
X133693027Y-115709193D01*
X133907045Y-115797842D01*
X133907046Y-115797843D01*
X134099654Y-115926539D01*
X134263461Y-116090346D01*
X134349258Y-116218751D01*
X134392158Y-116282955D01*
X134480807Y-116496973D01*
X134526000Y-116724174D01*
X134526000Y-116955826D01*
X134480807Y-117183027D01*
X134392158Y-117397045D01*
X134392157Y-117397046D01*
X134263461Y-117589654D01*
X134099654Y-117753461D01*
X134045882Y-117789390D01*
X133907045Y-117882158D01*
X133693027Y-117970807D01*
X133541560Y-118000936D01*
X133465827Y-118016000D01*
X133234173Y-118016000D01*
X133158440Y-118000936D01*
X133006973Y-117970807D01*
X132792955Y-117882158D01*
X132654118Y-117789390D01*
X132600346Y-117753461D01*
X132436539Y-117589654D01*
X132307843Y-117397046D01*
X132307842Y-117397045D01*
X132219193Y-117183027D01*
X132174000Y-116955826D01*
X132174000Y-116724174D01*
X132219193Y-116496973D01*
X132307842Y-116282955D01*
X132350742Y-116218751D01*
X132436539Y-116090346D01*
X132600346Y-115926539D01*
X132792954Y-115797843D01*
X132792955Y-115797842D01*
X133006973Y-115709193D01*
X133158440Y-115679064D01*
X133234173Y-115664000D01*
X133465827Y-115664000D01*
X133541560Y-115679064D01*
G37*
G36*
X95441560Y-115679064D02*
G01*
X95593027Y-115709193D01*
X95807045Y-115797842D01*
X95807046Y-115797843D01*
X95999654Y-115926539D01*
X96163461Y-116090346D01*
X96249258Y-116218751D01*
X96292158Y-116282955D01*
X96380807Y-116496973D01*
X96426000Y-116724174D01*
X96426000Y-116955826D01*
X96380807Y-117183027D01*
X96292158Y-117397045D01*
X96292157Y-117397046D01*
X96163461Y-117589654D01*
X95999654Y-117753461D01*
X95945882Y-117789390D01*
X95807045Y-117882158D01*
X95593027Y-117970807D01*
X95441560Y-118000936D01*
X95365827Y-118016000D01*
X95134173Y-118016000D01*
X95058440Y-118000936D01*
X94906973Y-117970807D01*
X94692955Y-117882158D01*
X94554118Y-117789390D01*
X94500346Y-117753461D01*
X94336539Y-117589654D01*
X94207843Y-117397046D01*
X94207842Y-117397045D01*
X94119193Y-117183027D01*
X94074000Y-116955826D01*
X94074000Y-116724174D01*
X94119193Y-116496973D01*
X94207842Y-116282955D01*
X94250742Y-116218751D01*
X94336539Y-116090346D01*
X94500346Y-115926539D01*
X94692954Y-115797843D01*
X94692955Y-115797842D01*
X94906973Y-115709193D01*
X95058440Y-115679064D01*
X95134173Y-115664000D01*
X95365827Y-115664000D01*
X95441560Y-115679064D01*
G37*
G36*
X114491560Y-115679064D02*
G01*
X114643027Y-115709193D01*
X114857045Y-115797842D01*
X114857046Y-115797843D01*
X115049654Y-115926539D01*
X115213461Y-116090346D01*
X115299258Y-116218751D01*
X115342158Y-116282955D01*
X115430807Y-116496973D01*
X115476000Y-116724174D01*
X115476000Y-116955826D01*
X115430807Y-117183027D01*
X115342158Y-117397045D01*
X115342157Y-117397046D01*
X115213461Y-117589654D01*
X115049654Y-117753461D01*
X114995882Y-117789390D01*
X114857045Y-117882158D01*
X114643027Y-117970807D01*
X114491560Y-118000936D01*
X114415827Y-118016000D01*
X114184173Y-118016000D01*
X114108440Y-118000936D01*
X113956973Y-117970807D01*
X113742955Y-117882158D01*
X113604118Y-117789390D01*
X113550346Y-117753461D01*
X113386539Y-117589654D01*
X113257843Y-117397046D01*
X113257842Y-117397045D01*
X113169193Y-117183027D01*
X113124000Y-116955826D01*
X113124000Y-116724174D01*
X113169193Y-116496973D01*
X113257842Y-116282955D01*
X113300742Y-116218751D01*
X113386539Y-116090346D01*
X113550346Y-115926539D01*
X113742954Y-115797843D01*
X113742955Y-115797842D01*
X113956973Y-115709193D01*
X114108440Y-115679064D01*
X114184173Y-115664000D01*
X114415827Y-115664000D01*
X114491560Y-115679064D01*
G37*
G36*
X139891560Y-113139064D02*
G01*
X140043027Y-113169193D01*
X140257045Y-113257842D01*
X140257046Y-113257843D01*
X140449654Y-113386539D01*
X140613461Y-113550346D01*
X140666702Y-113630027D01*
X140742158Y-113742955D01*
X140830807Y-113956973D01*
X140876000Y-114184174D01*
X140876000Y-114415826D01*
X140830807Y-114643027D01*
X140742158Y-114857045D01*
X140677590Y-114953677D01*
X140613461Y-115049654D01*
X140449654Y-115213461D01*
X140321249Y-115299258D01*
X140257045Y-115342158D01*
X140043027Y-115430807D01*
X139891560Y-115460936D01*
X139815827Y-115476000D01*
X139584173Y-115476000D01*
X139508440Y-115460936D01*
X139356973Y-115430807D01*
X139142955Y-115342158D01*
X139078751Y-115299258D01*
X138950346Y-115213461D01*
X138786539Y-115049654D01*
X138722410Y-114953677D01*
X138657842Y-114857045D01*
X138569193Y-114643027D01*
X138524000Y-114415826D01*
X138524000Y-114184174D01*
X138569193Y-113956973D01*
X138657842Y-113742955D01*
X138733298Y-113630027D01*
X138786539Y-113550346D01*
X138950346Y-113386539D01*
X139142954Y-113257843D01*
X139142955Y-113257842D01*
X139356973Y-113169193D01*
X139508440Y-113139064D01*
X139584173Y-113124000D01*
X139815827Y-113124000D01*
X139891560Y-113139064D01*
G37*
G36*
X101791560Y-113139064D02*
G01*
X101943027Y-113169193D01*
X102157045Y-113257842D01*
X102157046Y-113257843D01*
X102349654Y-113386539D01*
X102513461Y-113550346D01*
X102566702Y-113630027D01*
X102642158Y-113742955D01*
X102730807Y-113956973D01*
X102776000Y-114184174D01*
X102776000Y-114415826D01*
X102730807Y-114643027D01*
X102642158Y-114857045D01*
X102577590Y-114953677D01*
X102513461Y-115049654D01*
X102349654Y-115213461D01*
X102221249Y-115299258D01*
X102157045Y-115342158D01*
X101943027Y-115430807D01*
X101791560Y-115460936D01*
X101715827Y-115476000D01*
X101484173Y-115476000D01*
X101408440Y-115460936D01*
X101256973Y-115430807D01*
X101042955Y-115342158D01*
X100978751Y-115299258D01*
X100850346Y-115213461D01*
X100686539Y-115049654D01*
X100622410Y-114953677D01*
X100557842Y-114857045D01*
X100469193Y-114643027D01*
X100424000Y-114415826D01*
X100424000Y-114184174D01*
X100469193Y-113956973D01*
X100557842Y-113742955D01*
X100633298Y-113630027D01*
X100686539Y-113550346D01*
X100850346Y-113386539D01*
X101042954Y-113257843D01*
X101042955Y-113257842D01*
X101256973Y-113169193D01*
X101408440Y-113139064D01*
X101484173Y-113124000D01*
X101715827Y-113124000D01*
X101791560Y-113139064D01*
G37*
G36*
X82741560Y-113139064D02*
G01*
X82893027Y-113169193D01*
X83107045Y-113257842D01*
X83107046Y-113257843D01*
X83299654Y-113386539D01*
X83463461Y-113550346D01*
X83516702Y-113630027D01*
X83592158Y-113742955D01*
X83680807Y-113956973D01*
X83726000Y-114184174D01*
X83726000Y-114415826D01*
X83680807Y-114643027D01*
X83592158Y-114857045D01*
X83527590Y-114953677D01*
X83463461Y-115049654D01*
X83299654Y-115213461D01*
X83171249Y-115299258D01*
X83107045Y-115342158D01*
X82893027Y-115430807D01*
X82741560Y-115460936D01*
X82665827Y-115476000D01*
X82434173Y-115476000D01*
X82358440Y-115460936D01*
X82206973Y-115430807D01*
X81992955Y-115342158D01*
X81928751Y-115299258D01*
X81800346Y-115213461D01*
X81636539Y-115049654D01*
X81572410Y-114953677D01*
X81507842Y-114857045D01*
X81419193Y-114643027D01*
X81374000Y-114415826D01*
X81374000Y-114184174D01*
X81419193Y-113956973D01*
X81507842Y-113742955D01*
X81583298Y-113630027D01*
X81636539Y-113550346D01*
X81800346Y-113386539D01*
X81992954Y-113257843D01*
X81992955Y-113257842D01*
X82206973Y-113169193D01*
X82358440Y-113139064D01*
X82434173Y-113124000D01*
X82665827Y-113124000D01*
X82741560Y-113139064D01*
G37*
G36*
X120841560Y-113139064D02*
G01*
X120993027Y-113169193D01*
X121207045Y-113257842D01*
X121207046Y-113257843D01*
X121399654Y-113386539D01*
X121563461Y-113550346D01*
X121616702Y-113630027D01*
X121692158Y-113742955D01*
X121780807Y-113956973D01*
X121826000Y-114184174D01*
X121826000Y-114415826D01*
X121780807Y-114643027D01*
X121692158Y-114857045D01*
X121627590Y-114953677D01*
X121563461Y-115049654D01*
X121399654Y-115213461D01*
X121271249Y-115299258D01*
X121207045Y-115342158D01*
X120993027Y-115430807D01*
X120841560Y-115460936D01*
X120765827Y-115476000D01*
X120534173Y-115476000D01*
X120458440Y-115460936D01*
X120306973Y-115430807D01*
X120092955Y-115342158D01*
X120028751Y-115299258D01*
X119900346Y-115213461D01*
X119736539Y-115049654D01*
X119672410Y-114953677D01*
X119607842Y-114857045D01*
X119519193Y-114643027D01*
X119474000Y-114415826D01*
X119474000Y-114184174D01*
X119519193Y-113956973D01*
X119607842Y-113742955D01*
X119683298Y-113630027D01*
X119736539Y-113550346D01*
X119900346Y-113386539D01*
X120092954Y-113257843D01*
X120092955Y-113257842D01*
X120306973Y-113169193D01*
X120458440Y-113139064D01*
X120534173Y-113124000D01*
X120765827Y-113124000D01*
X120841560Y-113139064D01*
G37*
G36*
X165406564Y-113289389D02*
G01*
X165597833Y-113368615D01*
X165597835Y-113368616D01*
X165718138Y-113449000D01*
X165769973Y-113483635D01*
X165916365Y-113630027D01*
X166031385Y-113802167D01*
X166110611Y-113993436D01*
X166151000Y-114196484D01*
X166151000Y-114403516D01*
X166110611Y-114606564D01*
X166031385Y-114797833D01*
X166031384Y-114797835D01*
X165916365Y-114969973D01*
X165769973Y-115116365D01*
X165597835Y-115231384D01*
X165597834Y-115231385D01*
X165597833Y-115231385D01*
X165406564Y-115310611D01*
X165203516Y-115351000D01*
X164996484Y-115351000D01*
X164793436Y-115310611D01*
X164602167Y-115231385D01*
X164602166Y-115231385D01*
X164602165Y-115231384D01*
X164430027Y-115116365D01*
X164283635Y-114969973D01*
X164168616Y-114797835D01*
X164168615Y-114797833D01*
X164089389Y-114606564D01*
X164049000Y-114403516D01*
X164049000Y-114196484D01*
X164089389Y-113993436D01*
X164168615Y-113802167D01*
X164283635Y-113630027D01*
X164430027Y-113483635D01*
X164481862Y-113449000D01*
X164602165Y-113368616D01*
X164602167Y-113368615D01*
X164793436Y-113289389D01*
X164996484Y-113249000D01*
X165203516Y-113249000D01*
X165406564Y-113289389D01*
G37*
G36*
X158906564Y-113289389D02*
G01*
X159097833Y-113368615D01*
X159097835Y-113368616D01*
X159218138Y-113449000D01*
X159269973Y-113483635D01*
X159416365Y-113630027D01*
X159531385Y-113802167D01*
X159610611Y-113993436D01*
X159651000Y-114196484D01*
X159651000Y-114403516D01*
X159610611Y-114606564D01*
X159531385Y-114797833D01*
X159531384Y-114797835D01*
X159416365Y-114969973D01*
X159269973Y-115116365D01*
X159097835Y-115231384D01*
X159097834Y-115231385D01*
X159097833Y-115231385D01*
X158906564Y-115310611D01*
X158703516Y-115351000D01*
X158496484Y-115351000D01*
X158293436Y-115310611D01*
X158102167Y-115231385D01*
X158102166Y-115231385D01*
X158102165Y-115231384D01*
X157930027Y-115116365D01*
X157783635Y-114969973D01*
X157668616Y-114797835D01*
X157668615Y-114797833D01*
X157589389Y-114606564D01*
X157549000Y-114403516D01*
X157549000Y-114196484D01*
X157589389Y-113993436D01*
X157668615Y-113802167D01*
X157783635Y-113630027D01*
X157930027Y-113483635D01*
X157981862Y-113449000D01*
X158102165Y-113368616D01*
X158102167Y-113368615D01*
X158293436Y-113289389D01*
X158496484Y-113249000D01*
X158703516Y-113249000D01*
X158906564Y-113289389D01*
G37*
G36*
X88513228Y-113481703D02*
G01*
X88668100Y-113545853D01*
X88807481Y-113638985D01*
X88926015Y-113757519D01*
X89019147Y-113896900D01*
X89083297Y-114051772D01*
X89116000Y-114216184D01*
X89116000Y-114383816D01*
X89083297Y-114548228D01*
X89019147Y-114703100D01*
X88926015Y-114842481D01*
X88807481Y-114961015D01*
X88668100Y-115054147D01*
X88513228Y-115118297D01*
X88348816Y-115151000D01*
X88181184Y-115151000D01*
X88016772Y-115118297D01*
X87861900Y-115054147D01*
X87722519Y-114961015D01*
X87603985Y-114842481D01*
X87510853Y-114703100D01*
X87446703Y-114548228D01*
X87414000Y-114383816D01*
X87414000Y-114216184D01*
X87446703Y-114051772D01*
X87510853Y-113896900D01*
X87603985Y-113757519D01*
X87722519Y-113638985D01*
X87861900Y-113545853D01*
X88016772Y-113481703D01*
X88181184Y-113449000D01*
X88348816Y-113449000D01*
X88513228Y-113481703D01*
G37*
G36*
X145663228Y-113481703D02*
G01*
X145818100Y-113545853D01*
X145957481Y-113638985D01*
X146076015Y-113757519D01*
X146169147Y-113896900D01*
X146233297Y-114051772D01*
X146266000Y-114216184D01*
X146266000Y-114383816D01*
X146233297Y-114548228D01*
X146169147Y-114703100D01*
X146076015Y-114842481D01*
X145957481Y-114961015D01*
X145818100Y-115054147D01*
X145663228Y-115118297D01*
X145498816Y-115151000D01*
X145331184Y-115151000D01*
X145166772Y-115118297D01*
X145011900Y-115054147D01*
X144872519Y-114961015D01*
X144753985Y-114842481D01*
X144660853Y-114703100D01*
X144596703Y-114548228D01*
X144564000Y-114383816D01*
X144564000Y-114216184D01*
X144596703Y-114051772D01*
X144660853Y-113896900D01*
X144753985Y-113757519D01*
X144872519Y-113638985D01*
X145011900Y-113545853D01*
X145166772Y-113481703D01*
X145331184Y-113449000D01*
X145498816Y-113449000D01*
X145663228Y-113481703D01*
G37*
G36*
X107563228Y-113481703D02*
G01*
X107718100Y-113545853D01*
X107857481Y-113638985D01*
X107976015Y-113757519D01*
X108069147Y-113896900D01*
X108133297Y-114051772D01*
X108166000Y-114216184D01*
X108166000Y-114383816D01*
X108133297Y-114548228D01*
X108069147Y-114703100D01*
X107976015Y-114842481D01*
X107857481Y-114961015D01*
X107718100Y-115054147D01*
X107563228Y-115118297D01*
X107398816Y-115151000D01*
X107231184Y-115151000D01*
X107066772Y-115118297D01*
X106911900Y-115054147D01*
X106772519Y-114961015D01*
X106653985Y-114842481D01*
X106560853Y-114703100D01*
X106496703Y-114548228D01*
X106464000Y-114383816D01*
X106464000Y-114216184D01*
X106496703Y-114051772D01*
X106560853Y-113896900D01*
X106653985Y-113757519D01*
X106772519Y-113638985D01*
X106911900Y-113545853D01*
X107066772Y-113481703D01*
X107231184Y-113449000D01*
X107398816Y-113449000D01*
X107563228Y-113481703D01*
G37*
G36*
X126613228Y-113481703D02*
G01*
X126768100Y-113545853D01*
X126907481Y-113638985D01*
X127026015Y-113757519D01*
X127119147Y-113896900D01*
X127183297Y-114051772D01*
X127216000Y-114216184D01*
X127216000Y-114383816D01*
X127183297Y-114548228D01*
X127119147Y-114703100D01*
X127026015Y-114842481D01*
X126907481Y-114961015D01*
X126768100Y-115054147D01*
X126613228Y-115118297D01*
X126448816Y-115151000D01*
X126281184Y-115151000D01*
X126116772Y-115118297D01*
X125961900Y-115054147D01*
X125822519Y-114961015D01*
X125703985Y-114842481D01*
X125610853Y-114703100D01*
X125546703Y-114548228D01*
X125514000Y-114383816D01*
X125514000Y-114216184D01*
X125546703Y-114051772D01*
X125610853Y-113896900D01*
X125703985Y-113757519D01*
X125822519Y-113638985D01*
X125961900Y-113545853D01*
X126116772Y-113481703D01*
X126281184Y-113449000D01*
X126448816Y-113449000D01*
X126613228Y-113481703D01*
G37*
G36*
X127216000Y-103721000D02*
G01*
X125514000Y-103721000D01*
X125514000Y-102019000D01*
X127216000Y-102019000D01*
X127216000Y-103721000D01*
G37*
G36*
X146266000Y-103721000D02*
G01*
X144564000Y-103721000D01*
X144564000Y-102019000D01*
X146266000Y-102019000D01*
X146266000Y-103721000D01*
G37*
G36*
X89116000Y-103721000D02*
G01*
X87414000Y-103721000D01*
X87414000Y-102019000D01*
X89116000Y-102019000D01*
X89116000Y-103721000D01*
G37*
G36*
X108166000Y-103721000D02*
G01*
X106464000Y-103721000D01*
X106464000Y-102019000D01*
X108166000Y-102019000D01*
X108166000Y-103721000D01*
G37*
G36*
X162191000Y-103136000D02*
G01*
X160389000Y-103136000D01*
X160389000Y-101334000D01*
X162191000Y-101334000D01*
X162191000Y-103136000D01*
G37*
G36*
X99656474Y-98363684D02*
G01*
X99874474Y-98453983D01*
X100028623Y-98517833D01*
X100363548Y-98741623D01*
X100648377Y-99026452D01*
X100872167Y-99361377D01*
X100904562Y-99439586D01*
X101026316Y-99733526D01*
X101104900Y-100128594D01*
X101104900Y-100531406D01*
X101026316Y-100926474D01*
X100975451Y-101049272D01*
X100872167Y-101298623D01*
X100648377Y-101633548D01*
X100363548Y-101918377D01*
X100028623Y-102142167D01*
X99874474Y-102206017D01*
X99656474Y-102296316D01*
X99261406Y-102374900D01*
X98858594Y-102374900D01*
X98463526Y-102296316D01*
X98245526Y-102206017D01*
X98091377Y-102142167D01*
X97756452Y-101918377D01*
X97471623Y-101633548D01*
X97247833Y-101298623D01*
X97144549Y-101049272D01*
X97093684Y-100926474D01*
X97015100Y-100531406D01*
X97015100Y-100128594D01*
X97093684Y-99733526D01*
X97215438Y-99439586D01*
X97247833Y-99361377D01*
X97471623Y-99026452D01*
X97756452Y-98741623D01*
X98091377Y-98517833D01*
X98245526Y-98453983D01*
X98463526Y-98363684D01*
X98858594Y-98285100D01*
X99261406Y-98285100D01*
X99656474Y-98363684D01*
G37*
G36*
X118706474Y-98363684D02*
G01*
X118924474Y-98453983D01*
X119078623Y-98517833D01*
X119413548Y-98741623D01*
X119698377Y-99026452D01*
X119922167Y-99361377D01*
X119954562Y-99439586D01*
X120076316Y-99733526D01*
X120154900Y-100128594D01*
X120154900Y-100531406D01*
X120076316Y-100926474D01*
X120025451Y-101049272D01*
X119922167Y-101298623D01*
X119698377Y-101633548D01*
X119413548Y-101918377D01*
X119078623Y-102142167D01*
X118924474Y-102206017D01*
X118706474Y-102296316D01*
X118311406Y-102374900D01*
X117908594Y-102374900D01*
X117513526Y-102296316D01*
X117295526Y-102206017D01*
X117141377Y-102142167D01*
X116806452Y-101918377D01*
X116521623Y-101633548D01*
X116297833Y-101298623D01*
X116194549Y-101049272D01*
X116143684Y-100926474D01*
X116065100Y-100531406D01*
X116065100Y-100128594D01*
X116143684Y-99733526D01*
X116265438Y-99439586D01*
X116297833Y-99361377D01*
X116521623Y-99026452D01*
X116806452Y-98741623D01*
X117141377Y-98517833D01*
X117295526Y-98453983D01*
X117513526Y-98363684D01*
X117908594Y-98285100D01*
X118311406Y-98285100D01*
X118706474Y-98363684D01*
G37*
G36*
X80606474Y-98363684D02*
G01*
X80824474Y-98453983D01*
X80978623Y-98517833D01*
X81313548Y-98741623D01*
X81598377Y-99026452D01*
X81822167Y-99361377D01*
X81854562Y-99439586D01*
X81976316Y-99733526D01*
X82054900Y-100128594D01*
X82054900Y-100531406D01*
X81976316Y-100926474D01*
X81925451Y-101049272D01*
X81822167Y-101298623D01*
X81598377Y-101633548D01*
X81313548Y-101918377D01*
X80978623Y-102142167D01*
X80824474Y-102206017D01*
X80606474Y-102296316D01*
X80211406Y-102374900D01*
X79808594Y-102374900D01*
X79413526Y-102296316D01*
X79195526Y-102206017D01*
X79041377Y-102142167D01*
X78706452Y-101918377D01*
X78421623Y-101633548D01*
X78197833Y-101298623D01*
X78094549Y-101049272D01*
X78043684Y-100926474D01*
X77965100Y-100531406D01*
X77965100Y-100128594D01*
X78043684Y-99733526D01*
X78165438Y-99439586D01*
X78197833Y-99361377D01*
X78421623Y-99026452D01*
X78706452Y-98741623D01*
X79041377Y-98517833D01*
X79195526Y-98453983D01*
X79413526Y-98363684D01*
X79808594Y-98285100D01*
X80211406Y-98285100D01*
X80606474Y-98363684D01*
G37*
G36*
X137756474Y-98363684D02*
G01*
X137974474Y-98453983D01*
X138128623Y-98517833D01*
X138463548Y-98741623D01*
X138748377Y-99026452D01*
X138972167Y-99361377D01*
X139004562Y-99439586D01*
X139126316Y-99733526D01*
X139204900Y-100128594D01*
X139204900Y-100531406D01*
X139126316Y-100926474D01*
X139075451Y-101049272D01*
X138972167Y-101298623D01*
X138748377Y-101633548D01*
X138463548Y-101918377D01*
X138128623Y-102142167D01*
X137974474Y-102206017D01*
X137756474Y-102296316D01*
X137361406Y-102374900D01*
X136958594Y-102374900D01*
X136563526Y-102296316D01*
X136345526Y-102206017D01*
X136191377Y-102142167D01*
X135856452Y-101918377D01*
X135571623Y-101633548D01*
X135347833Y-101298623D01*
X135244549Y-101049272D01*
X135193684Y-100926474D01*
X135115100Y-100531406D01*
X135115100Y-100128594D01*
X135193684Y-99733526D01*
X135315438Y-99439586D01*
X135347833Y-99361377D01*
X135571623Y-99026452D01*
X135856452Y-98741623D01*
X136191377Y-98517833D01*
X136345526Y-98453983D01*
X136563526Y-98363684D01*
X136958594Y-98285100D01*
X137361406Y-98285100D01*
X137756474Y-98363684D01*
G37*
G36*
X75200104Y-99439585D02*
G01*
X75368626Y-99509389D01*
X75520291Y-99610728D01*
X75649272Y-99739709D01*
X75750611Y-99891374D01*
X75820415Y-100059896D01*
X75856000Y-100238797D01*
X75856000Y-100421203D01*
X75820415Y-100600104D01*
X75750611Y-100768626D01*
X75649272Y-100920291D01*
X75520291Y-101049272D01*
X75368626Y-101150611D01*
X75200104Y-101220415D01*
X75021203Y-101256000D01*
X74838797Y-101256000D01*
X74659896Y-101220415D01*
X74491374Y-101150611D01*
X74339709Y-101049272D01*
X74210728Y-100920291D01*
X74109389Y-100768626D01*
X74039585Y-100600104D01*
X74004000Y-100421203D01*
X74004000Y-100238797D01*
X74039585Y-100059896D01*
X74109389Y-99891374D01*
X74210728Y-99739709D01*
X74339709Y-99610728D01*
X74491374Y-99509389D01*
X74659896Y-99439585D01*
X74838797Y-99404000D01*
X75021203Y-99404000D01*
X75200104Y-99439585D01*
G37*
G36*
X123460104Y-99439585D02*
G01*
X123628626Y-99509389D01*
X123780291Y-99610728D01*
X123909272Y-99739709D01*
X124010611Y-99891374D01*
X124080415Y-100059896D01*
X124116000Y-100238797D01*
X124116000Y-100421203D01*
X124080415Y-100600104D01*
X124010611Y-100768626D01*
X123909272Y-100920291D01*
X123780291Y-101049272D01*
X123628626Y-101150611D01*
X123460104Y-101220415D01*
X123281203Y-101256000D01*
X123098797Y-101256000D01*
X122919896Y-101220415D01*
X122751374Y-101150611D01*
X122599709Y-101049272D01*
X122470728Y-100920291D01*
X122369389Y-100768626D01*
X122299585Y-100600104D01*
X122264000Y-100421203D01*
X122264000Y-100238797D01*
X122299585Y-100059896D01*
X122369389Y-99891374D01*
X122470728Y-99739709D01*
X122599709Y-99610728D01*
X122751374Y-99509389D01*
X122919896Y-99439585D01*
X123098797Y-99404000D01*
X123281203Y-99404000D01*
X123460104Y-99439585D01*
G37*
G36*
X113300104Y-99439585D02*
G01*
X113468626Y-99509389D01*
X113620291Y-99610728D01*
X113749272Y-99739709D01*
X113850611Y-99891374D01*
X113920415Y-100059896D01*
X113956000Y-100238797D01*
X113956000Y-100421203D01*
X113920415Y-100600104D01*
X113850611Y-100768626D01*
X113749272Y-100920291D01*
X113620291Y-101049272D01*
X113468626Y-101150611D01*
X113300104Y-101220415D01*
X113121203Y-101256000D01*
X112938797Y-101256000D01*
X112759896Y-101220415D01*
X112591374Y-101150611D01*
X112439709Y-101049272D01*
X112310728Y-100920291D01*
X112209389Y-100768626D01*
X112139585Y-100600104D01*
X112104000Y-100421203D01*
X112104000Y-100238797D01*
X112139585Y-100059896D01*
X112209389Y-99891374D01*
X112310728Y-99739709D01*
X112439709Y-99610728D01*
X112591374Y-99509389D01*
X112759896Y-99439585D01*
X112938797Y-99404000D01*
X113121203Y-99404000D01*
X113300104Y-99439585D01*
G37*
G36*
X132350104Y-99439585D02*
G01*
X132518626Y-99509389D01*
X132670291Y-99610728D01*
X132799272Y-99739709D01*
X132900611Y-99891374D01*
X132970415Y-100059896D01*
X133006000Y-100238797D01*
X133006000Y-100421203D01*
X132970415Y-100600104D01*
X132900611Y-100768626D01*
X132799272Y-100920291D01*
X132670291Y-101049272D01*
X132518626Y-101150611D01*
X132350104Y-101220415D01*
X132171203Y-101256000D01*
X131988797Y-101256000D01*
X131809896Y-101220415D01*
X131641374Y-101150611D01*
X131489709Y-101049272D01*
X131360728Y-100920291D01*
X131259389Y-100768626D01*
X131189585Y-100600104D01*
X131154000Y-100421203D01*
X131154000Y-100238797D01*
X131189585Y-100059896D01*
X131259389Y-99891374D01*
X131360728Y-99739709D01*
X131489709Y-99610728D01*
X131641374Y-99509389D01*
X131809896Y-99439585D01*
X131988797Y-99404000D01*
X132171203Y-99404000D01*
X132350104Y-99439585D01*
G37*
G36*
X104410104Y-99439585D02*
G01*
X104578626Y-99509389D01*
X104730291Y-99610728D01*
X104859272Y-99739709D01*
X104960611Y-99891374D01*
X105030415Y-100059896D01*
X105066000Y-100238797D01*
X105066000Y-100421203D01*
X105030415Y-100600104D01*
X104960611Y-100768626D01*
X104859272Y-100920291D01*
X104730291Y-101049272D01*
X104578626Y-101150611D01*
X104410104Y-101220415D01*
X104231203Y-101256000D01*
X104048797Y-101256000D01*
X103869896Y-101220415D01*
X103701374Y-101150611D01*
X103549709Y-101049272D01*
X103420728Y-100920291D01*
X103319389Y-100768626D01*
X103249585Y-100600104D01*
X103214000Y-100421203D01*
X103214000Y-100238797D01*
X103249585Y-100059896D01*
X103319389Y-99891374D01*
X103420728Y-99739709D01*
X103549709Y-99610728D01*
X103701374Y-99509389D01*
X103869896Y-99439585D01*
X104048797Y-99404000D01*
X104231203Y-99404000D01*
X104410104Y-99439585D01*
G37*
G36*
X94250104Y-99439585D02*
G01*
X94418626Y-99509389D01*
X94570291Y-99610728D01*
X94699272Y-99739709D01*
X94800611Y-99891374D01*
X94870415Y-100059896D01*
X94906000Y-100238797D01*
X94906000Y-100421203D01*
X94870415Y-100600104D01*
X94800611Y-100768626D01*
X94699272Y-100920291D01*
X94570291Y-101049272D01*
X94418626Y-101150611D01*
X94250104Y-101220415D01*
X94071203Y-101256000D01*
X93888797Y-101256000D01*
X93709896Y-101220415D01*
X93541374Y-101150611D01*
X93389709Y-101049272D01*
X93260728Y-100920291D01*
X93159389Y-100768626D01*
X93089585Y-100600104D01*
X93054000Y-100421203D01*
X93054000Y-100238797D01*
X93089585Y-100059896D01*
X93159389Y-99891374D01*
X93260728Y-99739709D01*
X93389709Y-99610728D01*
X93541374Y-99509389D01*
X93709896Y-99439585D01*
X93888797Y-99404000D01*
X94071203Y-99404000D01*
X94250104Y-99439585D01*
G37*
G36*
X85360104Y-99439585D02*
G01*
X85528626Y-99509389D01*
X85680291Y-99610728D01*
X85809272Y-99739709D01*
X85910611Y-99891374D01*
X85980415Y-100059896D01*
X86016000Y-100238797D01*
X86016000Y-100421203D01*
X85980415Y-100600104D01*
X85910611Y-100768626D01*
X85809272Y-100920291D01*
X85680291Y-101049272D01*
X85528626Y-101150611D01*
X85360104Y-101220415D01*
X85181203Y-101256000D01*
X84998797Y-101256000D01*
X84819896Y-101220415D01*
X84651374Y-101150611D01*
X84499709Y-101049272D01*
X84370728Y-100920291D01*
X84269389Y-100768626D01*
X84199585Y-100600104D01*
X84164000Y-100421203D01*
X84164000Y-100238797D01*
X84199585Y-100059896D01*
X84269389Y-99891374D01*
X84370728Y-99739709D01*
X84499709Y-99610728D01*
X84651374Y-99509389D01*
X84819896Y-99439585D01*
X84998797Y-99404000D01*
X85181203Y-99404000D01*
X85360104Y-99439585D01*
G37*
G36*
X142510104Y-99439585D02*
G01*
X142678626Y-99509389D01*
X142830291Y-99610728D01*
X142959272Y-99739709D01*
X143060611Y-99891374D01*
X143130415Y-100059896D01*
X143166000Y-100238797D01*
X143166000Y-100421203D01*
X143130415Y-100600104D01*
X143060611Y-100768626D01*
X142959272Y-100920291D01*
X142830291Y-101049272D01*
X142678626Y-101150611D01*
X142510104Y-101220415D01*
X142331203Y-101256000D01*
X142148797Y-101256000D01*
X141969896Y-101220415D01*
X141801374Y-101150611D01*
X141649709Y-101049272D01*
X141520728Y-100920291D01*
X141419389Y-100768626D01*
X141349585Y-100600104D01*
X141314000Y-100421203D01*
X141314000Y-100238797D01*
X141349585Y-100059896D01*
X141419389Y-99891374D01*
X141520728Y-99739709D01*
X141649709Y-99610728D01*
X141801374Y-99509389D01*
X141969896Y-99439585D01*
X142148797Y-99404000D01*
X142331203Y-99404000D01*
X142510104Y-99439585D01*
G37*
G36*
X161403512Y-98798927D02*
G01*
X161552812Y-98828624D01*
X161716784Y-98896544D01*
X161864354Y-98995147D01*
X161989853Y-99120646D01*
X162088456Y-99268216D01*
X162156376Y-99432188D01*
X162191000Y-99606259D01*
X162191000Y-99783741D01*
X162156376Y-99957812D01*
X162088456Y-100121784D01*
X161989853Y-100269354D01*
X161864354Y-100394853D01*
X161716784Y-100493456D01*
X161552812Y-100561376D01*
X161403512Y-100591073D01*
X161378742Y-100596000D01*
X161201258Y-100596000D01*
X161176488Y-100591073D01*
X161027188Y-100561376D01*
X160863216Y-100493456D01*
X160715646Y-100394853D01*
X160590147Y-100269354D01*
X160491544Y-100121784D01*
X160423624Y-99957812D01*
X160389000Y-99783741D01*
X160389000Y-99606259D01*
X160423624Y-99432188D01*
X160491544Y-99268216D01*
X160590147Y-99120646D01*
X160715646Y-98995147D01*
X160863216Y-98896544D01*
X161027188Y-98828624D01*
X161176488Y-98798927D01*
X161201258Y-98794000D01*
X161378742Y-98794000D01*
X161403512Y-98798927D01*
G37*
G36*
X76391560Y-96629064D02*
G01*
X76543027Y-96659193D01*
X76757045Y-96747842D01*
X76757046Y-96747843D01*
X76949654Y-96876539D01*
X77113461Y-97040346D01*
X77130775Y-97066259D01*
X77242158Y-97232955D01*
X77330807Y-97446973D01*
X77376000Y-97674174D01*
X77376000Y-97905826D01*
X77330807Y-98133027D01*
X77242158Y-98347045D01*
X77242157Y-98347046D01*
X77113461Y-98539654D01*
X76949654Y-98703461D01*
X76892540Y-98741623D01*
X76757045Y-98832158D01*
X76543027Y-98920807D01*
X76391560Y-98950936D01*
X76315827Y-98966000D01*
X76084173Y-98966000D01*
X76008440Y-98950936D01*
X75856973Y-98920807D01*
X75642955Y-98832158D01*
X75507460Y-98741623D01*
X75450346Y-98703461D01*
X75286539Y-98539654D01*
X75157843Y-98347046D01*
X75157842Y-98347045D01*
X75069193Y-98133027D01*
X75024000Y-97905826D01*
X75024000Y-97674174D01*
X75069193Y-97446973D01*
X75157842Y-97232955D01*
X75269225Y-97066259D01*
X75286539Y-97040346D01*
X75450346Y-96876539D01*
X75642954Y-96747843D01*
X75642955Y-96747842D01*
X75856973Y-96659193D01*
X76008440Y-96629064D01*
X76084173Y-96614000D01*
X76315827Y-96614000D01*
X76391560Y-96629064D01*
G37*
G36*
X133541560Y-96629064D02*
G01*
X133693027Y-96659193D01*
X133907045Y-96747842D01*
X133907046Y-96747843D01*
X134099654Y-96876539D01*
X134263461Y-97040346D01*
X134280775Y-97066259D01*
X134392158Y-97232955D01*
X134480807Y-97446973D01*
X134526000Y-97674174D01*
X134526000Y-97905826D01*
X134480807Y-98133027D01*
X134392158Y-98347045D01*
X134392157Y-98347046D01*
X134263461Y-98539654D01*
X134099654Y-98703461D01*
X134042540Y-98741623D01*
X133907045Y-98832158D01*
X133693027Y-98920807D01*
X133541560Y-98950936D01*
X133465827Y-98966000D01*
X133234173Y-98966000D01*
X133158440Y-98950936D01*
X133006973Y-98920807D01*
X132792955Y-98832158D01*
X132657460Y-98741623D01*
X132600346Y-98703461D01*
X132436539Y-98539654D01*
X132307843Y-98347046D01*
X132307842Y-98347045D01*
X132219193Y-98133027D01*
X132174000Y-97905826D01*
X132174000Y-97674174D01*
X132219193Y-97446973D01*
X132307842Y-97232955D01*
X132419225Y-97066259D01*
X132436539Y-97040346D01*
X132600346Y-96876539D01*
X132792954Y-96747843D01*
X132792955Y-96747842D01*
X133006973Y-96659193D01*
X133158440Y-96629064D01*
X133234173Y-96614000D01*
X133465827Y-96614000D01*
X133541560Y-96629064D01*
G37*
G36*
X114491560Y-96629064D02*
G01*
X114643027Y-96659193D01*
X114857045Y-96747842D01*
X114857046Y-96747843D01*
X115049654Y-96876539D01*
X115213461Y-97040346D01*
X115230775Y-97066259D01*
X115342158Y-97232955D01*
X115430807Y-97446973D01*
X115476000Y-97674174D01*
X115476000Y-97905826D01*
X115430807Y-98133027D01*
X115342158Y-98347045D01*
X115342157Y-98347046D01*
X115213461Y-98539654D01*
X115049654Y-98703461D01*
X114992540Y-98741623D01*
X114857045Y-98832158D01*
X114643027Y-98920807D01*
X114491560Y-98950936D01*
X114415827Y-98966000D01*
X114184173Y-98966000D01*
X114108440Y-98950936D01*
X113956973Y-98920807D01*
X113742955Y-98832158D01*
X113607460Y-98741623D01*
X113550346Y-98703461D01*
X113386539Y-98539654D01*
X113257843Y-98347046D01*
X113257842Y-98347045D01*
X113169193Y-98133027D01*
X113124000Y-97905826D01*
X113124000Y-97674174D01*
X113169193Y-97446973D01*
X113257842Y-97232955D01*
X113369225Y-97066259D01*
X113386539Y-97040346D01*
X113550346Y-96876539D01*
X113742954Y-96747843D01*
X113742955Y-96747842D01*
X113956973Y-96659193D01*
X114108440Y-96629064D01*
X114184173Y-96614000D01*
X114415827Y-96614000D01*
X114491560Y-96629064D01*
G37*
G36*
X95441560Y-96629064D02*
G01*
X95593027Y-96659193D01*
X95807045Y-96747842D01*
X95807046Y-96747843D01*
X95999654Y-96876539D01*
X96163461Y-97040346D01*
X96180775Y-97066259D01*
X96292158Y-97232955D01*
X96380807Y-97446973D01*
X96426000Y-97674174D01*
X96426000Y-97905826D01*
X96380807Y-98133027D01*
X96292158Y-98347045D01*
X96292157Y-98347046D01*
X96163461Y-98539654D01*
X95999654Y-98703461D01*
X95942540Y-98741623D01*
X95807045Y-98832158D01*
X95593027Y-98920807D01*
X95441560Y-98950936D01*
X95365827Y-98966000D01*
X95134173Y-98966000D01*
X95058440Y-98950936D01*
X94906973Y-98920807D01*
X94692955Y-98832158D01*
X94557460Y-98741623D01*
X94500346Y-98703461D01*
X94336539Y-98539654D01*
X94207843Y-98347046D01*
X94207842Y-98347045D01*
X94119193Y-98133027D01*
X94074000Y-97905826D01*
X94074000Y-97674174D01*
X94119193Y-97446973D01*
X94207842Y-97232955D01*
X94319225Y-97066259D01*
X94336539Y-97040346D01*
X94500346Y-96876539D01*
X94692954Y-96747843D01*
X94692955Y-96747842D01*
X94906973Y-96659193D01*
X95058440Y-96629064D01*
X95134173Y-96614000D01*
X95365827Y-96614000D01*
X95441560Y-96629064D01*
G37*
G36*
X161403512Y-96258927D02*
G01*
X161552812Y-96288624D01*
X161716784Y-96356544D01*
X161864354Y-96455147D01*
X161989853Y-96580646D01*
X162088456Y-96728216D01*
X162156376Y-96892188D01*
X162191000Y-97066259D01*
X162191000Y-97243741D01*
X162156376Y-97417812D01*
X162088456Y-97581784D01*
X161989853Y-97729354D01*
X161864354Y-97854853D01*
X161716784Y-97953456D01*
X161552812Y-98021376D01*
X161403512Y-98051073D01*
X161378742Y-98056000D01*
X161201258Y-98056000D01*
X161176488Y-98051073D01*
X161027188Y-98021376D01*
X160863216Y-97953456D01*
X160715646Y-97854853D01*
X160590147Y-97729354D01*
X160491544Y-97581784D01*
X160423624Y-97417812D01*
X160389000Y-97243741D01*
X160389000Y-97066259D01*
X160423624Y-96892188D01*
X160491544Y-96728216D01*
X160590147Y-96580646D01*
X160715646Y-96455147D01*
X160863216Y-96356544D01*
X161027188Y-96288624D01*
X161176488Y-96258927D01*
X161201258Y-96254000D01*
X161378742Y-96254000D01*
X161403512Y-96258927D01*
G37*
G36*
X101791560Y-94089064D02*
G01*
X101943027Y-94119193D01*
X102157045Y-94207842D01*
X102157046Y-94207843D01*
X102349654Y-94336539D01*
X102513461Y-94500346D01*
X102572687Y-94588985D01*
X102642158Y-94692955D01*
X102730807Y-94906973D01*
X102776000Y-95134174D01*
X102776000Y-95365826D01*
X102730807Y-95593027D01*
X102642158Y-95807045D01*
X102642157Y-95807046D01*
X102513461Y-95999654D01*
X102349654Y-96163461D01*
X102221249Y-96249258D01*
X102157045Y-96292158D01*
X101943027Y-96380807D01*
X101791560Y-96410936D01*
X101715827Y-96426000D01*
X101484173Y-96426000D01*
X101408440Y-96410936D01*
X101256973Y-96380807D01*
X101042955Y-96292158D01*
X100978751Y-96249258D01*
X100850346Y-96163461D01*
X100686539Y-95999654D01*
X100557843Y-95807046D01*
X100557842Y-95807045D01*
X100469193Y-95593027D01*
X100424000Y-95365826D01*
X100424000Y-95134174D01*
X100469193Y-94906973D01*
X100557842Y-94692955D01*
X100627313Y-94588985D01*
X100686539Y-94500346D01*
X100850346Y-94336539D01*
X101042954Y-94207843D01*
X101042955Y-94207842D01*
X101256973Y-94119193D01*
X101408440Y-94089064D01*
X101484173Y-94074000D01*
X101715827Y-94074000D01*
X101791560Y-94089064D01*
G37*
G36*
X120841560Y-94089064D02*
G01*
X120993027Y-94119193D01*
X121207045Y-94207842D01*
X121207046Y-94207843D01*
X121399654Y-94336539D01*
X121563461Y-94500346D01*
X121622687Y-94588985D01*
X121692158Y-94692955D01*
X121780807Y-94906973D01*
X121826000Y-95134174D01*
X121826000Y-95365826D01*
X121780807Y-95593027D01*
X121692158Y-95807045D01*
X121692157Y-95807046D01*
X121563461Y-95999654D01*
X121399654Y-96163461D01*
X121271249Y-96249258D01*
X121207045Y-96292158D01*
X120993027Y-96380807D01*
X120841560Y-96410936D01*
X120765827Y-96426000D01*
X120534173Y-96426000D01*
X120458440Y-96410936D01*
X120306973Y-96380807D01*
X120092955Y-96292158D01*
X120028751Y-96249258D01*
X119900346Y-96163461D01*
X119736539Y-95999654D01*
X119607843Y-95807046D01*
X119607842Y-95807045D01*
X119519193Y-95593027D01*
X119474000Y-95365826D01*
X119474000Y-95134174D01*
X119519193Y-94906973D01*
X119607842Y-94692955D01*
X119677313Y-94588985D01*
X119736539Y-94500346D01*
X119900346Y-94336539D01*
X120092954Y-94207843D01*
X120092955Y-94207842D01*
X120306973Y-94119193D01*
X120458440Y-94089064D01*
X120534173Y-94074000D01*
X120765827Y-94074000D01*
X120841560Y-94089064D01*
G37*
G36*
X139891560Y-94089064D02*
G01*
X140043027Y-94119193D01*
X140257045Y-94207842D01*
X140257046Y-94207843D01*
X140449654Y-94336539D01*
X140613461Y-94500346D01*
X140672687Y-94588985D01*
X140742158Y-94692955D01*
X140830807Y-94906973D01*
X140876000Y-95134174D01*
X140876000Y-95365826D01*
X140830807Y-95593027D01*
X140742158Y-95807045D01*
X140742157Y-95807046D01*
X140613461Y-95999654D01*
X140449654Y-96163461D01*
X140321249Y-96249258D01*
X140257045Y-96292158D01*
X140043027Y-96380807D01*
X139891560Y-96410936D01*
X139815827Y-96426000D01*
X139584173Y-96426000D01*
X139508440Y-96410936D01*
X139356973Y-96380807D01*
X139142955Y-96292158D01*
X139078751Y-96249258D01*
X138950346Y-96163461D01*
X138786539Y-95999654D01*
X138657843Y-95807046D01*
X138657842Y-95807045D01*
X138569193Y-95593027D01*
X138524000Y-95365826D01*
X138524000Y-95134174D01*
X138569193Y-94906973D01*
X138657842Y-94692955D01*
X138727313Y-94588985D01*
X138786539Y-94500346D01*
X138950346Y-94336539D01*
X139142954Y-94207843D01*
X139142955Y-94207842D01*
X139356973Y-94119193D01*
X139508440Y-94089064D01*
X139584173Y-94074000D01*
X139815827Y-94074000D01*
X139891560Y-94089064D01*
G37*
G36*
X82741560Y-94089064D02*
G01*
X82893027Y-94119193D01*
X83107045Y-94207842D01*
X83107046Y-94207843D01*
X83299654Y-94336539D01*
X83463461Y-94500346D01*
X83522687Y-94588985D01*
X83592158Y-94692955D01*
X83680807Y-94906973D01*
X83726000Y-95134174D01*
X83726000Y-95365826D01*
X83680807Y-95593027D01*
X83592158Y-95807045D01*
X83592157Y-95807046D01*
X83463461Y-95999654D01*
X83299654Y-96163461D01*
X83171249Y-96249258D01*
X83107045Y-96292158D01*
X82893027Y-96380807D01*
X82741560Y-96410936D01*
X82665827Y-96426000D01*
X82434173Y-96426000D01*
X82358440Y-96410936D01*
X82206973Y-96380807D01*
X81992955Y-96292158D01*
X81928751Y-96249258D01*
X81800346Y-96163461D01*
X81636539Y-95999654D01*
X81507843Y-95807046D01*
X81507842Y-95807045D01*
X81419193Y-95593027D01*
X81374000Y-95365826D01*
X81374000Y-95134174D01*
X81419193Y-94906973D01*
X81507842Y-94692955D01*
X81577313Y-94588985D01*
X81636539Y-94500346D01*
X81800346Y-94336539D01*
X81992954Y-94207843D01*
X81992955Y-94207842D01*
X82206973Y-94119193D01*
X82358440Y-94089064D01*
X82434173Y-94074000D01*
X82665827Y-94074000D01*
X82741560Y-94089064D01*
G37*
G36*
X145663228Y-94431703D02*
G01*
X145818100Y-94495853D01*
X145957481Y-94588985D01*
X146076015Y-94707519D01*
X146169147Y-94846900D01*
X146233297Y-95001772D01*
X146266000Y-95166184D01*
X146266000Y-95333816D01*
X146233297Y-95498228D01*
X146169147Y-95653100D01*
X146076015Y-95792481D01*
X145957481Y-95911015D01*
X145818100Y-96004147D01*
X145663228Y-96068297D01*
X145498816Y-96101000D01*
X145331184Y-96101000D01*
X145166772Y-96068297D01*
X145011900Y-96004147D01*
X144872519Y-95911015D01*
X144753985Y-95792481D01*
X144660853Y-95653100D01*
X144596703Y-95498228D01*
X144564000Y-95333816D01*
X144564000Y-95166184D01*
X144596703Y-95001772D01*
X144660853Y-94846900D01*
X144753985Y-94707519D01*
X144872519Y-94588985D01*
X145011900Y-94495853D01*
X145166772Y-94431703D01*
X145331184Y-94399000D01*
X145498816Y-94399000D01*
X145663228Y-94431703D01*
G37*
G36*
X126613228Y-94431703D02*
G01*
X126768100Y-94495853D01*
X126907481Y-94588985D01*
X127026015Y-94707519D01*
X127119147Y-94846900D01*
X127183297Y-95001772D01*
X127216000Y-95166184D01*
X127216000Y-95333816D01*
X127183297Y-95498228D01*
X127119147Y-95653100D01*
X127026015Y-95792481D01*
X126907481Y-95911015D01*
X126768100Y-96004147D01*
X126613228Y-96068297D01*
X126448816Y-96101000D01*
X126281184Y-96101000D01*
X126116772Y-96068297D01*
X125961900Y-96004147D01*
X125822519Y-95911015D01*
X125703985Y-95792481D01*
X125610853Y-95653100D01*
X125546703Y-95498228D01*
X125514000Y-95333816D01*
X125514000Y-95166184D01*
X125546703Y-95001772D01*
X125610853Y-94846900D01*
X125703985Y-94707519D01*
X125822519Y-94588985D01*
X125961900Y-94495853D01*
X126116772Y-94431703D01*
X126281184Y-94399000D01*
X126448816Y-94399000D01*
X126613228Y-94431703D01*
G37*
G36*
X88513228Y-94431703D02*
G01*
X88668100Y-94495853D01*
X88807481Y-94588985D01*
X88926015Y-94707519D01*
X89019147Y-94846900D01*
X89083297Y-95001772D01*
X89116000Y-95166184D01*
X89116000Y-95333816D01*
X89083297Y-95498228D01*
X89019147Y-95653100D01*
X88926015Y-95792481D01*
X88807481Y-95911015D01*
X88668100Y-96004147D01*
X88513228Y-96068297D01*
X88348816Y-96101000D01*
X88181184Y-96101000D01*
X88016772Y-96068297D01*
X87861900Y-96004147D01*
X87722519Y-95911015D01*
X87603985Y-95792481D01*
X87510853Y-95653100D01*
X87446703Y-95498228D01*
X87414000Y-95333816D01*
X87414000Y-95166184D01*
X87446703Y-95001772D01*
X87510853Y-94846900D01*
X87603985Y-94707519D01*
X87722519Y-94588985D01*
X87861900Y-94495853D01*
X88016772Y-94431703D01*
X88181184Y-94399000D01*
X88348816Y-94399000D01*
X88513228Y-94431703D01*
G37*
G36*
X107563228Y-94431703D02*
G01*
X107718100Y-94495853D01*
X107857481Y-94588985D01*
X107976015Y-94707519D01*
X108069147Y-94846900D01*
X108133297Y-95001772D01*
X108166000Y-95166184D01*
X108166000Y-95333816D01*
X108133297Y-95498228D01*
X108069147Y-95653100D01*
X107976015Y-95792481D01*
X107857481Y-95911015D01*
X107718100Y-96004147D01*
X107563228Y-96068297D01*
X107398816Y-96101000D01*
X107231184Y-96101000D01*
X107066772Y-96068297D01*
X106911900Y-96004147D01*
X106772519Y-95911015D01*
X106653985Y-95792481D01*
X106560853Y-95653100D01*
X106496703Y-95498228D01*
X106464000Y-95333816D01*
X106464000Y-95166184D01*
X106496703Y-95001772D01*
X106560853Y-94846900D01*
X106653985Y-94707519D01*
X106772519Y-94588985D01*
X106911900Y-94495853D01*
X107066772Y-94431703D01*
X107231184Y-94399000D01*
X107398816Y-94399000D01*
X107563228Y-94431703D01*
G37*
G36*
X163400691Y-91350201D02*
G01*
X163414059Y-91352860D01*
X163550732Y-91409472D01*
X163673735Y-91491660D01*
X163778340Y-91596265D01*
X163778341Y-91596267D01*
X163860529Y-91719270D01*
X163917140Y-91855941D01*
X163928245Y-91911768D01*
X163946000Y-92001033D01*
X163946000Y-92148967D01*
X163917140Y-92294059D01*
X163860528Y-92430732D01*
X163778340Y-92553735D01*
X163673735Y-92658340D01*
X163550732Y-92740528D01*
X163550731Y-92740529D01*
X163550730Y-92740529D01*
X163414059Y-92797140D01*
X163268968Y-92826000D01*
X163121032Y-92826000D01*
X162975941Y-92797140D01*
X162839270Y-92740529D01*
X162839269Y-92740529D01*
X162839268Y-92740528D01*
X162716265Y-92658340D01*
X162611660Y-92553735D01*
X162529472Y-92430732D01*
X162472860Y-92294059D01*
X162444000Y-92148967D01*
X162444000Y-92001033D01*
X162461756Y-91911768D01*
X162472860Y-91855941D01*
X162529471Y-91719270D01*
X162611659Y-91596267D01*
X162611660Y-91596265D01*
X162716265Y-91491660D01*
X162839268Y-91409472D01*
X162975941Y-91352860D01*
X162989309Y-91350201D01*
X163121032Y-91324000D01*
X163268968Y-91324000D01*
X163400691Y-91350201D01*
G37*
G36*
X158320691Y-91350201D02*
G01*
X158334059Y-91352860D01*
X158470732Y-91409472D01*
X158593735Y-91491660D01*
X158698340Y-91596265D01*
X158698341Y-91596267D01*
X158780529Y-91719270D01*
X158837140Y-91855941D01*
X158848245Y-91911768D01*
X158866000Y-92001033D01*
X158866000Y-92148967D01*
X158837140Y-92294059D01*
X158780528Y-92430732D01*
X158698340Y-92553735D01*
X158593735Y-92658340D01*
X158470732Y-92740528D01*
X158470731Y-92740529D01*
X158470730Y-92740529D01*
X158334059Y-92797140D01*
X158188968Y-92826000D01*
X158041032Y-92826000D01*
X157895941Y-92797140D01*
X157759270Y-92740529D01*
X157759269Y-92740529D01*
X157759268Y-92740528D01*
X157636265Y-92658340D01*
X157531660Y-92553735D01*
X157449472Y-92430732D01*
X157392860Y-92294059D01*
X157364000Y-92148967D01*
X157364000Y-92001033D01*
X157381756Y-91911768D01*
X157392860Y-91855941D01*
X157449471Y-91719270D01*
X157531659Y-91596267D01*
X157531660Y-91596265D01*
X157636265Y-91491660D01*
X157759268Y-91409472D01*
X157895941Y-91352860D01*
X157909309Y-91350201D01*
X158041032Y-91324000D01*
X158188968Y-91324000D01*
X158320691Y-91350201D01*
G37*
G36*
X108809549Y-89676116D02*
G01*
X108920734Y-89698232D01*
X109130203Y-89784997D01*
X109318720Y-89910960D01*
X109479040Y-90071280D01*
X109605003Y-90259797D01*
X109691768Y-90469266D01*
X109736000Y-90691636D01*
X109736000Y-90918364D01*
X109691768Y-91140734D01*
X109605003Y-91350203D01*
X109479040Y-91538720D01*
X109318720Y-91699040D01*
X109130203Y-91825003D01*
X108920734Y-91911768D01*
X108809549Y-91933884D01*
X108698365Y-91956000D01*
X108471635Y-91956000D01*
X108360451Y-91933884D01*
X108249266Y-91911768D01*
X108039797Y-91825003D01*
X107851280Y-91699040D01*
X107690960Y-91538720D01*
X107564997Y-91350203D01*
X107478232Y-91140734D01*
X107434000Y-90918364D01*
X107434000Y-90691636D01*
X107478232Y-90469266D01*
X107564997Y-90259797D01*
X107690960Y-90071280D01*
X107851280Y-89910960D01*
X108039797Y-89784997D01*
X108249266Y-89698232D01*
X108360451Y-89676116D01*
X108471635Y-89654000D01*
X108698365Y-89654000D01*
X108809549Y-89676116D01*
G37*
G36*
X155053512Y-86733927D02*
G01*
X155202812Y-86763624D01*
X155366784Y-86831544D01*
X155514354Y-86930147D01*
X155639853Y-87055646D01*
X155738456Y-87203216D01*
X155806376Y-87367188D01*
X155841000Y-87541259D01*
X155841000Y-87718741D01*
X155806376Y-87892812D01*
X155738456Y-88056784D01*
X155639853Y-88204354D01*
X155514354Y-88329853D01*
X155366784Y-88428456D01*
X155202812Y-88496376D01*
X155053512Y-88526073D01*
X155028742Y-88531000D01*
X154851258Y-88531000D01*
X154826488Y-88526073D01*
X154677188Y-88496376D01*
X154513216Y-88428456D01*
X154365646Y-88329853D01*
X154240147Y-88204354D01*
X154141544Y-88056784D01*
X154073624Y-87892812D01*
X154039000Y-87718741D01*
X154039000Y-87541259D01*
X154073624Y-87367188D01*
X154141544Y-87203216D01*
X154240147Y-87055646D01*
X154365646Y-86930147D01*
X154513216Y-86831544D01*
X154677188Y-86763624D01*
X154826488Y-86733927D01*
X154851258Y-86729000D01*
X155028742Y-86729000D01*
X155053512Y-86733927D01*
G37*
G36*
X157593512Y-86733927D02*
G01*
X157742812Y-86763624D01*
X157906784Y-86831544D01*
X158054354Y-86930147D01*
X158179853Y-87055646D01*
X158278456Y-87203216D01*
X158346376Y-87367188D01*
X158381000Y-87541259D01*
X158381000Y-87718741D01*
X158346376Y-87892812D01*
X158278456Y-88056784D01*
X158179853Y-88204354D01*
X158054354Y-88329853D01*
X157906784Y-88428456D01*
X157742812Y-88496376D01*
X157593512Y-88526073D01*
X157568742Y-88531000D01*
X157391258Y-88531000D01*
X157366488Y-88526073D01*
X157217188Y-88496376D01*
X157053216Y-88428456D01*
X156905646Y-88329853D01*
X156780147Y-88204354D01*
X156681544Y-88056784D01*
X156613624Y-87892812D01*
X156579000Y-87718741D01*
X156579000Y-87541259D01*
X156613624Y-87367188D01*
X156681544Y-87203216D01*
X156780147Y-87055646D01*
X156905646Y-86930147D01*
X157053216Y-86831544D01*
X157217188Y-86763624D01*
X157366488Y-86733927D01*
X157391258Y-86729000D01*
X157568742Y-86729000D01*
X157593512Y-86733927D01*
G37*
G36*
X160133512Y-86733927D02*
G01*
X160282812Y-86763624D01*
X160446784Y-86831544D01*
X160594354Y-86930147D01*
X160719853Y-87055646D01*
X160818456Y-87203216D01*
X160886376Y-87367188D01*
X160921000Y-87541259D01*
X160921000Y-87718741D01*
X160886376Y-87892812D01*
X160818456Y-88056784D01*
X160719853Y-88204354D01*
X160594354Y-88329853D01*
X160446784Y-88428456D01*
X160282812Y-88496376D01*
X160133512Y-88526073D01*
X160108742Y-88531000D01*
X159931258Y-88531000D01*
X159906488Y-88526073D01*
X159757188Y-88496376D01*
X159593216Y-88428456D01*
X159445646Y-88329853D01*
X159320147Y-88204354D01*
X159221544Y-88056784D01*
X159153624Y-87892812D01*
X159119000Y-87718741D01*
X159119000Y-87541259D01*
X159153624Y-87367188D01*
X159221544Y-87203216D01*
X159320147Y-87055646D01*
X159445646Y-86930147D01*
X159593216Y-86831544D01*
X159757188Y-86763624D01*
X159906488Y-86733927D01*
X159931258Y-86729000D01*
X160108742Y-86729000D01*
X160133512Y-86733927D01*
G37*
G36*
X153301000Y-88531000D02*
G01*
X151499000Y-88531000D01*
X151499000Y-86729000D01*
X153301000Y-86729000D01*
X153301000Y-88531000D01*
G37*
G36*
X108166000Y-84671000D02*
G01*
X106464000Y-84671000D01*
X106464000Y-82969000D01*
X108166000Y-82969000D01*
X108166000Y-84671000D01*
G37*
G36*
X127216000Y-84671000D02*
G01*
X125514000Y-84671000D01*
X125514000Y-82969000D01*
X127216000Y-82969000D01*
X127216000Y-84671000D01*
G37*
G36*
X146266000Y-84671000D02*
G01*
X144564000Y-84671000D01*
X144564000Y-82969000D01*
X146266000Y-82969000D01*
X146266000Y-84671000D01*
G37*
G36*
X89116000Y-84671000D02*
G01*
X87414000Y-84671000D01*
X87414000Y-82969000D01*
X89116000Y-82969000D01*
X89116000Y-84671000D01*
G37*
G36*
X137756474Y-79313684D02*
G01*
X137974474Y-79403983D01*
X138128623Y-79467833D01*
X138463548Y-79691623D01*
X138748377Y-79976452D01*
X138972167Y-80311377D01*
X139004562Y-80389586D01*
X139126316Y-80683526D01*
X139204900Y-81078594D01*
X139204900Y-81481406D01*
X139126316Y-81876474D01*
X139075451Y-81999272D01*
X138972167Y-82248623D01*
X138748377Y-82583548D01*
X138463548Y-82868377D01*
X138128623Y-83092167D01*
X137974474Y-83156017D01*
X137756474Y-83246316D01*
X137361406Y-83324900D01*
X136958594Y-83324900D01*
X136563526Y-83246316D01*
X136345526Y-83156017D01*
X136191377Y-83092167D01*
X135856452Y-82868377D01*
X135571623Y-82583548D01*
X135347833Y-82248623D01*
X135244549Y-81999272D01*
X135193684Y-81876474D01*
X135115100Y-81481406D01*
X135115100Y-81078594D01*
X135193684Y-80683526D01*
X135315438Y-80389586D01*
X135347833Y-80311377D01*
X135571623Y-79976452D01*
X135856452Y-79691623D01*
X136191377Y-79467833D01*
X136345526Y-79403983D01*
X136563526Y-79313684D01*
X136958594Y-79235100D01*
X137361406Y-79235100D01*
X137756474Y-79313684D01*
G37*
G36*
X118706474Y-79313684D02*
G01*
X118924474Y-79403983D01*
X119078623Y-79467833D01*
X119413548Y-79691623D01*
X119698377Y-79976452D01*
X119922167Y-80311377D01*
X119954562Y-80389586D01*
X120076316Y-80683526D01*
X120154900Y-81078594D01*
X120154900Y-81481406D01*
X120076316Y-81876474D01*
X120025451Y-81999272D01*
X119922167Y-82248623D01*
X119698377Y-82583548D01*
X119413548Y-82868377D01*
X119078623Y-83092167D01*
X118924474Y-83156017D01*
X118706474Y-83246316D01*
X118311406Y-83324900D01*
X117908594Y-83324900D01*
X117513526Y-83246316D01*
X117295526Y-83156017D01*
X117141377Y-83092167D01*
X116806452Y-82868377D01*
X116521623Y-82583548D01*
X116297833Y-82248623D01*
X116194549Y-81999272D01*
X116143684Y-81876474D01*
X116065100Y-81481406D01*
X116065100Y-81078594D01*
X116143684Y-80683526D01*
X116265438Y-80389586D01*
X116297833Y-80311377D01*
X116521623Y-79976452D01*
X116806452Y-79691623D01*
X117141377Y-79467833D01*
X117295526Y-79403983D01*
X117513526Y-79313684D01*
X117908594Y-79235100D01*
X118311406Y-79235100D01*
X118706474Y-79313684D01*
G37*
G36*
X99656474Y-79313684D02*
G01*
X99874474Y-79403983D01*
X100028623Y-79467833D01*
X100363548Y-79691623D01*
X100648377Y-79976452D01*
X100872167Y-80311377D01*
X100904562Y-80389586D01*
X101026316Y-80683526D01*
X101104900Y-81078594D01*
X101104900Y-81481406D01*
X101026316Y-81876474D01*
X100975451Y-81999272D01*
X100872167Y-82248623D01*
X100648377Y-82583548D01*
X100363548Y-82868377D01*
X100028623Y-83092167D01*
X99874474Y-83156017D01*
X99656474Y-83246316D01*
X99261406Y-83324900D01*
X98858594Y-83324900D01*
X98463526Y-83246316D01*
X98245526Y-83156017D01*
X98091377Y-83092167D01*
X97756452Y-82868377D01*
X97471623Y-82583548D01*
X97247833Y-82248623D01*
X97144549Y-81999272D01*
X97093684Y-81876474D01*
X97015100Y-81481406D01*
X97015100Y-81078594D01*
X97093684Y-80683526D01*
X97215438Y-80389586D01*
X97247833Y-80311377D01*
X97471623Y-79976452D01*
X97756452Y-79691623D01*
X98091377Y-79467833D01*
X98245526Y-79403983D01*
X98463526Y-79313684D01*
X98858594Y-79235100D01*
X99261406Y-79235100D01*
X99656474Y-79313684D01*
G37*
G36*
X80606474Y-79313684D02*
G01*
X80824474Y-79403983D01*
X80978623Y-79467833D01*
X81313548Y-79691623D01*
X81598377Y-79976452D01*
X81822167Y-80311377D01*
X81854562Y-80389586D01*
X81976316Y-80683526D01*
X82054900Y-81078594D01*
X82054900Y-81481406D01*
X81976316Y-81876474D01*
X81925451Y-81999272D01*
X81822167Y-82248623D01*
X81598377Y-82583548D01*
X81313548Y-82868377D01*
X80978623Y-83092167D01*
X80824474Y-83156017D01*
X80606474Y-83246316D01*
X80211406Y-83324900D01*
X79808594Y-83324900D01*
X79413526Y-83246316D01*
X79195526Y-83156017D01*
X79041377Y-83092167D01*
X78706452Y-82868377D01*
X78421623Y-82583548D01*
X78197833Y-82248623D01*
X78094549Y-81999272D01*
X78043684Y-81876474D01*
X77965100Y-81481406D01*
X77965100Y-81078594D01*
X78043684Y-80683526D01*
X78165438Y-80389586D01*
X78197833Y-80311377D01*
X78421623Y-79976452D01*
X78706452Y-79691623D01*
X79041377Y-79467833D01*
X79195526Y-79403983D01*
X79413526Y-79313684D01*
X79808594Y-79235100D01*
X80211406Y-79235100D01*
X80606474Y-79313684D01*
G37*
G36*
X164078228Y-81096703D02*
G01*
X164233100Y-81160853D01*
X164372481Y-81253985D01*
X164491015Y-81372519D01*
X164584147Y-81511900D01*
X164648297Y-81666772D01*
X164681000Y-81831184D01*
X164681000Y-81998816D01*
X164648297Y-82163228D01*
X164584147Y-82318100D01*
X164491015Y-82457481D01*
X164372481Y-82576015D01*
X164233100Y-82669147D01*
X164078228Y-82733297D01*
X163913816Y-82766000D01*
X163746184Y-82766000D01*
X163581772Y-82733297D01*
X163426900Y-82669147D01*
X163287519Y-82576015D01*
X163168985Y-82457481D01*
X163075853Y-82318100D01*
X163011703Y-82163228D01*
X162979000Y-81998816D01*
X162979000Y-81831184D01*
X163011703Y-81666772D01*
X163075853Y-81511900D01*
X163168985Y-81372519D01*
X163287519Y-81253985D01*
X163426900Y-81160853D01*
X163581772Y-81096703D01*
X163746184Y-81064000D01*
X163913816Y-81064000D01*
X164078228Y-81096703D01*
G37*
G36*
X148838228Y-81096703D02*
G01*
X148993100Y-81160853D01*
X149132481Y-81253985D01*
X149251015Y-81372519D01*
X149344147Y-81511900D01*
X149408297Y-81666772D01*
X149441000Y-81831184D01*
X149441000Y-81998816D01*
X149408297Y-82163228D01*
X149344147Y-82318100D01*
X149251015Y-82457481D01*
X149132481Y-82576015D01*
X148993100Y-82669147D01*
X148838228Y-82733297D01*
X148673816Y-82766000D01*
X148506184Y-82766000D01*
X148341772Y-82733297D01*
X148186900Y-82669147D01*
X148047519Y-82576015D01*
X147928985Y-82457481D01*
X147835853Y-82318100D01*
X147771703Y-82163228D01*
X147739000Y-81998816D01*
X147739000Y-81831184D01*
X147771703Y-81666772D01*
X147835853Y-81511900D01*
X147928985Y-81372519D01*
X148047519Y-81253985D01*
X148186900Y-81160853D01*
X148341772Y-81096703D01*
X148506184Y-81064000D01*
X148673816Y-81064000D01*
X148838228Y-81096703D01*
G37*
G36*
X94250104Y-80389585D02*
G01*
X94418626Y-80459389D01*
X94570291Y-80560728D01*
X94699272Y-80689709D01*
X94800611Y-80841374D01*
X94870415Y-81009896D01*
X94906000Y-81188797D01*
X94906000Y-81371203D01*
X94870415Y-81550104D01*
X94800611Y-81718626D01*
X94699272Y-81870291D01*
X94570291Y-81999272D01*
X94418626Y-82100611D01*
X94250104Y-82170415D01*
X94071203Y-82206000D01*
X93888797Y-82206000D01*
X93709896Y-82170415D01*
X93541374Y-82100611D01*
X93389709Y-81999272D01*
X93260728Y-81870291D01*
X93159389Y-81718626D01*
X93089585Y-81550104D01*
X93054000Y-81371203D01*
X93054000Y-81188797D01*
X93089585Y-81009896D01*
X93159389Y-80841374D01*
X93260728Y-80689709D01*
X93389709Y-80560728D01*
X93541374Y-80459389D01*
X93709896Y-80389585D01*
X93888797Y-80354000D01*
X94071203Y-80354000D01*
X94250104Y-80389585D01*
G37*
G36*
X123460104Y-80389585D02*
G01*
X123628626Y-80459389D01*
X123780291Y-80560728D01*
X123909272Y-80689709D01*
X124010611Y-80841374D01*
X124080415Y-81009896D01*
X124116000Y-81188797D01*
X124116000Y-81371203D01*
X124080415Y-81550104D01*
X124010611Y-81718626D01*
X123909272Y-81870291D01*
X123780291Y-81999272D01*
X123628626Y-82100611D01*
X123460104Y-82170415D01*
X123281203Y-82206000D01*
X123098797Y-82206000D01*
X122919896Y-82170415D01*
X122751374Y-82100611D01*
X122599709Y-81999272D01*
X122470728Y-81870291D01*
X122369389Y-81718626D01*
X122299585Y-81550104D01*
X122264000Y-81371203D01*
X122264000Y-81188797D01*
X122299585Y-81009896D01*
X122369389Y-80841374D01*
X122470728Y-80689709D01*
X122599709Y-80560728D01*
X122751374Y-80459389D01*
X122919896Y-80389585D01*
X123098797Y-80354000D01*
X123281203Y-80354000D01*
X123460104Y-80389585D01*
G37*
G36*
X113300104Y-80389585D02*
G01*
X113468626Y-80459389D01*
X113620291Y-80560728D01*
X113749272Y-80689709D01*
X113850611Y-80841374D01*
X113920415Y-81009896D01*
X113956000Y-81188797D01*
X113956000Y-81371203D01*
X113920415Y-81550104D01*
X113850611Y-81718626D01*
X113749272Y-81870291D01*
X113620291Y-81999272D01*
X113468626Y-82100611D01*
X113300104Y-82170415D01*
X113121203Y-82206000D01*
X112938797Y-82206000D01*
X112759896Y-82170415D01*
X112591374Y-82100611D01*
X112439709Y-81999272D01*
X112310728Y-81870291D01*
X112209389Y-81718626D01*
X112139585Y-81550104D01*
X112104000Y-81371203D01*
X112104000Y-81188797D01*
X112139585Y-81009896D01*
X112209389Y-80841374D01*
X112310728Y-80689709D01*
X112439709Y-80560728D01*
X112591374Y-80459389D01*
X112759896Y-80389585D01*
X112938797Y-80354000D01*
X113121203Y-80354000D01*
X113300104Y-80389585D01*
G37*
G36*
X85360104Y-80389585D02*
G01*
X85528626Y-80459389D01*
X85680291Y-80560728D01*
X85809272Y-80689709D01*
X85910611Y-80841374D01*
X85980415Y-81009896D01*
X86016000Y-81188797D01*
X86016000Y-81371203D01*
X85980415Y-81550104D01*
X85910611Y-81718626D01*
X85809272Y-81870291D01*
X85680291Y-81999272D01*
X85528626Y-82100611D01*
X85360104Y-82170415D01*
X85181203Y-82206000D01*
X84998797Y-82206000D01*
X84819896Y-82170415D01*
X84651374Y-82100611D01*
X84499709Y-81999272D01*
X84370728Y-81870291D01*
X84269389Y-81718626D01*
X84199585Y-81550104D01*
X84164000Y-81371203D01*
X84164000Y-81188797D01*
X84199585Y-81009896D01*
X84269389Y-80841374D01*
X84370728Y-80689709D01*
X84499709Y-80560728D01*
X84651374Y-80459389D01*
X84819896Y-80389585D01*
X84998797Y-80354000D01*
X85181203Y-80354000D01*
X85360104Y-80389585D01*
G37*
G36*
X75200104Y-80389585D02*
G01*
X75368626Y-80459389D01*
X75520291Y-80560728D01*
X75649272Y-80689709D01*
X75750611Y-80841374D01*
X75820415Y-81009896D01*
X75856000Y-81188797D01*
X75856000Y-81371203D01*
X75820415Y-81550104D01*
X75750611Y-81718626D01*
X75649272Y-81870291D01*
X75520291Y-81999272D01*
X75368626Y-82100611D01*
X75200104Y-82170415D01*
X75021203Y-82206000D01*
X74838797Y-82206000D01*
X74659896Y-82170415D01*
X74491374Y-82100611D01*
X74339709Y-81999272D01*
X74210728Y-81870291D01*
X74109389Y-81718626D01*
X74039585Y-81550104D01*
X74004000Y-81371203D01*
X74004000Y-81188797D01*
X74039585Y-81009896D01*
X74109389Y-80841374D01*
X74210728Y-80689709D01*
X74339709Y-80560728D01*
X74491374Y-80459389D01*
X74659896Y-80389585D01*
X74838797Y-80354000D01*
X75021203Y-80354000D01*
X75200104Y-80389585D01*
G37*
G36*
X132350104Y-80389585D02*
G01*
X132518626Y-80459389D01*
X132670291Y-80560728D01*
X132799272Y-80689709D01*
X132900611Y-80841374D01*
X132970415Y-81009896D01*
X133006000Y-81188797D01*
X133006000Y-81371203D01*
X132970415Y-81550104D01*
X132900611Y-81718626D01*
X132799272Y-81870291D01*
X132670291Y-81999272D01*
X132518626Y-82100611D01*
X132350104Y-82170415D01*
X132171203Y-82206000D01*
X131988797Y-82206000D01*
X131809896Y-82170415D01*
X131641374Y-82100611D01*
X131489709Y-81999272D01*
X131360728Y-81870291D01*
X131259389Y-81718626D01*
X131189585Y-81550104D01*
X131154000Y-81371203D01*
X131154000Y-81188797D01*
X131189585Y-81009896D01*
X131259389Y-80841374D01*
X131360728Y-80689709D01*
X131489709Y-80560728D01*
X131641374Y-80459389D01*
X131809896Y-80389585D01*
X131988797Y-80354000D01*
X132171203Y-80354000D01*
X132350104Y-80389585D01*
G37*
G36*
X142510104Y-80389585D02*
G01*
X142678626Y-80459389D01*
X142830291Y-80560728D01*
X142959272Y-80689709D01*
X143060611Y-80841374D01*
X143130415Y-81009896D01*
X143166000Y-81188797D01*
X143166000Y-81371203D01*
X143130415Y-81550104D01*
X143060611Y-81718626D01*
X142959272Y-81870291D01*
X142830291Y-81999272D01*
X142678626Y-82100611D01*
X142510104Y-82170415D01*
X142331203Y-82206000D01*
X142148797Y-82206000D01*
X141969896Y-82170415D01*
X141801374Y-82100611D01*
X141649709Y-81999272D01*
X141520728Y-81870291D01*
X141419389Y-81718626D01*
X141349585Y-81550104D01*
X141314000Y-81371203D01*
X141314000Y-81188797D01*
X141349585Y-81009896D01*
X141419389Y-80841374D01*
X141520728Y-80689709D01*
X141649709Y-80560728D01*
X141801374Y-80459389D01*
X141969896Y-80389585D01*
X142148797Y-80354000D01*
X142331203Y-80354000D01*
X142510104Y-80389585D01*
G37*
G36*
X104410104Y-80389585D02*
G01*
X104578626Y-80459389D01*
X104730291Y-80560728D01*
X104859272Y-80689709D01*
X104960611Y-80841374D01*
X105030415Y-81009896D01*
X105066000Y-81188797D01*
X105066000Y-81371203D01*
X105030415Y-81550104D01*
X104960611Y-81718626D01*
X104859272Y-81870291D01*
X104730291Y-81999272D01*
X104578626Y-82100611D01*
X104410104Y-82170415D01*
X104231203Y-82206000D01*
X104048797Y-82206000D01*
X103869896Y-82170415D01*
X103701374Y-82100611D01*
X103549709Y-81999272D01*
X103420728Y-81870291D01*
X103319389Y-81718626D01*
X103249585Y-81550104D01*
X103214000Y-81371203D01*
X103214000Y-81188797D01*
X103249585Y-81009896D01*
X103319389Y-80841374D01*
X103420728Y-80689709D01*
X103549709Y-80560728D01*
X103701374Y-80459389D01*
X103869896Y-80389585D01*
X104048797Y-80354000D01*
X104231203Y-80354000D01*
X104410104Y-80389585D01*
G37*
G36*
X164078228Y-78556703D02*
G01*
X164233100Y-78620853D01*
X164372481Y-78713985D01*
X164491015Y-78832519D01*
X164584147Y-78971900D01*
X164648297Y-79126772D01*
X164681000Y-79291184D01*
X164681000Y-79458816D01*
X164648297Y-79623228D01*
X164584147Y-79778100D01*
X164491015Y-79917481D01*
X164372481Y-80036015D01*
X164233100Y-80129147D01*
X164078228Y-80193297D01*
X163913816Y-80226000D01*
X163746184Y-80226000D01*
X163581772Y-80193297D01*
X163426900Y-80129147D01*
X163287519Y-80036015D01*
X163168985Y-79917481D01*
X163075853Y-79778100D01*
X163011703Y-79623228D01*
X162979000Y-79458816D01*
X162979000Y-79291184D01*
X163011703Y-79126772D01*
X163075853Y-78971900D01*
X163168985Y-78832519D01*
X163287519Y-78713985D01*
X163426900Y-78620853D01*
X163581772Y-78556703D01*
X163746184Y-78524000D01*
X163913816Y-78524000D01*
X164078228Y-78556703D01*
G37*
G36*
X148838228Y-78556703D02*
G01*
X148993100Y-78620853D01*
X149132481Y-78713985D01*
X149251015Y-78832519D01*
X149344147Y-78971900D01*
X149408297Y-79126772D01*
X149441000Y-79291184D01*
X149441000Y-79458816D01*
X149408297Y-79623228D01*
X149344147Y-79778100D01*
X149251015Y-79917481D01*
X149132481Y-80036015D01*
X148993100Y-80129147D01*
X148838228Y-80193297D01*
X148673816Y-80226000D01*
X148506184Y-80226000D01*
X148341772Y-80193297D01*
X148186900Y-80129147D01*
X148047519Y-80036015D01*
X147928985Y-79917481D01*
X147835853Y-79778100D01*
X147771703Y-79623228D01*
X147739000Y-79458816D01*
X147739000Y-79291184D01*
X147771703Y-79126772D01*
X147835853Y-78971900D01*
X147928985Y-78832519D01*
X148047519Y-78713985D01*
X148186900Y-78620853D01*
X148341772Y-78556703D01*
X148506184Y-78524000D01*
X148673816Y-78524000D01*
X148838228Y-78556703D01*
G37*
G36*
X133541560Y-77579064D02*
G01*
X133693027Y-77609193D01*
X133907045Y-77697842D01*
X133907046Y-77697843D01*
X134099654Y-77826539D01*
X134263461Y-77990346D01*
X134349258Y-78118751D01*
X134392158Y-78182955D01*
X134480807Y-78396973D01*
X134480807Y-78396975D01*
X134525340Y-78620853D01*
X134526000Y-78624174D01*
X134526000Y-78855826D01*
X134480807Y-79083027D01*
X134392158Y-79297045D01*
X134392157Y-79297046D01*
X134263461Y-79489654D01*
X134099654Y-79653461D01*
X134042540Y-79691623D01*
X133907045Y-79782158D01*
X133693027Y-79870807D01*
X133541560Y-79900936D01*
X133465827Y-79916000D01*
X133234173Y-79916000D01*
X133158440Y-79900936D01*
X133006973Y-79870807D01*
X132792955Y-79782158D01*
X132657460Y-79691623D01*
X132600346Y-79653461D01*
X132436539Y-79489654D01*
X132307843Y-79297046D01*
X132307842Y-79297045D01*
X132219193Y-79083027D01*
X132174000Y-78855826D01*
X132174000Y-78624174D01*
X132174661Y-78620853D01*
X132219193Y-78396975D01*
X132219193Y-78396973D01*
X132307842Y-78182955D01*
X132350742Y-78118751D01*
X132436539Y-77990346D01*
X132600346Y-77826539D01*
X132792954Y-77697843D01*
X132792955Y-77697842D01*
X133006973Y-77609193D01*
X133158440Y-77579064D01*
X133234173Y-77564000D01*
X133465827Y-77564000D01*
X133541560Y-77579064D01*
G37*
G36*
X76391560Y-77579064D02*
G01*
X76543027Y-77609193D01*
X76757045Y-77697842D01*
X76757046Y-77697843D01*
X76949654Y-77826539D01*
X77113461Y-77990346D01*
X77199258Y-78118751D01*
X77242158Y-78182955D01*
X77330807Y-78396973D01*
X77330807Y-78396975D01*
X77375340Y-78620853D01*
X77376000Y-78624174D01*
X77376000Y-78855826D01*
X77330807Y-79083027D01*
X77242158Y-79297045D01*
X77242157Y-79297046D01*
X77113461Y-79489654D01*
X76949654Y-79653461D01*
X76892540Y-79691623D01*
X76757045Y-79782158D01*
X76543027Y-79870807D01*
X76391560Y-79900936D01*
X76315827Y-79916000D01*
X76084173Y-79916000D01*
X76008440Y-79900936D01*
X75856973Y-79870807D01*
X75642955Y-79782158D01*
X75507460Y-79691623D01*
X75450346Y-79653461D01*
X75286539Y-79489654D01*
X75157843Y-79297046D01*
X75157842Y-79297045D01*
X75069193Y-79083027D01*
X75024000Y-78855826D01*
X75024000Y-78624174D01*
X75024661Y-78620853D01*
X75069193Y-78396975D01*
X75069193Y-78396973D01*
X75157842Y-78182955D01*
X75200742Y-78118751D01*
X75286539Y-77990346D01*
X75450346Y-77826539D01*
X75642954Y-77697843D01*
X75642955Y-77697842D01*
X75856973Y-77609193D01*
X76008440Y-77579064D01*
X76084173Y-77564000D01*
X76315827Y-77564000D01*
X76391560Y-77579064D01*
G37*
G36*
X114491560Y-77579064D02*
G01*
X114643027Y-77609193D01*
X114857045Y-77697842D01*
X114857046Y-77697843D01*
X115049654Y-77826539D01*
X115213461Y-77990346D01*
X115299258Y-78118751D01*
X115342158Y-78182955D01*
X115430807Y-78396973D01*
X115430807Y-78396975D01*
X115475340Y-78620853D01*
X115476000Y-78624174D01*
X115476000Y-78855826D01*
X115430807Y-79083027D01*
X115342158Y-79297045D01*
X115342157Y-79297046D01*
X115213461Y-79489654D01*
X115049654Y-79653461D01*
X114992540Y-79691623D01*
X114857045Y-79782158D01*
X114643027Y-79870807D01*
X114491560Y-79900936D01*
X114415827Y-79916000D01*
X114184173Y-79916000D01*
X114108440Y-79900936D01*
X113956973Y-79870807D01*
X113742955Y-79782158D01*
X113607460Y-79691623D01*
X113550346Y-79653461D01*
X113386539Y-79489654D01*
X113257843Y-79297046D01*
X113257842Y-79297045D01*
X113169193Y-79083027D01*
X113124000Y-78855826D01*
X113124000Y-78624174D01*
X113124661Y-78620853D01*
X113169193Y-78396975D01*
X113169193Y-78396973D01*
X113257842Y-78182955D01*
X113300742Y-78118751D01*
X113386539Y-77990346D01*
X113550346Y-77826539D01*
X113742954Y-77697843D01*
X113742955Y-77697842D01*
X113956973Y-77609193D01*
X114108440Y-77579064D01*
X114184173Y-77564000D01*
X114415827Y-77564000D01*
X114491560Y-77579064D01*
G37*
G36*
X95441560Y-77579064D02*
G01*
X95593027Y-77609193D01*
X95807045Y-77697842D01*
X95807046Y-77697843D01*
X95999654Y-77826539D01*
X96163461Y-77990346D01*
X96249258Y-78118751D01*
X96292158Y-78182955D01*
X96380807Y-78396973D01*
X96380807Y-78396975D01*
X96425340Y-78620853D01*
X96426000Y-78624174D01*
X96426000Y-78855826D01*
X96380807Y-79083027D01*
X96292158Y-79297045D01*
X96292157Y-79297046D01*
X96163461Y-79489654D01*
X95999654Y-79653461D01*
X95942540Y-79691623D01*
X95807045Y-79782158D01*
X95593027Y-79870807D01*
X95441560Y-79900936D01*
X95365827Y-79916000D01*
X95134173Y-79916000D01*
X95058440Y-79900936D01*
X94906973Y-79870807D01*
X94692955Y-79782158D01*
X94557460Y-79691623D01*
X94500346Y-79653461D01*
X94336539Y-79489654D01*
X94207843Y-79297046D01*
X94207842Y-79297045D01*
X94119193Y-79083027D01*
X94074000Y-78855826D01*
X94074000Y-78624174D01*
X94074661Y-78620853D01*
X94119193Y-78396975D01*
X94119193Y-78396973D01*
X94207842Y-78182955D01*
X94250742Y-78118751D01*
X94336539Y-77990346D01*
X94500346Y-77826539D01*
X94692954Y-77697843D01*
X94692955Y-77697842D01*
X94906973Y-77609193D01*
X95058440Y-77579064D01*
X95134173Y-77564000D01*
X95365827Y-77564000D01*
X95441560Y-77579064D01*
G37*
G36*
X148838228Y-76016703D02*
G01*
X148993100Y-76080853D01*
X149132481Y-76173985D01*
X149251015Y-76292519D01*
X149344147Y-76431900D01*
X149408297Y-76586772D01*
X149441000Y-76751184D01*
X149441000Y-76918816D01*
X149408297Y-77083228D01*
X149344147Y-77238100D01*
X149251015Y-77377481D01*
X149132481Y-77496015D01*
X148993100Y-77589147D01*
X148838228Y-77653297D01*
X148673816Y-77686000D01*
X148506184Y-77686000D01*
X148341772Y-77653297D01*
X148186900Y-77589147D01*
X148047519Y-77496015D01*
X147928985Y-77377481D01*
X147835853Y-77238100D01*
X147771703Y-77083228D01*
X147739000Y-76918816D01*
X147739000Y-76751184D01*
X147771703Y-76586772D01*
X147835853Y-76431900D01*
X147928985Y-76292519D01*
X148047519Y-76173985D01*
X148186900Y-76080853D01*
X148341772Y-76016703D01*
X148506184Y-75984000D01*
X148673816Y-75984000D01*
X148838228Y-76016703D01*
G37*
G36*
X164078228Y-76016703D02*
G01*
X164233100Y-76080853D01*
X164372481Y-76173985D01*
X164491015Y-76292519D01*
X164584147Y-76431900D01*
X164648297Y-76586772D01*
X164681000Y-76751184D01*
X164681000Y-76918816D01*
X164648297Y-77083228D01*
X164584147Y-77238100D01*
X164491015Y-77377481D01*
X164372481Y-77496015D01*
X164233100Y-77589147D01*
X164078228Y-77653297D01*
X163913816Y-77686000D01*
X163746184Y-77686000D01*
X163581772Y-77653297D01*
X163426900Y-77589147D01*
X163287519Y-77496015D01*
X163168985Y-77377481D01*
X163075853Y-77238100D01*
X163011703Y-77083228D01*
X162979000Y-76918816D01*
X162979000Y-76751184D01*
X163011703Y-76586772D01*
X163075853Y-76431900D01*
X163168985Y-76292519D01*
X163287519Y-76173985D01*
X163426900Y-76080853D01*
X163581772Y-76016703D01*
X163746184Y-75984000D01*
X163913816Y-75984000D01*
X164078228Y-76016703D01*
G37*
G36*
X139891560Y-75039064D02*
G01*
X140043027Y-75069193D01*
X140257045Y-75157842D01*
X140257046Y-75157843D01*
X140449654Y-75286539D01*
X140613461Y-75450346D01*
X140672687Y-75538985D01*
X140742158Y-75642955D01*
X140830807Y-75856973D01*
X140830807Y-75856975D01*
X140875340Y-76080853D01*
X140876000Y-76084174D01*
X140876000Y-76315826D01*
X140830807Y-76543027D01*
X140742158Y-76757045D01*
X140742157Y-76757046D01*
X140613461Y-76949654D01*
X140449654Y-77113461D01*
X140321249Y-77199258D01*
X140257045Y-77242158D01*
X140043027Y-77330807D01*
X139891560Y-77360936D01*
X139815827Y-77376000D01*
X139584173Y-77376000D01*
X139508440Y-77360936D01*
X139356973Y-77330807D01*
X139142955Y-77242158D01*
X139078751Y-77199258D01*
X138950346Y-77113461D01*
X138786539Y-76949654D01*
X138657843Y-76757046D01*
X138657842Y-76757045D01*
X138569193Y-76543027D01*
X138524000Y-76315826D01*
X138524000Y-76084174D01*
X138524661Y-76080853D01*
X138569193Y-75856975D01*
X138569193Y-75856973D01*
X138657842Y-75642955D01*
X138727313Y-75538985D01*
X138786539Y-75450346D01*
X138950346Y-75286539D01*
X139142954Y-75157843D01*
X139142955Y-75157842D01*
X139356973Y-75069193D01*
X139508440Y-75039064D01*
X139584173Y-75024000D01*
X139815827Y-75024000D01*
X139891560Y-75039064D01*
G37*
G36*
X120841560Y-75039064D02*
G01*
X120993027Y-75069193D01*
X121207045Y-75157842D01*
X121207046Y-75157843D01*
X121399654Y-75286539D01*
X121563461Y-75450346D01*
X121622687Y-75538985D01*
X121692158Y-75642955D01*
X121780807Y-75856973D01*
X121780807Y-75856975D01*
X121825340Y-76080853D01*
X121826000Y-76084174D01*
X121826000Y-76315826D01*
X121780807Y-76543027D01*
X121692158Y-76757045D01*
X121692157Y-76757046D01*
X121563461Y-76949654D01*
X121399654Y-77113461D01*
X121271249Y-77199258D01*
X121207045Y-77242158D01*
X120993027Y-77330807D01*
X120841560Y-77360936D01*
X120765827Y-77376000D01*
X120534173Y-77376000D01*
X120458440Y-77360936D01*
X120306973Y-77330807D01*
X120092955Y-77242158D01*
X120028751Y-77199258D01*
X119900346Y-77113461D01*
X119736539Y-76949654D01*
X119607843Y-76757046D01*
X119607842Y-76757045D01*
X119519193Y-76543027D01*
X119474000Y-76315826D01*
X119474000Y-76084174D01*
X119474661Y-76080853D01*
X119519193Y-75856975D01*
X119519193Y-75856973D01*
X119607842Y-75642955D01*
X119677313Y-75538985D01*
X119736539Y-75450346D01*
X119900346Y-75286539D01*
X120092954Y-75157843D01*
X120092955Y-75157842D01*
X120306973Y-75069193D01*
X120458440Y-75039064D01*
X120534173Y-75024000D01*
X120765827Y-75024000D01*
X120841560Y-75039064D01*
G37*
G36*
X101791560Y-75039064D02*
G01*
X101943027Y-75069193D01*
X102157045Y-75157842D01*
X102157046Y-75157843D01*
X102349654Y-75286539D01*
X102513461Y-75450346D01*
X102572687Y-75538985D01*
X102642158Y-75642955D01*
X102730807Y-75856973D01*
X102730807Y-75856975D01*
X102775340Y-76080853D01*
X102776000Y-76084174D01*
X102776000Y-76315826D01*
X102730807Y-76543027D01*
X102642158Y-76757045D01*
X102642157Y-76757046D01*
X102513461Y-76949654D01*
X102349654Y-77113461D01*
X102221249Y-77199258D01*
X102157045Y-77242158D01*
X101943027Y-77330807D01*
X101791560Y-77360936D01*
X101715827Y-77376000D01*
X101484173Y-77376000D01*
X101408440Y-77360936D01*
X101256973Y-77330807D01*
X101042955Y-77242158D01*
X100978751Y-77199258D01*
X100850346Y-77113461D01*
X100686539Y-76949654D01*
X100557843Y-76757046D01*
X100557842Y-76757045D01*
X100469193Y-76543027D01*
X100424000Y-76315826D01*
X100424000Y-76084174D01*
X100424661Y-76080853D01*
X100469193Y-75856975D01*
X100469193Y-75856973D01*
X100557842Y-75642955D01*
X100627313Y-75538985D01*
X100686539Y-75450346D01*
X100850346Y-75286539D01*
X101042954Y-75157843D01*
X101042955Y-75157842D01*
X101256973Y-75069193D01*
X101408440Y-75039064D01*
X101484173Y-75024000D01*
X101715827Y-75024000D01*
X101791560Y-75039064D01*
G37*
G36*
X82741560Y-75039064D02*
G01*
X82893027Y-75069193D01*
X83107045Y-75157842D01*
X83107046Y-75157843D01*
X83299654Y-75286539D01*
X83463461Y-75450346D01*
X83522687Y-75538985D01*
X83592158Y-75642955D01*
X83680807Y-75856973D01*
X83680807Y-75856975D01*
X83725340Y-76080853D01*
X83726000Y-76084174D01*
X83726000Y-76315826D01*
X83680807Y-76543027D01*
X83592158Y-76757045D01*
X83592157Y-76757046D01*
X83463461Y-76949654D01*
X83299654Y-77113461D01*
X83171249Y-77199258D01*
X83107045Y-77242158D01*
X82893027Y-77330807D01*
X82741560Y-77360936D01*
X82665827Y-77376000D01*
X82434173Y-77376000D01*
X82358440Y-77360936D01*
X82206973Y-77330807D01*
X81992955Y-77242158D01*
X81928751Y-77199258D01*
X81800346Y-77113461D01*
X81636539Y-76949654D01*
X81507843Y-76757046D01*
X81507842Y-76757045D01*
X81419193Y-76543027D01*
X81374000Y-76315826D01*
X81374000Y-76084174D01*
X81374661Y-76080853D01*
X81419193Y-75856975D01*
X81419193Y-75856973D01*
X81507842Y-75642955D01*
X81577313Y-75538985D01*
X81636539Y-75450346D01*
X81800346Y-75286539D01*
X81992954Y-75157843D01*
X81992955Y-75157842D01*
X82206973Y-75069193D01*
X82358440Y-75039064D01*
X82434173Y-75024000D01*
X82665827Y-75024000D01*
X82741560Y-75039064D01*
G37*
G36*
X88513228Y-75381703D02*
G01*
X88668100Y-75445853D01*
X88807481Y-75538985D01*
X88926015Y-75657519D01*
X89019147Y-75796900D01*
X89083297Y-75951772D01*
X89116000Y-76116184D01*
X89116000Y-76283816D01*
X89083297Y-76448228D01*
X89019147Y-76603100D01*
X88926015Y-76742481D01*
X88807481Y-76861015D01*
X88668100Y-76954147D01*
X88513228Y-77018297D01*
X88348816Y-77051000D01*
X88181184Y-77051000D01*
X88016772Y-77018297D01*
X87861900Y-76954147D01*
X87722519Y-76861015D01*
X87603985Y-76742481D01*
X87510853Y-76603100D01*
X87446703Y-76448228D01*
X87414000Y-76283816D01*
X87414000Y-76116184D01*
X87446703Y-75951772D01*
X87510853Y-75796900D01*
X87603985Y-75657519D01*
X87722519Y-75538985D01*
X87861900Y-75445853D01*
X88016772Y-75381703D01*
X88181184Y-75349000D01*
X88348816Y-75349000D01*
X88513228Y-75381703D01*
G37*
G36*
X145663228Y-75381703D02*
G01*
X145818100Y-75445853D01*
X145957481Y-75538985D01*
X146076015Y-75657519D01*
X146169147Y-75796900D01*
X146233297Y-75951772D01*
X146266000Y-76116184D01*
X146266000Y-76283816D01*
X146233297Y-76448228D01*
X146169147Y-76603100D01*
X146076015Y-76742481D01*
X145957481Y-76861015D01*
X145818100Y-76954147D01*
X145663228Y-77018297D01*
X145498816Y-77051000D01*
X145331184Y-77051000D01*
X145166772Y-77018297D01*
X145011900Y-76954147D01*
X144872519Y-76861015D01*
X144753985Y-76742481D01*
X144660853Y-76603100D01*
X144596703Y-76448228D01*
X144564000Y-76283816D01*
X144564000Y-76116184D01*
X144596703Y-75951772D01*
X144660853Y-75796900D01*
X144753985Y-75657519D01*
X144872519Y-75538985D01*
X145011900Y-75445853D01*
X145166772Y-75381703D01*
X145331184Y-75349000D01*
X145498816Y-75349000D01*
X145663228Y-75381703D01*
G37*
G36*
X126613228Y-75381703D02*
G01*
X126768100Y-75445853D01*
X126907481Y-75538985D01*
X127026015Y-75657519D01*
X127119147Y-75796900D01*
X127183297Y-75951772D01*
X127216000Y-76116184D01*
X127216000Y-76283816D01*
X127183297Y-76448228D01*
X127119147Y-76603100D01*
X127026015Y-76742481D01*
X126907481Y-76861015D01*
X126768100Y-76954147D01*
X126613228Y-77018297D01*
X126448816Y-77051000D01*
X126281184Y-77051000D01*
X126116772Y-77018297D01*
X125961900Y-76954147D01*
X125822519Y-76861015D01*
X125703985Y-76742481D01*
X125610853Y-76603100D01*
X125546703Y-76448228D01*
X125514000Y-76283816D01*
X125514000Y-76116184D01*
X125546703Y-75951772D01*
X125610853Y-75796900D01*
X125703985Y-75657519D01*
X125822519Y-75538985D01*
X125961900Y-75445853D01*
X126116772Y-75381703D01*
X126281184Y-75349000D01*
X126448816Y-75349000D01*
X126613228Y-75381703D01*
G37*
G36*
X107563228Y-75381703D02*
G01*
X107718100Y-75445853D01*
X107857481Y-75538985D01*
X107976015Y-75657519D01*
X108069147Y-75796900D01*
X108133297Y-75951772D01*
X108166000Y-76116184D01*
X108166000Y-76283816D01*
X108133297Y-76448228D01*
X108069147Y-76603100D01*
X107976015Y-76742481D01*
X107857481Y-76861015D01*
X107718100Y-76954147D01*
X107563228Y-77018297D01*
X107398816Y-77051000D01*
X107231184Y-77051000D01*
X107066772Y-77018297D01*
X106911900Y-76954147D01*
X106772519Y-76861015D01*
X106653985Y-76742481D01*
X106560853Y-76603100D01*
X106496703Y-76448228D01*
X106464000Y-76283816D01*
X106464000Y-76116184D01*
X106496703Y-75951772D01*
X106560853Y-75796900D01*
X106653985Y-75657519D01*
X106772519Y-75538985D01*
X106911900Y-75445853D01*
X107066772Y-75381703D01*
X107231184Y-75349000D01*
X107398816Y-75349000D01*
X107563228Y-75381703D01*
G37*
G36*
X148838228Y-73476703D02*
G01*
X148993100Y-73540853D01*
X149132481Y-73633985D01*
X149251015Y-73752519D01*
X149344147Y-73891900D01*
X149408297Y-74046772D01*
X149441000Y-74211184D01*
X149441000Y-74378816D01*
X149408297Y-74543228D01*
X149344147Y-74698100D01*
X149251015Y-74837481D01*
X149132481Y-74956015D01*
X148993100Y-75049147D01*
X148838228Y-75113297D01*
X148673816Y-75146000D01*
X148506184Y-75146000D01*
X148341772Y-75113297D01*
X148186900Y-75049147D01*
X148047519Y-74956015D01*
X147928985Y-74837481D01*
X147835853Y-74698100D01*
X147771703Y-74543228D01*
X147739000Y-74378816D01*
X147739000Y-74211184D01*
X147771703Y-74046772D01*
X147835853Y-73891900D01*
X147928985Y-73752519D01*
X148047519Y-73633985D01*
X148186900Y-73540853D01*
X148341772Y-73476703D01*
X148506184Y-73444000D01*
X148673816Y-73444000D01*
X148838228Y-73476703D01*
G37*
G36*
X164078228Y-73476703D02*
G01*
X164233100Y-73540853D01*
X164372481Y-73633985D01*
X164491015Y-73752519D01*
X164584147Y-73891900D01*
X164648297Y-74046772D01*
X164681000Y-74211184D01*
X164681000Y-74378816D01*
X164648297Y-74543228D01*
X164584147Y-74698100D01*
X164491015Y-74837481D01*
X164372481Y-74956015D01*
X164233100Y-75049147D01*
X164078228Y-75113297D01*
X163913816Y-75146000D01*
X163746184Y-75146000D01*
X163581772Y-75113297D01*
X163426900Y-75049147D01*
X163287519Y-74956015D01*
X163168985Y-74837481D01*
X163075853Y-74698100D01*
X163011703Y-74543228D01*
X162979000Y-74378816D01*
X162979000Y-74211184D01*
X163011703Y-74046772D01*
X163075853Y-73891900D01*
X163168985Y-73752519D01*
X163287519Y-73633985D01*
X163426900Y-73540853D01*
X163581772Y-73476703D01*
X163746184Y-73444000D01*
X163913816Y-73444000D01*
X164078228Y-73476703D01*
G37*
G36*
X164078228Y-70936703D02*
G01*
X164233100Y-71000853D01*
X164372481Y-71093985D01*
X164491015Y-71212519D01*
X164584147Y-71351900D01*
X164648297Y-71506772D01*
X164681000Y-71671184D01*
X164681000Y-71838816D01*
X164648297Y-72003228D01*
X164584147Y-72158100D01*
X164491015Y-72297481D01*
X164372481Y-72416015D01*
X164233100Y-72509147D01*
X164078228Y-72573297D01*
X163913816Y-72606000D01*
X163746184Y-72606000D01*
X163581772Y-72573297D01*
X163426900Y-72509147D01*
X163287519Y-72416015D01*
X163168985Y-72297481D01*
X163075853Y-72158100D01*
X163011703Y-72003228D01*
X162979000Y-71838816D01*
X162979000Y-71671184D01*
X163011703Y-71506772D01*
X163075853Y-71351900D01*
X163168985Y-71212519D01*
X163287519Y-71093985D01*
X163426900Y-71000853D01*
X163581772Y-70936703D01*
X163746184Y-70904000D01*
X163913816Y-70904000D01*
X164078228Y-70936703D01*
G37*
G36*
X148838228Y-70936703D02*
G01*
X148993100Y-71000853D01*
X149132481Y-71093985D01*
X149251015Y-71212519D01*
X149344147Y-71351900D01*
X149408297Y-71506772D01*
X149441000Y-71671184D01*
X149441000Y-71838816D01*
X149408297Y-72003228D01*
X149344147Y-72158100D01*
X149251015Y-72297481D01*
X149132481Y-72416015D01*
X148993100Y-72509147D01*
X148838228Y-72573297D01*
X148673816Y-72606000D01*
X148506184Y-72606000D01*
X148341772Y-72573297D01*
X148186900Y-72509147D01*
X148047519Y-72416015D01*
X147928985Y-72297481D01*
X147835853Y-72158100D01*
X147771703Y-72003228D01*
X147739000Y-71838816D01*
X147739000Y-71671184D01*
X147771703Y-71506772D01*
X147835853Y-71351900D01*
X147928985Y-71212519D01*
X148047519Y-71093985D01*
X148186900Y-71000853D01*
X148341772Y-70936703D01*
X148506184Y-70904000D01*
X148673816Y-70904000D01*
X148838228Y-70936703D01*
G37*
G36*
X164078228Y-68396703D02*
G01*
X164233100Y-68460853D01*
X164372481Y-68553985D01*
X164491015Y-68672519D01*
X164584147Y-68811900D01*
X164648297Y-68966772D01*
X164681000Y-69131184D01*
X164681000Y-69298816D01*
X164648297Y-69463228D01*
X164584147Y-69618100D01*
X164491015Y-69757481D01*
X164372481Y-69876015D01*
X164233100Y-69969147D01*
X164078228Y-70033297D01*
X163913816Y-70066000D01*
X163746184Y-70066000D01*
X163581772Y-70033297D01*
X163426900Y-69969147D01*
X163287519Y-69876015D01*
X163168985Y-69757481D01*
X163075853Y-69618100D01*
X163011703Y-69463228D01*
X162979000Y-69298816D01*
X162979000Y-69131184D01*
X163011703Y-68966772D01*
X163075853Y-68811900D01*
X163168985Y-68672519D01*
X163287519Y-68553985D01*
X163426900Y-68460853D01*
X163581772Y-68396703D01*
X163746184Y-68364000D01*
X163913816Y-68364000D01*
X164078228Y-68396703D01*
G37*
G36*
X148838228Y-68396703D02*
G01*
X148993100Y-68460853D01*
X149132481Y-68553985D01*
X149251015Y-68672519D01*
X149344147Y-68811900D01*
X149408297Y-68966772D01*
X149441000Y-69131184D01*
X149441000Y-69298816D01*
X149408297Y-69463228D01*
X149344147Y-69618100D01*
X149251015Y-69757481D01*
X149132481Y-69876015D01*
X148993100Y-69969147D01*
X148838228Y-70033297D01*
X148673816Y-70066000D01*
X148506184Y-70066000D01*
X148341772Y-70033297D01*
X148186900Y-69969147D01*
X148047519Y-69876015D01*
X147928985Y-69757481D01*
X147835853Y-69618100D01*
X147771703Y-69463228D01*
X147739000Y-69298816D01*
X147739000Y-69131184D01*
X147771703Y-68966772D01*
X147835853Y-68811900D01*
X147928985Y-68672519D01*
X148047519Y-68553985D01*
X148186900Y-68460853D01*
X148341772Y-68396703D01*
X148506184Y-68364000D01*
X148673816Y-68364000D01*
X148838228Y-68396703D01*
G37*
G36*
X164078228Y-65856703D02*
G01*
X164233100Y-65920853D01*
X164372481Y-66013985D01*
X164491015Y-66132519D01*
X164584147Y-66271900D01*
X164648297Y-66426772D01*
X164681000Y-66591184D01*
X164681000Y-66758816D01*
X164648297Y-66923228D01*
X164584147Y-67078100D01*
X164491015Y-67217481D01*
X164372481Y-67336015D01*
X164233100Y-67429147D01*
X164078228Y-67493297D01*
X163913816Y-67526000D01*
X163746184Y-67526000D01*
X163581772Y-67493297D01*
X163426900Y-67429147D01*
X163287519Y-67336015D01*
X163168985Y-67217481D01*
X163075853Y-67078100D01*
X163011703Y-66923228D01*
X162979000Y-66758816D01*
X162979000Y-66591184D01*
X163011703Y-66426772D01*
X163075853Y-66271900D01*
X163168985Y-66132519D01*
X163287519Y-66013985D01*
X163426900Y-65920853D01*
X163581772Y-65856703D01*
X163746184Y-65824000D01*
X163913816Y-65824000D01*
X164078228Y-65856703D01*
G37*
G36*
X148838228Y-65856703D02*
G01*
X148993100Y-65920853D01*
X149132481Y-66013985D01*
X149251015Y-66132519D01*
X149344147Y-66271900D01*
X149408297Y-66426772D01*
X149441000Y-66591184D01*
X149441000Y-66758816D01*
X149408297Y-66923228D01*
X149344147Y-67078100D01*
X149251015Y-67217481D01*
X149132481Y-67336015D01*
X148993100Y-67429147D01*
X148838228Y-67493297D01*
X148673816Y-67526000D01*
X148506184Y-67526000D01*
X148341772Y-67493297D01*
X148186900Y-67429147D01*
X148047519Y-67336015D01*
X147928985Y-67217481D01*
X147835853Y-67078100D01*
X147771703Y-66923228D01*
X147739000Y-66758816D01*
X147739000Y-66591184D01*
X147771703Y-66426772D01*
X147835853Y-66271900D01*
X147928985Y-66132519D01*
X148047519Y-66013985D01*
X148186900Y-65920853D01*
X148341772Y-65856703D01*
X148506184Y-65824000D01*
X148673816Y-65824000D01*
X148838228Y-65856703D01*
G37*
G36*
X89116000Y-65621000D02*
G01*
X87414000Y-65621000D01*
X87414000Y-63919000D01*
X89116000Y-63919000D01*
X89116000Y-65621000D01*
G37*
G36*
X108166000Y-65621000D02*
G01*
X106464000Y-65621000D01*
X106464000Y-63919000D01*
X108166000Y-63919000D01*
X108166000Y-65621000D01*
G37*
G36*
X127216000Y-65621000D02*
G01*
X125514000Y-65621000D01*
X125514000Y-63919000D01*
X127216000Y-63919000D01*
X127216000Y-65621000D01*
G37*
G36*
X146266000Y-65621000D02*
G01*
X144564000Y-65621000D01*
X144564000Y-63919000D01*
X146266000Y-63919000D01*
X146266000Y-65621000D01*
G37*
G36*
X164078228Y-63316703D02*
G01*
X164233100Y-63380853D01*
X164372481Y-63473985D01*
X164491015Y-63592519D01*
X164584147Y-63731900D01*
X164648297Y-63886772D01*
X164681000Y-64051184D01*
X164681000Y-64218816D01*
X164648297Y-64383228D01*
X164584147Y-64538100D01*
X164491015Y-64677481D01*
X164372481Y-64796015D01*
X164233100Y-64889147D01*
X164078228Y-64953297D01*
X163913816Y-64986000D01*
X163746184Y-64986000D01*
X163581772Y-64953297D01*
X163426900Y-64889147D01*
X163287519Y-64796015D01*
X163168985Y-64677481D01*
X163075853Y-64538100D01*
X163011703Y-64383228D01*
X162979000Y-64218816D01*
X162979000Y-64051184D01*
X163011703Y-63886772D01*
X163075853Y-63731900D01*
X163168985Y-63592519D01*
X163287519Y-63473985D01*
X163426900Y-63380853D01*
X163581772Y-63316703D01*
X163746184Y-63284000D01*
X163913816Y-63284000D01*
X164078228Y-63316703D01*
G37*
G36*
X148838228Y-63316703D02*
G01*
X148993100Y-63380853D01*
X149132481Y-63473985D01*
X149251015Y-63592519D01*
X149344147Y-63731900D01*
X149408297Y-63886772D01*
X149441000Y-64051184D01*
X149441000Y-64218816D01*
X149408297Y-64383228D01*
X149344147Y-64538100D01*
X149251015Y-64677481D01*
X149132481Y-64796015D01*
X148993100Y-64889147D01*
X148838228Y-64953297D01*
X148673816Y-64986000D01*
X148506184Y-64986000D01*
X148341772Y-64953297D01*
X148186900Y-64889147D01*
X148047519Y-64796015D01*
X147928985Y-64677481D01*
X147835853Y-64538100D01*
X147771703Y-64383228D01*
X147739000Y-64218816D01*
X147739000Y-64051184D01*
X147771703Y-63886772D01*
X147835853Y-63731900D01*
X147928985Y-63592519D01*
X148047519Y-63473985D01*
X148186900Y-63380853D01*
X148341772Y-63316703D01*
X148506184Y-63284000D01*
X148673816Y-63284000D01*
X148838228Y-63316703D01*
G37*
G36*
X80606474Y-60263684D02*
G01*
X80824474Y-60353983D01*
X80978623Y-60417833D01*
X81313548Y-60641623D01*
X81598377Y-60926452D01*
X81822167Y-61261377D01*
X81883475Y-61409389D01*
X81976316Y-61633526D01*
X82054900Y-62028594D01*
X82054900Y-62431406D01*
X81976316Y-62826474D01*
X81925451Y-62949272D01*
X81822167Y-63198623D01*
X81598377Y-63533548D01*
X81313548Y-63818377D01*
X80978623Y-64042167D01*
X80824474Y-64106017D01*
X80606474Y-64196316D01*
X80211406Y-64274900D01*
X79808594Y-64274900D01*
X79413526Y-64196316D01*
X79195526Y-64106017D01*
X79041377Y-64042167D01*
X78706452Y-63818377D01*
X78421623Y-63533548D01*
X78197833Y-63198623D01*
X78094549Y-62949272D01*
X78043684Y-62826474D01*
X77965100Y-62431406D01*
X77965100Y-62028594D01*
X78043684Y-61633526D01*
X78136525Y-61409389D01*
X78197833Y-61261377D01*
X78421623Y-60926452D01*
X78706452Y-60641623D01*
X79041377Y-60417833D01*
X79195526Y-60353983D01*
X79413526Y-60263684D01*
X79808594Y-60185100D01*
X80211406Y-60185100D01*
X80606474Y-60263684D01*
G37*
G36*
X137756474Y-60263684D02*
G01*
X137974474Y-60353983D01*
X138128623Y-60417833D01*
X138463548Y-60641623D01*
X138748377Y-60926452D01*
X138972167Y-61261377D01*
X139033475Y-61409389D01*
X139126316Y-61633526D01*
X139204900Y-62028594D01*
X139204900Y-62431406D01*
X139126316Y-62826474D01*
X139075451Y-62949272D01*
X138972167Y-63198623D01*
X138748377Y-63533548D01*
X138463548Y-63818377D01*
X138128623Y-64042167D01*
X137974474Y-64106017D01*
X137756474Y-64196316D01*
X137361406Y-64274900D01*
X136958594Y-64274900D01*
X136563526Y-64196316D01*
X136345526Y-64106017D01*
X136191377Y-64042167D01*
X135856452Y-63818377D01*
X135571623Y-63533548D01*
X135347833Y-63198623D01*
X135244549Y-62949272D01*
X135193684Y-62826474D01*
X135115100Y-62431406D01*
X135115100Y-62028594D01*
X135193684Y-61633526D01*
X135286525Y-61409389D01*
X135347833Y-61261377D01*
X135571623Y-60926452D01*
X135856452Y-60641623D01*
X136191377Y-60417833D01*
X136345526Y-60353983D01*
X136563526Y-60263684D01*
X136958594Y-60185100D01*
X137361406Y-60185100D01*
X137756474Y-60263684D01*
G37*
G36*
X99656474Y-60263684D02*
G01*
X99874474Y-60353983D01*
X100028623Y-60417833D01*
X100363548Y-60641623D01*
X100648377Y-60926452D01*
X100872167Y-61261377D01*
X100933475Y-61409389D01*
X101026316Y-61633526D01*
X101104900Y-62028594D01*
X101104900Y-62431406D01*
X101026316Y-62826474D01*
X100975451Y-62949272D01*
X100872167Y-63198623D01*
X100648377Y-63533548D01*
X100363548Y-63818377D01*
X100028623Y-64042167D01*
X99874474Y-64106017D01*
X99656474Y-64196316D01*
X99261406Y-64274900D01*
X98858594Y-64274900D01*
X98463526Y-64196316D01*
X98245526Y-64106017D01*
X98091377Y-64042167D01*
X97756452Y-63818377D01*
X97471623Y-63533548D01*
X97247833Y-63198623D01*
X97144549Y-62949272D01*
X97093684Y-62826474D01*
X97015100Y-62431406D01*
X97015100Y-62028594D01*
X97093684Y-61633526D01*
X97186525Y-61409389D01*
X97247833Y-61261377D01*
X97471623Y-60926452D01*
X97756452Y-60641623D01*
X98091377Y-60417833D01*
X98245526Y-60353983D01*
X98463526Y-60263684D01*
X98858594Y-60185100D01*
X99261406Y-60185100D01*
X99656474Y-60263684D01*
G37*
G36*
X118706474Y-60263684D02*
G01*
X118924474Y-60353983D01*
X119078623Y-60417833D01*
X119413548Y-60641623D01*
X119698377Y-60926452D01*
X119922167Y-61261377D01*
X119983475Y-61409389D01*
X120076316Y-61633526D01*
X120154900Y-62028594D01*
X120154900Y-62431406D01*
X120076316Y-62826474D01*
X120025451Y-62949272D01*
X119922167Y-63198623D01*
X119698377Y-63533548D01*
X119413548Y-63818377D01*
X119078623Y-64042167D01*
X118924474Y-64106017D01*
X118706474Y-64196316D01*
X118311406Y-64274900D01*
X117908594Y-64274900D01*
X117513526Y-64196316D01*
X117295526Y-64106017D01*
X117141377Y-64042167D01*
X116806452Y-63818377D01*
X116521623Y-63533548D01*
X116297833Y-63198623D01*
X116194549Y-62949272D01*
X116143684Y-62826474D01*
X116065100Y-62431406D01*
X116065100Y-62028594D01*
X116143684Y-61633526D01*
X116236525Y-61409389D01*
X116297833Y-61261377D01*
X116521623Y-60926452D01*
X116806452Y-60641623D01*
X117141377Y-60417833D01*
X117295526Y-60353983D01*
X117513526Y-60263684D01*
X117908594Y-60185100D01*
X118311406Y-60185100D01*
X118706474Y-60263684D01*
G37*
G36*
X142510104Y-61339585D02*
G01*
X142678626Y-61409389D01*
X142830291Y-61510728D01*
X142959272Y-61639709D01*
X143060611Y-61791374D01*
X143130415Y-61959896D01*
X143166000Y-62138797D01*
X143166000Y-62321203D01*
X143130415Y-62500104D01*
X143060611Y-62668626D01*
X142959272Y-62820291D01*
X142830291Y-62949272D01*
X142678626Y-63050611D01*
X142510104Y-63120415D01*
X142331203Y-63156000D01*
X142148797Y-63156000D01*
X141969896Y-63120415D01*
X141801374Y-63050611D01*
X141649709Y-62949272D01*
X141520728Y-62820291D01*
X141419389Y-62668626D01*
X141349585Y-62500104D01*
X141314000Y-62321203D01*
X141314000Y-62138797D01*
X141349585Y-61959896D01*
X141419389Y-61791374D01*
X141520728Y-61639709D01*
X141649709Y-61510728D01*
X141801374Y-61409389D01*
X141969896Y-61339585D01*
X142148797Y-61304000D01*
X142331203Y-61304000D01*
X142510104Y-61339585D01*
G37*
G36*
X132350104Y-61339585D02*
G01*
X132518626Y-61409389D01*
X132670291Y-61510728D01*
X132799272Y-61639709D01*
X132900611Y-61791374D01*
X132970415Y-61959896D01*
X133006000Y-62138797D01*
X133006000Y-62321203D01*
X132970415Y-62500104D01*
X132900611Y-62668626D01*
X132799272Y-62820291D01*
X132670291Y-62949272D01*
X132518626Y-63050611D01*
X132350104Y-63120415D01*
X132171203Y-63156000D01*
X131988797Y-63156000D01*
X131809896Y-63120415D01*
X131641374Y-63050611D01*
X131489709Y-62949272D01*
X131360728Y-62820291D01*
X131259389Y-62668626D01*
X131189585Y-62500104D01*
X131154000Y-62321203D01*
X131154000Y-62138797D01*
X131189585Y-61959896D01*
X131259389Y-61791374D01*
X131360728Y-61639709D01*
X131489709Y-61510728D01*
X131641374Y-61409389D01*
X131809896Y-61339585D01*
X131988797Y-61304000D01*
X132171203Y-61304000D01*
X132350104Y-61339585D01*
G37*
G36*
X113300104Y-61339585D02*
G01*
X113468626Y-61409389D01*
X113620291Y-61510728D01*
X113749272Y-61639709D01*
X113850611Y-61791374D01*
X113920415Y-61959896D01*
X113956000Y-62138797D01*
X113956000Y-62321203D01*
X113920415Y-62500104D01*
X113850611Y-62668626D01*
X113749272Y-62820291D01*
X113620291Y-62949272D01*
X113468626Y-63050611D01*
X113300104Y-63120415D01*
X113121203Y-63156000D01*
X112938797Y-63156000D01*
X112759896Y-63120415D01*
X112591374Y-63050611D01*
X112439709Y-62949272D01*
X112310728Y-62820291D01*
X112209389Y-62668626D01*
X112139585Y-62500104D01*
X112104000Y-62321203D01*
X112104000Y-62138797D01*
X112139585Y-61959896D01*
X112209389Y-61791374D01*
X112310728Y-61639709D01*
X112439709Y-61510728D01*
X112591374Y-61409389D01*
X112759896Y-61339585D01*
X112938797Y-61304000D01*
X113121203Y-61304000D01*
X113300104Y-61339585D01*
G37*
G36*
X123460104Y-61339585D02*
G01*
X123628626Y-61409389D01*
X123780291Y-61510728D01*
X123909272Y-61639709D01*
X124010611Y-61791374D01*
X124080415Y-61959896D01*
X124116000Y-62138797D01*
X124116000Y-62321203D01*
X124080415Y-62500104D01*
X124010611Y-62668626D01*
X123909272Y-62820291D01*
X123780291Y-62949272D01*
X123628626Y-63050611D01*
X123460104Y-63120415D01*
X123281203Y-63156000D01*
X123098797Y-63156000D01*
X122919896Y-63120415D01*
X122751374Y-63050611D01*
X122599709Y-62949272D01*
X122470728Y-62820291D01*
X122369389Y-62668626D01*
X122299585Y-62500104D01*
X122264000Y-62321203D01*
X122264000Y-62138797D01*
X122299585Y-61959896D01*
X122369389Y-61791374D01*
X122470728Y-61639709D01*
X122599709Y-61510728D01*
X122751374Y-61409389D01*
X122919896Y-61339585D01*
X123098797Y-61304000D01*
X123281203Y-61304000D01*
X123460104Y-61339585D01*
G37*
G36*
X85360104Y-61339585D02*
G01*
X85528626Y-61409389D01*
X85680291Y-61510728D01*
X85809272Y-61639709D01*
X85910611Y-61791374D01*
X85980415Y-61959896D01*
X86016000Y-62138797D01*
X86016000Y-62321203D01*
X85980415Y-62500104D01*
X85910611Y-62668626D01*
X85809272Y-62820291D01*
X85680291Y-62949272D01*
X85528626Y-63050611D01*
X85360104Y-63120415D01*
X85181203Y-63156000D01*
X84998797Y-63156000D01*
X84819896Y-63120415D01*
X84651374Y-63050611D01*
X84499709Y-62949272D01*
X84370728Y-62820291D01*
X84269389Y-62668626D01*
X84199585Y-62500104D01*
X84164000Y-62321203D01*
X84164000Y-62138797D01*
X84199585Y-61959896D01*
X84269389Y-61791374D01*
X84370728Y-61639709D01*
X84499709Y-61510728D01*
X84651374Y-61409389D01*
X84819896Y-61339585D01*
X84998797Y-61304000D01*
X85181203Y-61304000D01*
X85360104Y-61339585D01*
G37*
G36*
X75200104Y-61339585D02*
G01*
X75368626Y-61409389D01*
X75520291Y-61510728D01*
X75649272Y-61639709D01*
X75750611Y-61791374D01*
X75820415Y-61959896D01*
X75856000Y-62138797D01*
X75856000Y-62321203D01*
X75820415Y-62500104D01*
X75750611Y-62668626D01*
X75649272Y-62820291D01*
X75520291Y-62949272D01*
X75368626Y-63050611D01*
X75200104Y-63120415D01*
X75021203Y-63156000D01*
X74838797Y-63156000D01*
X74659896Y-63120415D01*
X74491374Y-63050611D01*
X74339709Y-62949272D01*
X74210728Y-62820291D01*
X74109389Y-62668626D01*
X74039585Y-62500104D01*
X74004000Y-62321203D01*
X74004000Y-62138797D01*
X74039585Y-61959896D01*
X74109389Y-61791374D01*
X74210728Y-61639709D01*
X74339709Y-61510728D01*
X74491374Y-61409389D01*
X74659896Y-61339585D01*
X74838797Y-61304000D01*
X75021203Y-61304000D01*
X75200104Y-61339585D01*
G37*
G36*
X94250104Y-61339585D02*
G01*
X94418626Y-61409389D01*
X94570291Y-61510728D01*
X94699272Y-61639709D01*
X94800611Y-61791374D01*
X94870415Y-61959896D01*
X94906000Y-62138797D01*
X94906000Y-62321203D01*
X94870415Y-62500104D01*
X94800611Y-62668626D01*
X94699272Y-62820291D01*
X94570291Y-62949272D01*
X94418626Y-63050611D01*
X94250104Y-63120415D01*
X94071203Y-63156000D01*
X93888797Y-63156000D01*
X93709896Y-63120415D01*
X93541374Y-63050611D01*
X93389709Y-62949272D01*
X93260728Y-62820291D01*
X93159389Y-62668626D01*
X93089585Y-62500104D01*
X93054000Y-62321203D01*
X93054000Y-62138797D01*
X93089585Y-61959896D01*
X93159389Y-61791374D01*
X93260728Y-61639709D01*
X93389709Y-61510728D01*
X93541374Y-61409389D01*
X93709896Y-61339585D01*
X93888797Y-61304000D01*
X94071203Y-61304000D01*
X94250104Y-61339585D01*
G37*
G36*
X104410104Y-61339585D02*
G01*
X104578626Y-61409389D01*
X104730291Y-61510728D01*
X104859272Y-61639709D01*
X104960611Y-61791374D01*
X105030415Y-61959896D01*
X105066000Y-62138797D01*
X105066000Y-62321203D01*
X105030415Y-62500104D01*
X104960611Y-62668626D01*
X104859272Y-62820291D01*
X104730291Y-62949272D01*
X104578626Y-63050611D01*
X104410104Y-63120415D01*
X104231203Y-63156000D01*
X104048797Y-63156000D01*
X103869896Y-63120415D01*
X103701374Y-63050611D01*
X103549709Y-62949272D01*
X103420728Y-62820291D01*
X103319389Y-62668626D01*
X103249585Y-62500104D01*
X103214000Y-62321203D01*
X103214000Y-62138797D01*
X103249585Y-61959896D01*
X103319389Y-61791374D01*
X103420728Y-61639709D01*
X103549709Y-61510728D01*
X103701374Y-61409389D01*
X103869896Y-61339585D01*
X104048797Y-61304000D01*
X104231203Y-61304000D01*
X104410104Y-61339585D01*
G37*
G36*
X164078228Y-60776703D02*
G01*
X164233100Y-60840853D01*
X164372481Y-60933985D01*
X164491015Y-61052519D01*
X164584147Y-61191900D01*
X164648297Y-61346772D01*
X164681000Y-61511184D01*
X164681000Y-61678816D01*
X164648297Y-61843228D01*
X164584147Y-61998100D01*
X164491015Y-62137481D01*
X164372481Y-62256015D01*
X164233100Y-62349147D01*
X164078228Y-62413297D01*
X163913816Y-62446000D01*
X163746184Y-62446000D01*
X163581772Y-62413297D01*
X163426900Y-62349147D01*
X163287519Y-62256015D01*
X163168985Y-62137481D01*
X163075853Y-61998100D01*
X163011703Y-61843228D01*
X162979000Y-61678816D01*
X162979000Y-61511184D01*
X163011703Y-61346772D01*
X163075853Y-61191900D01*
X163168985Y-61052519D01*
X163287519Y-60933985D01*
X163426900Y-60840853D01*
X163581772Y-60776703D01*
X163746184Y-60744000D01*
X163913816Y-60744000D01*
X164078228Y-60776703D01*
G37*
G36*
X148838228Y-60776703D02*
G01*
X148993100Y-60840853D01*
X149132481Y-60933985D01*
X149251015Y-61052519D01*
X149344147Y-61191900D01*
X149408297Y-61346772D01*
X149441000Y-61511184D01*
X149441000Y-61678816D01*
X149408297Y-61843228D01*
X149344147Y-61998100D01*
X149251015Y-62137481D01*
X149132481Y-62256015D01*
X148993100Y-62349147D01*
X148838228Y-62413297D01*
X148673816Y-62446000D01*
X148506184Y-62446000D01*
X148341772Y-62413297D01*
X148186900Y-62349147D01*
X148047519Y-62256015D01*
X147928985Y-62137481D01*
X147835853Y-61998100D01*
X147771703Y-61843228D01*
X147739000Y-61678816D01*
X147739000Y-61511184D01*
X147771703Y-61346772D01*
X147835853Y-61191900D01*
X147928985Y-61052519D01*
X148047519Y-60933985D01*
X148186900Y-60840853D01*
X148341772Y-60776703D01*
X148506184Y-60744000D01*
X148673816Y-60744000D01*
X148838228Y-60776703D01*
G37*
G36*
X76391560Y-58529064D02*
G01*
X76543027Y-58559193D01*
X76757045Y-58647842D01*
X76821249Y-58690742D01*
X76949654Y-58776539D01*
X77113461Y-58940346D01*
X77199258Y-59068751D01*
X77242158Y-59132955D01*
X77330807Y-59346973D01*
X77330807Y-59346975D01*
X77376000Y-59574173D01*
X77376000Y-59805827D01*
X77375339Y-59809148D01*
X77330807Y-60033027D01*
X77242158Y-60247045D01*
X77242157Y-60247046D01*
X77113461Y-60439654D01*
X76949654Y-60603461D01*
X76892540Y-60641623D01*
X76757045Y-60732158D01*
X76543027Y-60820807D01*
X76391560Y-60850936D01*
X76315827Y-60866000D01*
X76084173Y-60866000D01*
X76008440Y-60850936D01*
X75856973Y-60820807D01*
X75642955Y-60732158D01*
X75507460Y-60641623D01*
X75450346Y-60603461D01*
X75286539Y-60439654D01*
X75157843Y-60247046D01*
X75157842Y-60247045D01*
X75069193Y-60033027D01*
X75024661Y-59809148D01*
X75024000Y-59805827D01*
X75024000Y-59574173D01*
X75069193Y-59346975D01*
X75069193Y-59346973D01*
X75157842Y-59132955D01*
X75200742Y-59068751D01*
X75286539Y-58940346D01*
X75450346Y-58776539D01*
X75578751Y-58690742D01*
X75642955Y-58647842D01*
X75856973Y-58559193D01*
X76008440Y-58529064D01*
X76084173Y-58514000D01*
X76315827Y-58514000D01*
X76391560Y-58529064D01*
G37*
G36*
X133541560Y-58529064D02*
G01*
X133693027Y-58559193D01*
X133907045Y-58647842D01*
X133971249Y-58690742D01*
X134099654Y-58776539D01*
X134263461Y-58940346D01*
X134349258Y-59068751D01*
X134392158Y-59132955D01*
X134480807Y-59346973D01*
X134480807Y-59346975D01*
X134526000Y-59574173D01*
X134526000Y-59805827D01*
X134525339Y-59809148D01*
X134480807Y-60033027D01*
X134392158Y-60247045D01*
X134392157Y-60247046D01*
X134263461Y-60439654D01*
X134099654Y-60603461D01*
X134042540Y-60641623D01*
X133907045Y-60732158D01*
X133693027Y-60820807D01*
X133541560Y-60850936D01*
X133465827Y-60866000D01*
X133234173Y-60866000D01*
X133158440Y-60850936D01*
X133006973Y-60820807D01*
X132792955Y-60732158D01*
X132657460Y-60641623D01*
X132600346Y-60603461D01*
X132436539Y-60439654D01*
X132307843Y-60247046D01*
X132307842Y-60247045D01*
X132219193Y-60033027D01*
X132174661Y-59809148D01*
X132174000Y-59805827D01*
X132174000Y-59574173D01*
X132219193Y-59346975D01*
X132219193Y-59346973D01*
X132307842Y-59132955D01*
X132350742Y-59068751D01*
X132436539Y-58940346D01*
X132600346Y-58776539D01*
X132728751Y-58690742D01*
X132792955Y-58647842D01*
X133006973Y-58559193D01*
X133158440Y-58529064D01*
X133234173Y-58514000D01*
X133465827Y-58514000D01*
X133541560Y-58529064D01*
G37*
G36*
X95441560Y-58529064D02*
G01*
X95593027Y-58559193D01*
X95807045Y-58647842D01*
X95871249Y-58690742D01*
X95999654Y-58776539D01*
X96163461Y-58940346D01*
X96249258Y-59068751D01*
X96292158Y-59132955D01*
X96380807Y-59346973D01*
X96380807Y-59346975D01*
X96426000Y-59574173D01*
X96426000Y-59805827D01*
X96425339Y-59809148D01*
X96380807Y-60033027D01*
X96292158Y-60247045D01*
X96292157Y-60247046D01*
X96163461Y-60439654D01*
X95999654Y-60603461D01*
X95942540Y-60641623D01*
X95807045Y-60732158D01*
X95593027Y-60820807D01*
X95441560Y-60850936D01*
X95365827Y-60866000D01*
X95134173Y-60866000D01*
X95058440Y-60850936D01*
X94906973Y-60820807D01*
X94692955Y-60732158D01*
X94557460Y-60641623D01*
X94500346Y-60603461D01*
X94336539Y-60439654D01*
X94207843Y-60247046D01*
X94207842Y-60247045D01*
X94119193Y-60033027D01*
X94074661Y-59809148D01*
X94074000Y-59805827D01*
X94074000Y-59574173D01*
X94119193Y-59346975D01*
X94119193Y-59346973D01*
X94207842Y-59132955D01*
X94250742Y-59068751D01*
X94336539Y-58940346D01*
X94500346Y-58776539D01*
X94628751Y-58690742D01*
X94692955Y-58647842D01*
X94906973Y-58559193D01*
X95058440Y-58529064D01*
X95134173Y-58514000D01*
X95365827Y-58514000D01*
X95441560Y-58529064D01*
G37*
G36*
X114491560Y-58529064D02*
G01*
X114643027Y-58559193D01*
X114857045Y-58647842D01*
X114921249Y-58690742D01*
X115049654Y-58776539D01*
X115213461Y-58940346D01*
X115299258Y-59068751D01*
X115342158Y-59132955D01*
X115430807Y-59346973D01*
X115430807Y-59346975D01*
X115476000Y-59574173D01*
X115476000Y-59805827D01*
X115475339Y-59809148D01*
X115430807Y-60033027D01*
X115342158Y-60247045D01*
X115342157Y-60247046D01*
X115213461Y-60439654D01*
X115049654Y-60603461D01*
X114992540Y-60641623D01*
X114857045Y-60732158D01*
X114643027Y-60820807D01*
X114491560Y-60850936D01*
X114415827Y-60866000D01*
X114184173Y-60866000D01*
X114108440Y-60850936D01*
X113956973Y-60820807D01*
X113742955Y-60732158D01*
X113607460Y-60641623D01*
X113550346Y-60603461D01*
X113386539Y-60439654D01*
X113257843Y-60247046D01*
X113257842Y-60247045D01*
X113169193Y-60033027D01*
X113124661Y-59809148D01*
X113124000Y-59805827D01*
X113124000Y-59574173D01*
X113169193Y-59346975D01*
X113169193Y-59346973D01*
X113257842Y-59132955D01*
X113300742Y-59068751D01*
X113386539Y-58940346D01*
X113550346Y-58776539D01*
X113678751Y-58690742D01*
X113742955Y-58647842D01*
X113956973Y-58559193D01*
X114108440Y-58529064D01*
X114184173Y-58514000D01*
X114415827Y-58514000D01*
X114491560Y-58529064D01*
G37*
G36*
X148838228Y-58236703D02*
G01*
X148993100Y-58300853D01*
X149132481Y-58393985D01*
X149251015Y-58512519D01*
X149344147Y-58651900D01*
X149408297Y-58806772D01*
X149441000Y-58971184D01*
X149441000Y-59138816D01*
X149408297Y-59303228D01*
X149344147Y-59458100D01*
X149251015Y-59597481D01*
X149132481Y-59716015D01*
X148993100Y-59809147D01*
X148838228Y-59873297D01*
X148673816Y-59906000D01*
X148506184Y-59906000D01*
X148341772Y-59873297D01*
X148186900Y-59809147D01*
X148047519Y-59716015D01*
X147928985Y-59597481D01*
X147835853Y-59458100D01*
X147771703Y-59303228D01*
X147739000Y-59138816D01*
X147739000Y-58971184D01*
X147771703Y-58806772D01*
X147835853Y-58651900D01*
X147928985Y-58512519D01*
X148047519Y-58393985D01*
X148186900Y-58300853D01*
X148341772Y-58236703D01*
X148506184Y-58204000D01*
X148673816Y-58204000D01*
X148838228Y-58236703D01*
G37*
G36*
X164078228Y-58236703D02*
G01*
X164233100Y-58300853D01*
X164372481Y-58393985D01*
X164491015Y-58512519D01*
X164584147Y-58651900D01*
X164648297Y-58806772D01*
X164681000Y-58971184D01*
X164681000Y-59138816D01*
X164648297Y-59303228D01*
X164584147Y-59458100D01*
X164491015Y-59597481D01*
X164372481Y-59716015D01*
X164233100Y-59809147D01*
X164078228Y-59873297D01*
X163913816Y-59906000D01*
X163746184Y-59906000D01*
X163581772Y-59873297D01*
X163426900Y-59809147D01*
X163287519Y-59716015D01*
X163168985Y-59597481D01*
X163075853Y-59458100D01*
X163011703Y-59303228D01*
X162979000Y-59138816D01*
X162979000Y-58971184D01*
X163011703Y-58806772D01*
X163075853Y-58651900D01*
X163168985Y-58512519D01*
X163287519Y-58393985D01*
X163426900Y-58300853D01*
X163581772Y-58236703D01*
X163746184Y-58204000D01*
X163913816Y-58204000D01*
X164078228Y-58236703D01*
G37*
G36*
X101791560Y-55989064D02*
G01*
X101943027Y-56019193D01*
X102157045Y-56107842D01*
X102221249Y-56150742D01*
X102349654Y-56236539D01*
X102513461Y-56400346D01*
X102572687Y-56488985D01*
X102642158Y-56592955D01*
X102730807Y-56806973D01*
X102730807Y-56806975D01*
X102776000Y-57034173D01*
X102776000Y-57265827D01*
X102775339Y-57269148D01*
X102730807Y-57493027D01*
X102642158Y-57707045D01*
X102642157Y-57707046D01*
X102513461Y-57899654D01*
X102349654Y-58063461D01*
X102221249Y-58149258D01*
X102157045Y-58192158D01*
X101943027Y-58280807D01*
X101791560Y-58310936D01*
X101715827Y-58326000D01*
X101484173Y-58326000D01*
X101408440Y-58310936D01*
X101256973Y-58280807D01*
X101042955Y-58192158D01*
X100978751Y-58149258D01*
X100850346Y-58063461D01*
X100686539Y-57899654D01*
X100557843Y-57707046D01*
X100557842Y-57707045D01*
X100469193Y-57493027D01*
X100424661Y-57269148D01*
X100424000Y-57265827D01*
X100424000Y-57034173D01*
X100469193Y-56806975D01*
X100469193Y-56806973D01*
X100557842Y-56592955D01*
X100627313Y-56488985D01*
X100686539Y-56400346D01*
X100850346Y-56236539D01*
X100978751Y-56150742D01*
X101042955Y-56107842D01*
X101256973Y-56019193D01*
X101408440Y-55989064D01*
X101484173Y-55974000D01*
X101715827Y-55974000D01*
X101791560Y-55989064D01*
G37*
G36*
X139891560Y-55989064D02*
G01*
X140043027Y-56019193D01*
X140257045Y-56107842D01*
X140321249Y-56150742D01*
X140449654Y-56236539D01*
X140613461Y-56400346D01*
X140672687Y-56488985D01*
X140742158Y-56592955D01*
X140830807Y-56806973D01*
X140830807Y-56806975D01*
X140876000Y-57034173D01*
X140876000Y-57265827D01*
X140875339Y-57269148D01*
X140830807Y-57493027D01*
X140742158Y-57707045D01*
X140742157Y-57707046D01*
X140613461Y-57899654D01*
X140449654Y-58063461D01*
X140321249Y-58149258D01*
X140257045Y-58192158D01*
X140043027Y-58280807D01*
X139891560Y-58310936D01*
X139815827Y-58326000D01*
X139584173Y-58326000D01*
X139508440Y-58310936D01*
X139356973Y-58280807D01*
X139142955Y-58192158D01*
X139078751Y-58149258D01*
X138950346Y-58063461D01*
X138786539Y-57899654D01*
X138657843Y-57707046D01*
X138657842Y-57707045D01*
X138569193Y-57493027D01*
X138524661Y-57269148D01*
X138524000Y-57265827D01*
X138524000Y-57034173D01*
X138569193Y-56806975D01*
X138569193Y-56806973D01*
X138657842Y-56592955D01*
X138727313Y-56488985D01*
X138786539Y-56400346D01*
X138950346Y-56236539D01*
X139078751Y-56150742D01*
X139142955Y-56107842D01*
X139356973Y-56019193D01*
X139508440Y-55989064D01*
X139584173Y-55974000D01*
X139815827Y-55974000D01*
X139891560Y-55989064D01*
G37*
G36*
X82741560Y-55989064D02*
G01*
X82893027Y-56019193D01*
X83107045Y-56107842D01*
X83171249Y-56150742D01*
X83299654Y-56236539D01*
X83463461Y-56400346D01*
X83522687Y-56488985D01*
X83592158Y-56592955D01*
X83680807Y-56806973D01*
X83680807Y-56806975D01*
X83726000Y-57034173D01*
X83726000Y-57265827D01*
X83725339Y-57269148D01*
X83680807Y-57493027D01*
X83592158Y-57707045D01*
X83592157Y-57707046D01*
X83463461Y-57899654D01*
X83299654Y-58063461D01*
X83171249Y-58149258D01*
X83107045Y-58192158D01*
X82893027Y-58280807D01*
X82741560Y-58310936D01*
X82665827Y-58326000D01*
X82434173Y-58326000D01*
X82358440Y-58310936D01*
X82206973Y-58280807D01*
X81992955Y-58192158D01*
X81928751Y-58149258D01*
X81800346Y-58063461D01*
X81636539Y-57899654D01*
X81507843Y-57707046D01*
X81507842Y-57707045D01*
X81419193Y-57493027D01*
X81374661Y-57269148D01*
X81374000Y-57265827D01*
X81374000Y-57034173D01*
X81419193Y-56806975D01*
X81419193Y-56806973D01*
X81507842Y-56592955D01*
X81577313Y-56488985D01*
X81636539Y-56400346D01*
X81800346Y-56236539D01*
X81928751Y-56150742D01*
X81992955Y-56107842D01*
X82206973Y-56019193D01*
X82358440Y-55989064D01*
X82434173Y-55974000D01*
X82665827Y-55974000D01*
X82741560Y-55989064D01*
G37*
G36*
X120841560Y-55989064D02*
G01*
X120993027Y-56019193D01*
X121207045Y-56107842D01*
X121271249Y-56150742D01*
X121399654Y-56236539D01*
X121563461Y-56400346D01*
X121622687Y-56488985D01*
X121692158Y-56592955D01*
X121780807Y-56806973D01*
X121780807Y-56806975D01*
X121826000Y-57034173D01*
X121826000Y-57265827D01*
X121825339Y-57269148D01*
X121780807Y-57493027D01*
X121692158Y-57707045D01*
X121692157Y-57707046D01*
X121563461Y-57899654D01*
X121399654Y-58063461D01*
X121271249Y-58149258D01*
X121207045Y-58192158D01*
X120993027Y-58280807D01*
X120841560Y-58310936D01*
X120765827Y-58326000D01*
X120534173Y-58326000D01*
X120458440Y-58310936D01*
X120306973Y-58280807D01*
X120092955Y-58192158D01*
X120028751Y-58149258D01*
X119900346Y-58063461D01*
X119736539Y-57899654D01*
X119607843Y-57707046D01*
X119607842Y-57707045D01*
X119519193Y-57493027D01*
X119474661Y-57269148D01*
X119474000Y-57265827D01*
X119474000Y-57034173D01*
X119519193Y-56806975D01*
X119519193Y-56806973D01*
X119607842Y-56592955D01*
X119677313Y-56488985D01*
X119736539Y-56400346D01*
X119900346Y-56236539D01*
X120028751Y-56150742D01*
X120092955Y-56107842D01*
X120306973Y-56019193D01*
X120458440Y-55989064D01*
X120534173Y-55974000D01*
X120765827Y-55974000D01*
X120841560Y-55989064D01*
G37*
G36*
X126613228Y-56331703D02*
G01*
X126768100Y-56395853D01*
X126907481Y-56488985D01*
X127026015Y-56607519D01*
X127119147Y-56746900D01*
X127183297Y-56901772D01*
X127216000Y-57066184D01*
X127216000Y-57233816D01*
X127183297Y-57398228D01*
X127119147Y-57553100D01*
X127026015Y-57692481D01*
X126907481Y-57811015D01*
X126768100Y-57904147D01*
X126613228Y-57968297D01*
X126448816Y-58001000D01*
X126281184Y-58001000D01*
X126116772Y-57968297D01*
X125961900Y-57904147D01*
X125822519Y-57811015D01*
X125703985Y-57692481D01*
X125610853Y-57553100D01*
X125546703Y-57398228D01*
X125514000Y-57233816D01*
X125514000Y-57066184D01*
X125546703Y-56901772D01*
X125610853Y-56746900D01*
X125703985Y-56607519D01*
X125822519Y-56488985D01*
X125961900Y-56395853D01*
X126116772Y-56331703D01*
X126281184Y-56299000D01*
X126448816Y-56299000D01*
X126613228Y-56331703D01*
G37*
G36*
X145663228Y-56331703D02*
G01*
X145818100Y-56395853D01*
X145957481Y-56488985D01*
X146076015Y-56607519D01*
X146169147Y-56746900D01*
X146233297Y-56901772D01*
X146266000Y-57066184D01*
X146266000Y-57233816D01*
X146233297Y-57398228D01*
X146169147Y-57553100D01*
X146076015Y-57692481D01*
X145957481Y-57811015D01*
X145818100Y-57904147D01*
X145663228Y-57968297D01*
X145498816Y-58001000D01*
X145331184Y-58001000D01*
X145166772Y-57968297D01*
X145011900Y-57904147D01*
X144872519Y-57811015D01*
X144753985Y-57692481D01*
X144660853Y-57553100D01*
X144596703Y-57398228D01*
X144564000Y-57233816D01*
X144564000Y-57066184D01*
X144596703Y-56901772D01*
X144660853Y-56746900D01*
X144753985Y-56607519D01*
X144872519Y-56488985D01*
X145011900Y-56395853D01*
X145166772Y-56331703D01*
X145331184Y-56299000D01*
X145498816Y-56299000D01*
X145663228Y-56331703D01*
G37*
G36*
X107563228Y-56331703D02*
G01*
X107718100Y-56395853D01*
X107857481Y-56488985D01*
X107976015Y-56607519D01*
X108069147Y-56746900D01*
X108133297Y-56901772D01*
X108166000Y-57066184D01*
X108166000Y-57233816D01*
X108133297Y-57398228D01*
X108069147Y-57553100D01*
X107976015Y-57692481D01*
X107857481Y-57811015D01*
X107718100Y-57904147D01*
X107563228Y-57968297D01*
X107398816Y-58001000D01*
X107231184Y-58001000D01*
X107066772Y-57968297D01*
X106911900Y-57904147D01*
X106772519Y-57811015D01*
X106653985Y-57692481D01*
X106560853Y-57553100D01*
X106496703Y-57398228D01*
X106464000Y-57233816D01*
X106464000Y-57066184D01*
X106496703Y-56901772D01*
X106560853Y-56746900D01*
X106653985Y-56607519D01*
X106772519Y-56488985D01*
X106911900Y-56395853D01*
X107066772Y-56331703D01*
X107231184Y-56299000D01*
X107398816Y-56299000D01*
X107563228Y-56331703D01*
G37*
G36*
X88513228Y-56331703D02*
G01*
X88668100Y-56395853D01*
X88807481Y-56488985D01*
X88926015Y-56607519D01*
X89019147Y-56746900D01*
X89083297Y-56901772D01*
X89116000Y-57066184D01*
X89116000Y-57233816D01*
X89083297Y-57398228D01*
X89019147Y-57553100D01*
X88926015Y-57692481D01*
X88807481Y-57811015D01*
X88668100Y-57904147D01*
X88513228Y-57968297D01*
X88348816Y-58001000D01*
X88181184Y-58001000D01*
X88016772Y-57968297D01*
X87861900Y-57904147D01*
X87722519Y-57811015D01*
X87603985Y-57692481D01*
X87510853Y-57553100D01*
X87446703Y-57398228D01*
X87414000Y-57233816D01*
X87414000Y-57066184D01*
X87446703Y-56901772D01*
X87510853Y-56746900D01*
X87603985Y-56607519D01*
X87722519Y-56488985D01*
X87861900Y-56395853D01*
X88016772Y-56331703D01*
X88181184Y-56299000D01*
X88348816Y-56299000D01*
X88513228Y-56331703D01*
G37*
G36*
X164078228Y-55696703D02*
G01*
X164233100Y-55760853D01*
X164372481Y-55853985D01*
X164491015Y-55972519D01*
X164584147Y-56111900D01*
X164648297Y-56266772D01*
X164681000Y-56431184D01*
X164681000Y-56598816D01*
X164648297Y-56763228D01*
X164584147Y-56918100D01*
X164491015Y-57057481D01*
X164372481Y-57176015D01*
X164233100Y-57269147D01*
X164078228Y-57333297D01*
X163913816Y-57366000D01*
X163746184Y-57366000D01*
X163581772Y-57333297D01*
X163426900Y-57269147D01*
X163287519Y-57176015D01*
X163168985Y-57057481D01*
X163075853Y-56918100D01*
X163011703Y-56763228D01*
X162979000Y-56598816D01*
X162979000Y-56431184D01*
X163011703Y-56266772D01*
X163075853Y-56111900D01*
X163168985Y-55972519D01*
X163287519Y-55853985D01*
X163426900Y-55760853D01*
X163581772Y-55696703D01*
X163746184Y-55664000D01*
X163913816Y-55664000D01*
X164078228Y-55696703D01*
G37*
G36*
X148838228Y-55696703D02*
G01*
X148993100Y-55760853D01*
X149132481Y-55853985D01*
X149251015Y-55972519D01*
X149344147Y-56111900D01*
X149408297Y-56266772D01*
X149441000Y-56431184D01*
X149441000Y-56598816D01*
X149408297Y-56763228D01*
X149344147Y-56918100D01*
X149251015Y-57057481D01*
X149132481Y-57176015D01*
X148993100Y-57269147D01*
X148838228Y-57333297D01*
X148673816Y-57366000D01*
X148506184Y-57366000D01*
X148341772Y-57333297D01*
X148186900Y-57269147D01*
X148047519Y-57176015D01*
X147928985Y-57057481D01*
X147835853Y-56918100D01*
X147771703Y-56763228D01*
X147739000Y-56598816D01*
X147739000Y-56431184D01*
X147771703Y-56266772D01*
X147835853Y-56111900D01*
X147928985Y-55972519D01*
X148047519Y-55853985D01*
X148186900Y-55760853D01*
X148341772Y-55696703D01*
X148506184Y-55664000D01*
X148673816Y-55664000D01*
X148838228Y-55696703D01*
G37*
G36*
X149441000Y-54826000D02*
G01*
X147739000Y-54826000D01*
X147739000Y-53124000D01*
X149441000Y-53124000D01*
X149441000Y-54826000D01*
G37*
G36*
X164078228Y-53156703D02*
G01*
X164233100Y-53220853D01*
X164372481Y-53313985D01*
X164491015Y-53432519D01*
X164584147Y-53571900D01*
X164648297Y-53726772D01*
X164681000Y-53891184D01*
X164681000Y-54058816D01*
X164648297Y-54223228D01*
X164584147Y-54378100D01*
X164491015Y-54517481D01*
X164372481Y-54636015D01*
X164233100Y-54729147D01*
X164078228Y-54793297D01*
X163913816Y-54826000D01*
X163746184Y-54826000D01*
X163581772Y-54793297D01*
X163426900Y-54729147D01*
X163287519Y-54636015D01*
X163168985Y-54517481D01*
X163075853Y-54378100D01*
X163011703Y-54223228D01*
X162979000Y-54058816D01*
X162979000Y-53891184D01*
X163011703Y-53726772D01*
X163075853Y-53571900D01*
X163168985Y-53432519D01*
X163287519Y-53313985D01*
X163426900Y-53220853D01*
X163581772Y-53156703D01*
X163746184Y-53124000D01*
X163913816Y-53124000D01*
X164078228Y-53156703D01*
G37*
G36*
X72868549Y-50687116D02*
G01*
X72979734Y-50709232D01*
X73189203Y-50795997D01*
X73377720Y-50921960D01*
X73538040Y-51082280D01*
X73664003Y-51270797D01*
X73750768Y-51480266D01*
X73795000Y-51702636D01*
X73795000Y-51929364D01*
X73750768Y-52151734D01*
X73664003Y-52361203D01*
X73538040Y-52549720D01*
X73377720Y-52710040D01*
X73189203Y-52836003D01*
X72979734Y-52922768D01*
X72868549Y-52944884D01*
X72757365Y-52967000D01*
X72530635Y-52967000D01*
X72419451Y-52944884D01*
X72308266Y-52922768D01*
X72098797Y-52836003D01*
X71910280Y-52710040D01*
X71749960Y-52549720D01*
X71623997Y-52361203D01*
X71537232Y-52151734D01*
X71493000Y-51929364D01*
X71493000Y-51702636D01*
X71537232Y-51480266D01*
X71623997Y-51270797D01*
X71749960Y-51082280D01*
X71910280Y-50921960D01*
X72098797Y-50795997D01*
X72308266Y-50709232D01*
X72419451Y-50687116D01*
X72530635Y-50665000D01*
X72757365Y-50665000D01*
X72868549Y-50687116D01*
G37*
G36*
X166848549Y-50687116D02*
G01*
X166959734Y-50709232D01*
X167169203Y-50795997D01*
X167357720Y-50921960D01*
X167518040Y-51082280D01*
X167644003Y-51270797D01*
X167730768Y-51480266D01*
X167775000Y-51702636D01*
X167775000Y-51929364D01*
X167730768Y-52151734D01*
X167644003Y-52361203D01*
X167518040Y-52549720D01*
X167357720Y-52710040D01*
X167169203Y-52836003D01*
X166959734Y-52922768D01*
X166848549Y-52944884D01*
X166737365Y-52967000D01*
X166510635Y-52967000D01*
X166399451Y-52944884D01*
X166288266Y-52922768D01*
X166078797Y-52836003D01*
X165890280Y-52710040D01*
X165729960Y-52549720D01*
X165603997Y-52361203D01*
X165517232Y-52151734D01*
X165473000Y-51929364D01*
X165473000Y-51702636D01*
X165517232Y-51480266D01*
X165603997Y-51270797D01*
X165729960Y-51082280D01*
X165890280Y-50921960D01*
X166078797Y-50795997D01*
X166288266Y-50709232D01*
X166399451Y-50687116D01*
X166510635Y-50665000D01*
X166737365Y-50665000D01*
X166848549Y-50687116D01*
G37*
M02*
