M48
; DRILL file {KiCad (5.1.5)-3} date 22/01/2020 14:50:57
; FORMAT={-:-/ absolute / inch / decimal}
; #@! TF.CreationDate,2020-01-22T14:50:57+00:00
; #@! TF.GenerationSoftware,Kicad,Pcbnew,(5.1.5)-3
FMAT,2
INCH
T1C0.0157
T2C0.0276
T3C0.0315
T4C0.0394
T5C0.0433
T6C0.0579
T7C0.0689
T8C0.0866
T9C0.1570
%
G90
G05
T1
X5.2Y-2.65
X5.35Y-2.65
X5.9Y-3.5
X5.95Y-4.3
X6.1Y-4.35
X6.3Y-2.6
X6.35Y-2.875
X6.5Y-3.85
X6.5Y-4.0
T2
X6.225Y-3.625
X6.425Y-3.625
T3
X4.225Y-5.25
X4.225Y-5.55
X4.975Y-3.0
X4.975Y-3.3
X3.475Y-3.75
X3.475Y-4.05
X4.975Y-4.5
X4.975Y-4.8
X4.975Y-3.75
X4.975Y-4.05
X4.225Y-3.0
X4.225Y-3.3
X4.975Y-5.25
X4.975Y-5.55
X3.475Y-3.0
X3.475Y-3.3
X3.475Y-5.25
X3.475Y-5.55
X3.475Y-2.25
X3.475Y-2.55
X5.725Y-3.75
X5.725Y-4.05
X4.225Y-3.75
X4.225Y-4.05
X4.225Y-2.25
X4.225Y-2.55
X5.725Y-4.5
X5.725Y-4.8
X3.475Y-4.5
X3.475Y-4.8
X5.725Y-5.25
X5.725Y-5.55
X5.725Y-3.0
X5.725Y-3.3
X4.975Y-2.25
X4.975Y-2.55
X5.725Y-2.25
X5.725Y-2.55
X4.225Y-4.5
X4.225Y-4.8
T4
X6.0Y-3.45
X6.1Y-3.45
X6.2Y-3.45
X6.3Y-3.45
X6.35Y-3.825
X6.35Y-3.925
X6.35Y-4.025
T5
X6.2441Y-4.5
X6.2441Y-4.6772
X6.5Y-4.5
X6.5Y-4.6772
X5.85Y-2.125
X5.85Y-2.225
X5.85Y-2.325
X5.85Y-2.425
X5.85Y-2.525
X5.85Y-2.625
X5.85Y-2.725
X5.85Y-2.825
X5.85Y-2.925
X5.85Y-3.025
X5.85Y-3.125
X5.85Y-3.225
X6.45Y-2.125
X6.45Y-2.225
X6.45Y-2.325
X6.45Y-2.425
X6.45Y-2.525
X6.45Y-2.625
X6.45Y-2.725
X6.45Y-2.825
X6.45Y-2.925
X6.45Y-3.025
X6.45Y-3.125
X6.45Y-3.225
T6
X5.25Y-3.1
X5.5Y-3.0
X3.75Y-3.1
X4.0Y-3.0
X4.5Y-5.35
X4.75Y-5.25
X5.25Y-5.35
X5.5Y-5.25
X3.0Y-5.35
X3.25Y-5.25
X3.0Y-3.85
X3.25Y-3.75
X4.5Y-4.6
X4.75Y-4.5
X3.0Y-4.6
X3.25Y-4.5
X3.0Y-3.1
X3.25Y-3.0
X4.5Y-2.35
X4.75Y-2.25
X5.25Y-2.35
X5.5Y-2.25
X3.0Y-2.35
X3.25Y-2.25
X3.75Y-4.6
X4.0Y-4.5
X3.75Y-2.35
X4.0Y-2.25
X5.25Y-4.6
X5.5Y-4.5
X3.75Y-5.35
X4.0Y-5.25
X4.5Y-3.85
X4.75Y-3.75
X5.25Y-3.85
X5.5Y-3.75
X3.75Y-3.85
X4.0Y-3.75
X4.5Y-3.1
X4.75Y-3.0
T7
X5.2Y-3.95
X5.6Y-3.95
X3.7Y-3.95
X4.1Y-3.95
X4.45Y-3.2
X4.85Y-3.2
X5.2Y-3.2
X5.6Y-3.2
X3.7Y-3.2
X4.1Y-3.2
X4.45Y-5.45
X4.85Y-5.45
X5.2Y-5.45
X5.6Y-5.45
X2.95Y-5.45
X3.35Y-5.45
X2.95Y-3.95
X3.35Y-3.95
X4.45Y-4.7
X4.85Y-4.7
X2.95Y-4.7
X3.35Y-4.7
X2.95Y-3.2
X3.35Y-3.2
X4.45Y-2.45
X4.85Y-2.45
X5.2Y-2.45
X5.6Y-2.45
X2.95Y-2.45
X3.35Y-2.45
X3.7Y-4.7
X4.1Y-4.7
X3.7Y-2.45
X4.1Y-2.45
X5.2Y-4.7
X5.6Y-4.7
X3.7Y-5.45
X4.1Y-5.45
X4.45Y-3.95
X4.85Y-3.95
T8
X6.56Y-5.74
X6.56Y-2.04
X2.86Y-5.74
X4.275Y-3.575
X2.86Y-2.04
T9
X5.4Y-4.7
X3.9Y-5.45
X4.65Y-3.95
X5.4Y-3.95
X3.9Y-3.95
X4.65Y-3.2
X5.4Y-3.2
X3.9Y-3.2
X4.65Y-5.45
X5.4Y-5.45
X3.15Y-5.45
X3.15Y-3.95
X4.65Y-4.7
X3.15Y-4.7
X3.15Y-3.2
X4.65Y-2.45
X5.4Y-2.45
X3.15Y-2.45
X3.9Y-4.7
X3.9Y-2.45
T0
M30
