G04 #@! TF.GenerationSoftware,KiCad,Pcbnew,(5.1.5)-3*
G04 #@! TF.CreationDate,2020-01-22T14:50:54+00:00*
G04 #@! TF.ProjectId,macro20,6d616372-6f32-4302-9e6b-696361645f70,rev?*
G04 #@! TF.SameCoordinates,Original*
G04 #@! TF.FileFunction,Legend,Top*
G04 #@! TF.FilePolarity,Positive*
%FSLAX46Y46*%
G04 Gerber Fmt 4.6, Leading zero omitted, Abs format (unit mm)*
G04 Created by KiCad (PCBNEW (5.1.5)-3) date 2020-01-22 14:50:54*
%MOMM*%
%LPD*%
G04 APERTURE LIST*
%ADD10C,0.150000*%
%ADD11C,0.010000*%
%ADD12C,0.120000*%
G04 APERTURE END LIST*
D10*
X152804761Y-85669285D02*
X152852380Y-85526428D01*
X152852380Y-85288333D01*
X152804761Y-85193095D01*
X152757142Y-85145476D01*
X152661904Y-85097857D01*
X152566666Y-85097857D01*
X152471428Y-85145476D01*
X152423809Y-85193095D01*
X152376190Y-85288333D01*
X152328571Y-85478809D01*
X152280952Y-85574047D01*
X152233333Y-85621666D01*
X152138095Y-85669285D01*
X152042857Y-85669285D01*
X151947619Y-85621666D01*
X151900000Y-85574047D01*
X151852380Y-85478809D01*
X151852380Y-85240714D01*
X151900000Y-85097857D01*
X152852380Y-84669285D02*
X151852380Y-84669285D01*
X151852380Y-84431190D01*
X151900000Y-84288333D01*
X151995238Y-84193095D01*
X152090476Y-84145476D01*
X152280952Y-84097857D01*
X152423809Y-84097857D01*
X152614285Y-84145476D01*
X152709523Y-84193095D01*
X152804761Y-84288333D01*
X152852380Y-84431190D01*
X152852380Y-84669285D01*
X152566666Y-83716904D02*
X152566666Y-83240714D01*
X152852380Y-83812142D02*
X151852380Y-83478809D01*
X152852380Y-83145476D01*
X155344761Y-85645476D02*
X155392380Y-85502619D01*
X155392380Y-85264523D01*
X155344761Y-85169285D01*
X155297142Y-85121666D01*
X155201904Y-85074047D01*
X155106666Y-85074047D01*
X155011428Y-85121666D01*
X154963809Y-85169285D01*
X154916190Y-85264523D01*
X154868571Y-85455000D01*
X154820952Y-85550238D01*
X154773333Y-85597857D01*
X154678095Y-85645476D01*
X154582857Y-85645476D01*
X154487619Y-85597857D01*
X154440000Y-85550238D01*
X154392380Y-85455000D01*
X154392380Y-85216904D01*
X154440000Y-85074047D01*
X155297142Y-84074047D02*
X155344761Y-84121666D01*
X155392380Y-84264523D01*
X155392380Y-84359761D01*
X155344761Y-84502619D01*
X155249523Y-84597857D01*
X155154285Y-84645476D01*
X154963809Y-84693095D01*
X154820952Y-84693095D01*
X154630476Y-84645476D01*
X154535238Y-84597857D01*
X154440000Y-84502619D01*
X154392380Y-84359761D01*
X154392380Y-84264523D01*
X154440000Y-84121666D01*
X154487619Y-84074047D01*
X155392380Y-83169285D02*
X155392380Y-83645476D01*
X154392380Y-83645476D01*
X156932380Y-85788333D02*
X157932380Y-85455000D01*
X156932380Y-85121666D01*
X157837142Y-84216904D02*
X157884761Y-84264523D01*
X157932380Y-84407380D01*
X157932380Y-84502619D01*
X157884761Y-84645476D01*
X157789523Y-84740714D01*
X157694285Y-84788333D01*
X157503809Y-84835952D01*
X157360952Y-84835952D01*
X157170476Y-84788333D01*
X157075238Y-84740714D01*
X156980000Y-84645476D01*
X156932380Y-84502619D01*
X156932380Y-84407380D01*
X156980000Y-84264523D01*
X157027619Y-84216904D01*
X157837142Y-83216904D02*
X157884761Y-83264523D01*
X157932380Y-83407380D01*
X157932380Y-83502619D01*
X157884761Y-83645476D01*
X157789523Y-83740714D01*
X157694285Y-83788333D01*
X157503809Y-83835952D01*
X157360952Y-83835952D01*
X157170476Y-83788333D01*
X157075238Y-83740714D01*
X156980000Y-83645476D01*
X156932380Y-83502619D01*
X156932380Y-83407380D01*
X156980000Y-83264523D01*
X157027619Y-83216904D01*
X159520000Y-85216904D02*
X159472380Y-85312142D01*
X159472380Y-85455000D01*
X159520000Y-85597857D01*
X159615238Y-85693095D01*
X159710476Y-85740714D01*
X159900952Y-85788333D01*
X160043809Y-85788333D01*
X160234285Y-85740714D01*
X160329523Y-85693095D01*
X160424761Y-85597857D01*
X160472380Y-85455000D01*
X160472380Y-85359761D01*
X160424761Y-85216904D01*
X160377142Y-85169285D01*
X160043809Y-85169285D01*
X160043809Y-85359761D01*
X160472380Y-84740714D02*
X159472380Y-84740714D01*
X160472380Y-84169285D01*
X159472380Y-84169285D01*
X160472380Y-83693095D02*
X159472380Y-83693095D01*
X159472380Y-83455000D01*
X159520000Y-83312142D01*
X159615238Y-83216904D01*
X159710476Y-83169285D01*
X159900952Y-83121666D01*
X160043809Y-83121666D01*
X160234285Y-83169285D01*
X160329523Y-83216904D01*
X160424761Y-83312142D01*
X160472380Y-83455000D01*
X160472380Y-83693095D01*
X165100000Y-83185000D02*
X147320000Y-83185000D01*
X165100000Y-52705000D02*
X165100000Y-83185000D01*
X160020000Y-52705000D02*
X165100000Y-52705000D01*
X160020000Y-50165000D02*
X160020000Y-52705000D01*
X152400000Y-50165000D02*
X160020000Y-50165000D01*
X152400000Y-52705000D02*
X152400000Y-50165000D01*
X147320000Y-52705000D02*
X152400000Y-52705000D01*
X147320000Y-52705000D02*
X147320000Y-83185000D01*
D11*
G36*
X148494468Y-110002133D02*
G01*
X149054634Y-112988091D01*
X151121569Y-113844326D01*
X153188503Y-114700561D01*
X155668137Y-113006163D01*
X156362564Y-112534386D01*
X156990288Y-112113151D01*
X157522017Y-111761690D01*
X157928459Y-111499234D01*
X158180320Y-111345017D01*
X158248911Y-111311765D01*
X158372475Y-111397287D01*
X158636517Y-111633718D01*
X159011441Y-111990857D01*
X159467651Y-112438500D01*
X159975551Y-112946445D01*
X160505545Y-113484491D01*
X161028037Y-114022435D01*
X161513431Y-114530074D01*
X161932132Y-114977206D01*
X162254542Y-115333629D01*
X162451067Y-115569141D01*
X162498049Y-115647958D01*
X162430434Y-115793265D01*
X162240877Y-116111602D01*
X161949307Y-116571832D01*
X161575654Y-117142817D01*
X161139850Y-117793418D01*
X160887317Y-118164505D01*
X160427025Y-118842109D01*
X160018009Y-119453578D01*
X159680111Y-119968474D01*
X159433175Y-120356362D01*
X159297042Y-120586805D01*
X159276585Y-120635233D01*
X159322959Y-120772867D01*
X159449365Y-121093639D01*
X159636730Y-121552447D01*
X159865982Y-122104193D01*
X160118048Y-122703774D01*
X160373855Y-123306092D01*
X160614330Y-123866045D01*
X160820401Y-124338533D01*
X160972996Y-124678457D01*
X161053040Y-124840715D01*
X161057765Y-124847101D01*
X161183452Y-124878082D01*
X161518180Y-124947200D01*
X162027255Y-125047661D01*
X162675981Y-125172669D01*
X163429662Y-125315429D01*
X163869394Y-125397755D01*
X164674741Y-125551843D01*
X165402158Y-125698467D01*
X166014843Y-125829604D01*
X166475996Y-125937230D01*
X166748815Y-126013323D01*
X166803659Y-126037465D01*
X166857373Y-126200871D01*
X166900712Y-126569922D01*
X166933706Y-127101460D01*
X166956385Y-127752332D01*
X166968777Y-128479380D01*
X166970912Y-129239450D01*
X166962819Y-129989384D01*
X166944528Y-130686028D01*
X166916069Y-131286226D01*
X166877469Y-131746822D01*
X166828759Y-132024659D01*
X166799545Y-132082499D01*
X166624913Y-132151826D01*
X166254876Y-132250940D01*
X165738379Y-132368196D01*
X165124370Y-132491953D01*
X164910033Y-132531989D01*
X163876627Y-132722205D01*
X163060311Y-132875394D01*
X162434111Y-132997643D01*
X161971056Y-133095042D01*
X161644172Y-133173678D01*
X161426486Y-133239641D01*
X161291026Y-133299019D01*
X161210819Y-133357901D01*
X161199597Y-133369538D01*
X161087577Y-133556998D01*
X160916689Y-133921822D01*
X160703999Y-134419335D01*
X160466567Y-135004864D01*
X160221459Y-135633738D01*
X159985737Y-136261283D01*
X159776465Y-136842825D01*
X159610705Y-137333693D01*
X159505522Y-137689212D01*
X159477978Y-137864710D01*
X159480274Y-137870858D01*
X159573602Y-138014305D01*
X159785328Y-138329925D01*
X160093202Y-138784865D01*
X160474974Y-139346275D01*
X160908396Y-139981301D01*
X161031829Y-140161762D01*
X161471942Y-140816013D01*
X161859222Y-141412954D01*
X162172573Y-141918307D01*
X162390897Y-142297793D01*
X162493099Y-142517135D01*
X162498049Y-142544082D01*
X162412181Y-142685718D01*
X162174911Y-142966303D01*
X161816741Y-143355683D01*
X161368172Y-143823701D01*
X160859706Y-144340202D01*
X160321845Y-144875030D01*
X159785090Y-145398029D01*
X159279943Y-145879045D01*
X158836905Y-146287920D01*
X158486479Y-146594501D01*
X158259165Y-146768629D01*
X158196282Y-146797059D01*
X158049910Y-146730097D01*
X157750228Y-146549496D01*
X157346052Y-146285679D01*
X157035080Y-146073335D01*
X156471614Y-145683700D01*
X155804334Y-145224921D01*
X155135016Y-144766876D01*
X154775169Y-144521731D01*
X153557168Y-143693850D01*
X152534741Y-144249376D01*
X152068951Y-144492741D01*
X151672864Y-144681902D01*
X151404864Y-144789791D01*
X151336645Y-144804804D01*
X151254614Y-144693963D01*
X151092781Y-144380746D01*
X150863225Y-143894043D01*
X150578028Y-143262746D01*
X150249272Y-142515747D01*
X149889035Y-141681937D01*
X149509400Y-140790208D01*
X149122447Y-139869452D01*
X148740258Y-138948560D01*
X148374912Y-138056423D01*
X148038491Y-137221934D01*
X147743076Y-136473984D01*
X147500747Y-135841464D01*
X147323585Y-135353267D01*
X147223671Y-135038283D01*
X147207603Y-134930104D01*
X147334959Y-134792119D01*
X147613804Y-134568126D01*
X147985842Y-134304668D01*
X148017068Y-134283823D01*
X148978644Y-133510342D01*
X149753990Y-132607953D01*
X150336387Y-131605510D01*
X150719116Y-130531869D01*
X150895457Y-129415882D01*
X150858691Y-128286405D01*
X150602099Y-127172292D01*
X150118961Y-126102396D01*
X149976818Y-125868317D01*
X149237491Y-124923090D01*
X148364066Y-124164058D01*
X147386773Y-123595170D01*
X146335842Y-123220372D01*
X145241503Y-123043611D01*
X144133986Y-123068836D01*
X143043521Y-123299992D01*
X142000339Y-123741028D01*
X141034668Y-124395892D01*
X140735957Y-124661686D01*
X139975727Y-125493694D01*
X139421754Y-126369560D01*
X139041746Y-127351329D01*
X138830103Y-128323584D01*
X138777856Y-129416707D01*
X138952073Y-130515257D01*
X139335058Y-131582100D01*
X139909113Y-132580107D01*
X140656543Y-133472145D01*
X141559652Y-134221083D01*
X141678343Y-134300027D01*
X142054369Y-134558559D01*
X142340218Y-134782560D01*
X142476879Y-134925582D01*
X142478866Y-134930104D01*
X142449527Y-135084819D01*
X142333223Y-135435954D01*
X142142040Y-135954626D01*
X141888065Y-136611947D01*
X141583382Y-137379035D01*
X141240077Y-138227002D01*
X140870236Y-139126966D01*
X140485944Y-140050039D01*
X140099287Y-140967338D01*
X139722351Y-141849977D01*
X139367221Y-142669071D01*
X139045983Y-143395736D01*
X138770722Y-144001086D01*
X138553524Y-144456235D01*
X138406475Y-144732300D01*
X138347257Y-144804804D01*
X138166308Y-144748345D01*
X137827731Y-144596922D01*
X137389911Y-144377599D01*
X137149161Y-144249376D01*
X136126735Y-143693850D01*
X134908733Y-144521731D01*
X134286971Y-144945847D01*
X133606249Y-145412577D01*
X132968345Y-145852041D01*
X132648823Y-146073335D01*
X132199427Y-146376588D01*
X131818893Y-146616902D01*
X131556859Y-146763847D01*
X131471749Y-146794911D01*
X131347872Y-146711113D01*
X131073714Y-146477180D01*
X130675853Y-146117399D01*
X130180869Y-145656060D01*
X129615341Y-145117451D01*
X129257670Y-144771627D01*
X128631916Y-144153783D01*
X128091126Y-143601169D01*
X127657161Y-143137424D01*
X127351881Y-142786186D01*
X127197149Y-142571097D01*
X127182304Y-142527448D01*
X127251192Y-142361417D01*
X127441555Y-142025711D01*
X127732277Y-141554316D01*
X128102242Y-140981222D01*
X128530334Y-140340414D01*
X128652073Y-140161762D01*
X129095659Y-139512444D01*
X129493624Y-138927843D01*
X129823719Y-138440809D01*
X130063695Y-138084194D01*
X130191302Y-137890851D01*
X130203629Y-137870858D01*
X130185193Y-137716773D01*
X130087332Y-137377995D01*
X129927111Y-136899194D01*
X129721591Y-136325045D01*
X129487837Y-135700221D01*
X129242912Y-135069394D01*
X129003878Y-134477238D01*
X128787800Y-133968425D01*
X128611740Y-133587628D01*
X128492763Y-133379520D01*
X128484305Y-133369538D01*
X128411549Y-133310062D01*
X128288667Y-133251247D01*
X128088684Y-133187004D01*
X127784629Y-133111245D01*
X127349530Y-133017881D01*
X126756413Y-132900823D01*
X125978305Y-132753983D01*
X124988234Y-132571273D01*
X124773870Y-132531989D01*
X124138539Y-132408636D01*
X123584667Y-132287964D01*
X123161203Y-132181617D01*
X122917091Y-132101238D01*
X122884358Y-132082499D01*
X122830420Y-131916366D01*
X122786576Y-131545106D01*
X122752857Y-131011877D01*
X122729292Y-130359834D01*
X122715910Y-129632133D01*
X122712741Y-128871929D01*
X122719813Y-128122379D01*
X122737156Y-127426637D01*
X122764800Y-126827861D01*
X122802774Y-126369206D01*
X122851107Y-126093827D01*
X122880244Y-126037465D01*
X123042458Y-125980612D01*
X123411837Y-125888119D01*
X123951580Y-125768010D01*
X124624886Y-125628309D01*
X125394954Y-125477038D01*
X125814508Y-125397755D01*
X126610549Y-125248217D01*
X127320425Y-125112751D01*
X127909440Y-124998152D01*
X128342901Y-124911215D01*
X128586110Y-124858735D01*
X128626137Y-124847101D01*
X128693791Y-124715928D01*
X128836801Y-124399976D01*
X129036105Y-123944383D01*
X129272641Y-123394285D01*
X129527345Y-122794823D01*
X129781156Y-122191134D01*
X130015010Y-121628355D01*
X130209846Y-121151627D01*
X130346599Y-120806085D01*
X130406208Y-120636869D01*
X130407317Y-120629473D01*
X130339742Y-120495985D01*
X130150292Y-120188798D01*
X129858879Y-119738442D01*
X129485416Y-119175449D01*
X129049813Y-118530348D01*
X128796585Y-118159804D01*
X128335159Y-117480385D01*
X127925327Y-116863544D01*
X127587085Y-116340486D01*
X127340431Y-115942413D01*
X127205361Y-115700532D01*
X127185854Y-115646308D01*
X127269711Y-115520098D01*
X127501540Y-115250620D01*
X127851727Y-114868062D01*
X128290658Y-114402616D01*
X128788718Y-113884472D01*
X129316295Y-113343819D01*
X129843773Y-112810847D01*
X130341539Y-112315747D01*
X130779980Y-111888709D01*
X131129480Y-111559923D01*
X131360426Y-111359578D01*
X131437687Y-111311765D01*
X131563486Y-111378997D01*
X131864370Y-111567876D01*
X132311085Y-111859176D01*
X132874377Y-112233668D01*
X133524992Y-112672126D01*
X134015766Y-113006163D01*
X136495399Y-114700561D01*
X138562334Y-113844326D01*
X140629268Y-112988091D01*
X141189434Y-110002133D01*
X141749600Y-107016176D01*
X147934303Y-107016176D01*
X148494468Y-110002133D01*
G37*
X148494468Y-110002133D02*
X149054634Y-112988091D01*
X151121569Y-113844326D01*
X153188503Y-114700561D01*
X155668137Y-113006163D01*
X156362564Y-112534386D01*
X156990288Y-112113151D01*
X157522017Y-111761690D01*
X157928459Y-111499234D01*
X158180320Y-111345017D01*
X158248911Y-111311765D01*
X158372475Y-111397287D01*
X158636517Y-111633718D01*
X159011441Y-111990857D01*
X159467651Y-112438500D01*
X159975551Y-112946445D01*
X160505545Y-113484491D01*
X161028037Y-114022435D01*
X161513431Y-114530074D01*
X161932132Y-114977206D01*
X162254542Y-115333629D01*
X162451067Y-115569141D01*
X162498049Y-115647958D01*
X162430434Y-115793265D01*
X162240877Y-116111602D01*
X161949307Y-116571832D01*
X161575654Y-117142817D01*
X161139850Y-117793418D01*
X160887317Y-118164505D01*
X160427025Y-118842109D01*
X160018009Y-119453578D01*
X159680111Y-119968474D01*
X159433175Y-120356362D01*
X159297042Y-120586805D01*
X159276585Y-120635233D01*
X159322959Y-120772867D01*
X159449365Y-121093639D01*
X159636730Y-121552447D01*
X159865982Y-122104193D01*
X160118048Y-122703774D01*
X160373855Y-123306092D01*
X160614330Y-123866045D01*
X160820401Y-124338533D01*
X160972996Y-124678457D01*
X161053040Y-124840715D01*
X161057765Y-124847101D01*
X161183452Y-124878082D01*
X161518180Y-124947200D01*
X162027255Y-125047661D01*
X162675981Y-125172669D01*
X163429662Y-125315429D01*
X163869394Y-125397755D01*
X164674741Y-125551843D01*
X165402158Y-125698467D01*
X166014843Y-125829604D01*
X166475996Y-125937230D01*
X166748815Y-126013323D01*
X166803659Y-126037465D01*
X166857373Y-126200871D01*
X166900712Y-126569922D01*
X166933706Y-127101460D01*
X166956385Y-127752332D01*
X166968777Y-128479380D01*
X166970912Y-129239450D01*
X166962819Y-129989384D01*
X166944528Y-130686028D01*
X166916069Y-131286226D01*
X166877469Y-131746822D01*
X166828759Y-132024659D01*
X166799545Y-132082499D01*
X166624913Y-132151826D01*
X166254876Y-132250940D01*
X165738379Y-132368196D01*
X165124370Y-132491953D01*
X164910033Y-132531989D01*
X163876627Y-132722205D01*
X163060311Y-132875394D01*
X162434111Y-132997643D01*
X161971056Y-133095042D01*
X161644172Y-133173678D01*
X161426486Y-133239641D01*
X161291026Y-133299019D01*
X161210819Y-133357901D01*
X161199597Y-133369538D01*
X161087577Y-133556998D01*
X160916689Y-133921822D01*
X160703999Y-134419335D01*
X160466567Y-135004864D01*
X160221459Y-135633738D01*
X159985737Y-136261283D01*
X159776465Y-136842825D01*
X159610705Y-137333693D01*
X159505522Y-137689212D01*
X159477978Y-137864710D01*
X159480274Y-137870858D01*
X159573602Y-138014305D01*
X159785328Y-138329925D01*
X160093202Y-138784865D01*
X160474974Y-139346275D01*
X160908396Y-139981301D01*
X161031829Y-140161762D01*
X161471942Y-140816013D01*
X161859222Y-141412954D01*
X162172573Y-141918307D01*
X162390897Y-142297793D01*
X162493099Y-142517135D01*
X162498049Y-142544082D01*
X162412181Y-142685718D01*
X162174911Y-142966303D01*
X161816741Y-143355683D01*
X161368172Y-143823701D01*
X160859706Y-144340202D01*
X160321845Y-144875030D01*
X159785090Y-145398029D01*
X159279943Y-145879045D01*
X158836905Y-146287920D01*
X158486479Y-146594501D01*
X158259165Y-146768629D01*
X158196282Y-146797059D01*
X158049910Y-146730097D01*
X157750228Y-146549496D01*
X157346052Y-146285679D01*
X157035080Y-146073335D01*
X156471614Y-145683700D01*
X155804334Y-145224921D01*
X155135016Y-144766876D01*
X154775169Y-144521731D01*
X153557168Y-143693850D01*
X152534741Y-144249376D01*
X152068951Y-144492741D01*
X151672864Y-144681902D01*
X151404864Y-144789791D01*
X151336645Y-144804804D01*
X151254614Y-144693963D01*
X151092781Y-144380746D01*
X150863225Y-143894043D01*
X150578028Y-143262746D01*
X150249272Y-142515747D01*
X149889035Y-141681937D01*
X149509400Y-140790208D01*
X149122447Y-139869452D01*
X148740258Y-138948560D01*
X148374912Y-138056423D01*
X148038491Y-137221934D01*
X147743076Y-136473984D01*
X147500747Y-135841464D01*
X147323585Y-135353267D01*
X147223671Y-135038283D01*
X147207603Y-134930104D01*
X147334959Y-134792119D01*
X147613804Y-134568126D01*
X147985842Y-134304668D01*
X148017068Y-134283823D01*
X148978644Y-133510342D01*
X149753990Y-132607953D01*
X150336387Y-131605510D01*
X150719116Y-130531869D01*
X150895457Y-129415882D01*
X150858691Y-128286405D01*
X150602099Y-127172292D01*
X150118961Y-126102396D01*
X149976818Y-125868317D01*
X149237491Y-124923090D01*
X148364066Y-124164058D01*
X147386773Y-123595170D01*
X146335842Y-123220372D01*
X145241503Y-123043611D01*
X144133986Y-123068836D01*
X143043521Y-123299992D01*
X142000339Y-123741028D01*
X141034668Y-124395892D01*
X140735957Y-124661686D01*
X139975727Y-125493694D01*
X139421754Y-126369560D01*
X139041746Y-127351329D01*
X138830103Y-128323584D01*
X138777856Y-129416707D01*
X138952073Y-130515257D01*
X139335058Y-131582100D01*
X139909113Y-132580107D01*
X140656543Y-133472145D01*
X141559652Y-134221083D01*
X141678343Y-134300027D01*
X142054369Y-134558559D01*
X142340218Y-134782560D01*
X142476879Y-134925582D01*
X142478866Y-134930104D01*
X142449527Y-135084819D01*
X142333223Y-135435954D01*
X142142040Y-135954626D01*
X141888065Y-136611947D01*
X141583382Y-137379035D01*
X141240077Y-138227002D01*
X140870236Y-139126966D01*
X140485944Y-140050039D01*
X140099287Y-140967338D01*
X139722351Y-141849977D01*
X139367221Y-142669071D01*
X139045983Y-143395736D01*
X138770722Y-144001086D01*
X138553524Y-144456235D01*
X138406475Y-144732300D01*
X138347257Y-144804804D01*
X138166308Y-144748345D01*
X137827731Y-144596922D01*
X137389911Y-144377599D01*
X137149161Y-144249376D01*
X136126735Y-143693850D01*
X134908733Y-144521731D01*
X134286971Y-144945847D01*
X133606249Y-145412577D01*
X132968345Y-145852041D01*
X132648823Y-146073335D01*
X132199427Y-146376588D01*
X131818893Y-146616902D01*
X131556859Y-146763847D01*
X131471749Y-146794911D01*
X131347872Y-146711113D01*
X131073714Y-146477180D01*
X130675853Y-146117399D01*
X130180869Y-145656060D01*
X129615341Y-145117451D01*
X129257670Y-144771627D01*
X128631916Y-144153783D01*
X128091126Y-143601169D01*
X127657161Y-143137424D01*
X127351881Y-142786186D01*
X127197149Y-142571097D01*
X127182304Y-142527448D01*
X127251192Y-142361417D01*
X127441555Y-142025711D01*
X127732277Y-141554316D01*
X128102242Y-140981222D01*
X128530334Y-140340414D01*
X128652073Y-140161762D01*
X129095659Y-139512444D01*
X129493624Y-138927843D01*
X129823719Y-138440809D01*
X130063695Y-138084194D01*
X130191302Y-137890851D01*
X130203629Y-137870858D01*
X130185193Y-137716773D01*
X130087332Y-137377995D01*
X129927111Y-136899194D01*
X129721591Y-136325045D01*
X129487837Y-135700221D01*
X129242912Y-135069394D01*
X129003878Y-134477238D01*
X128787800Y-133968425D01*
X128611740Y-133587628D01*
X128492763Y-133379520D01*
X128484305Y-133369538D01*
X128411549Y-133310062D01*
X128288667Y-133251247D01*
X128088684Y-133187004D01*
X127784629Y-133111245D01*
X127349530Y-133017881D01*
X126756413Y-132900823D01*
X125978305Y-132753983D01*
X124988234Y-132571273D01*
X124773870Y-132531989D01*
X124138539Y-132408636D01*
X123584667Y-132287964D01*
X123161203Y-132181617D01*
X122917091Y-132101238D01*
X122884358Y-132082499D01*
X122830420Y-131916366D01*
X122786576Y-131545106D01*
X122752857Y-131011877D01*
X122729292Y-130359834D01*
X122715910Y-129632133D01*
X122712741Y-128871929D01*
X122719813Y-128122379D01*
X122737156Y-127426637D01*
X122764800Y-126827861D01*
X122802774Y-126369206D01*
X122851107Y-126093827D01*
X122880244Y-126037465D01*
X123042458Y-125980612D01*
X123411837Y-125888119D01*
X123951580Y-125768010D01*
X124624886Y-125628309D01*
X125394954Y-125477038D01*
X125814508Y-125397755D01*
X126610549Y-125248217D01*
X127320425Y-125112751D01*
X127909440Y-124998152D01*
X128342901Y-124911215D01*
X128586110Y-124858735D01*
X128626137Y-124847101D01*
X128693791Y-124715928D01*
X128836801Y-124399976D01*
X129036105Y-123944383D01*
X129272641Y-123394285D01*
X129527345Y-122794823D01*
X129781156Y-122191134D01*
X130015010Y-121628355D01*
X130209846Y-121151627D01*
X130346599Y-120806085D01*
X130406208Y-120636869D01*
X130407317Y-120629473D01*
X130339742Y-120495985D01*
X130150292Y-120188798D01*
X129858879Y-119738442D01*
X129485416Y-119175449D01*
X129049813Y-118530348D01*
X128796585Y-118159804D01*
X128335159Y-117480385D01*
X127925327Y-116863544D01*
X127587085Y-116340486D01*
X127340431Y-115942413D01*
X127205361Y-115700532D01*
X127185854Y-115646308D01*
X127269711Y-115520098D01*
X127501540Y-115250620D01*
X127851727Y-114868062D01*
X128290658Y-114402616D01*
X128788718Y-113884472D01*
X129316295Y-113343819D01*
X129843773Y-112810847D01*
X130341539Y-112315747D01*
X130779980Y-111888709D01*
X131129480Y-111559923D01*
X131360426Y-111359578D01*
X131437687Y-111311765D01*
X131563486Y-111378997D01*
X131864370Y-111567876D01*
X132311085Y-111859176D01*
X132874377Y-112233668D01*
X133524992Y-112672126D01*
X134015766Y-113006163D01*
X136495399Y-114700561D01*
X138562334Y-113844326D01*
X140629268Y-112988091D01*
X141189434Y-110002133D01*
X141749600Y-107016176D01*
X147934303Y-107016176D01*
X148494468Y-110002133D01*
D12*
X151070000Y-87630000D02*
X151070000Y-86300000D01*
X151070000Y-86300000D02*
X152400000Y-86300000D01*
X153670000Y-86300000D02*
X161350000Y-86300000D01*
X161350000Y-88960000D02*
X161350000Y-86300000D01*
X153670000Y-88960000D02*
X161350000Y-88960000D01*
X153670000Y-88960000D02*
X153670000Y-86300000D01*
X165350000Y-117300000D02*
X165350000Y-115800000D01*
X164100000Y-113300000D02*
X159600000Y-113300000D01*
X158350000Y-115800000D02*
X158350000Y-117300000D01*
X159600000Y-119800000D02*
X164100000Y-119800000D01*
D10*
X149082380Y-87963333D02*
X149796666Y-87963333D01*
X149939523Y-88010952D01*
X150034761Y-88106190D01*
X150082380Y-88249047D01*
X150082380Y-88344285D01*
X150082380Y-86963333D02*
X150082380Y-87534761D01*
X150082380Y-87249047D02*
X149082380Y-87249047D01*
X149225238Y-87344285D01*
X149320476Y-87439523D01*
X149368095Y-87534761D01*
M02*
